<svg xmlns="http://www.w3.org/2000/svg" width="995.065" height="615.901" viewBox="0 0 995.065 615.901">
  <g id="Grupo_12310" data-name="Grupo 12310" transform="translate(-465 -3723)">
    <path id="Trazado_40468" data-name="Trazado 40468" d="M38.975,0H267.051a38.975,38.975,0,0,1,0,77.95H38.975a38.975,38.975,0,0,1,0-77.95Z" transform="translate(465 3723)" fill="#1ec488"/>
    <path id="Trazado_40456" data-name="Trazado 40456" d="M38.975,0H267.051a38.975,38.975,0,0,1,0,77.95H38.975a38.975,38.975,0,0,1,0-77.95Z" transform="translate(787.386 3723)" fill="#ff8f00"/>
    <path id="Trazado_40459" data-name="Trazado 40459" d="M0,0H3.849V520.629H0Z" transform="translate(940.398 3800.95)" fill="#082143"/>
    <path id="Trazado_40461" data-name="Trazado 40461" d="M38.975,0H267.051a38.975,38.975,0,0,1,0,77.95H38.975a38.975,38.975,0,0,1,0-77.95Z" transform="translate(791.235 3978.984)" fill="#082143"/>
    <path id="Trazado_40464" data-name="Trazado 40464" d="M38.975,0H267.051a38.975,38.975,0,0,1,0,77.95H38.975a38.975,38.975,0,0,1,0-77.95Z" transform="translate(791.235 4074.256)" fill="#082143"/>
    <path id="Trazado_40470" data-name="Trazado 40470" d="M38.975,0H267.051a38.975,38.975,0,0,1,0,77.95H38.975a38.975,38.975,0,0,1,0-77.95Z" transform="translate(791.235 4168.566)" fill="#082143"/>
    <path id="Trazado_40477" data-name="Trazado 40477" d="M38.975,0H267.051a38.975,38.975,0,0,1,0,77.95H38.975a38.975,38.975,0,0,1,0-77.95Z" transform="translate(791.235 4260.951)" fill="#082143"/>
    <path id="Trazado_40476" data-name="Trazado 40476" d="M0,0H3.849V268.494H0Z" transform="translate(1298.391 3883.712)" fill="#082143"/>
    <path id="Trazado_40465" data-name="Trazado 40465" d="M38.975,0H267.051a38.975,38.975,0,0,1,0,77.95H38.975a38.975,38.975,0,0,1,0-77.95Z" transform="translate(1154.04 3978.984)" fill="#6029dd"/>
    <path id="Trazado_40466" data-name="Trazado 40466" d="M38.975,0H267.051a38.975,38.975,0,0,1,0,77.95H38.975a38.975,38.975,0,0,1,0-77.95Z" transform="translate(1154.04 4074.256)" fill="#6029dd"/>
    <path id="Trazado_40462" data-name="Trazado 40462" d="M0,0H3.849V132.8H0Z" transform="translate(1059.248 3924.611) rotate(-90)" fill="#082143"/>
    <path id="Trazado_40457" data-name="Trazado 40457" d="M38.975,0H267.051a38.975,38.975,0,0,1,0,77.95H38.975a38.975,38.975,0,0,1,0-77.95Z" transform="translate(791.235 3883.712)" fill="#6029dd"/>
    <path id="Trazado_40467" data-name="Trazado 40467" d="M38.975,0H267.051a38.975,38.975,0,0,1,0,77.95H38.975a38.975,38.975,0,0,1,0-77.95Z" transform="translate(1154.04 3883.712)" fill="#6029dd"/>
    <path id="Trazado_40549" data-name="Trazado 40549" d="M16.284-.847l-1.48-4.2H6.247l-1.48,4.2H.439l7.5-20.37h5.174l7.5,20.37Zm-8.8-7.739h6.076l-3.031-8.641ZM28.238-.565A8.1,8.1,0,0,1,24.009-1.58,4.29,4.29,0,0,1,21.937-4.6l3.4-.959a2.73,2.73,0,0,0,2.9,2.157,3,3,0,0,0,1.48-.331A1.153,1.153,0,0,0,30.3-4.851a1.185,1.185,0,0,0-.24-.747,1.9,1.9,0,0,0-.74-.536,9.22,9.22,0,0,0-.987-.381q-.486-.155-1.29-.374T25.7-7.3a8.971,8.971,0,0,1-1.276-.543,5.442,5.442,0,0,1-1.057-.747,3.011,3.011,0,0,1-.789-1.135,4.094,4.094,0,0,1-.275-1.551,3.7,3.7,0,0,1,1.572-3.242,7.023,7.023,0,0,1,4.109-1.1,7.2,7.2,0,0,1,3.792.93,4.211,4.211,0,0,1,1.945,2.9l-3.144.7A2.462,2.462,0,0,0,28-12.914a2.825,2.825,0,0,0-1.424.324,1.042,1.042,0,0,0-.564.959,1.1,1.1,0,0,0,.085.437.865.865,0,0,0,.3.352,4.318,4.318,0,0,0,.409.268,3.084,3.084,0,0,0,.578.233q.381.12.634.183t.74.19l.754.2q.775.211,1.36.423a7.967,7.967,0,0,1,1.248.592,4.478,4.478,0,0,1,1.093.853,3.8,3.8,0,0,1,.712,1.2A4.425,4.425,0,0,1,34.2-5.09a4.36,4.36,0,0,1-.486,2.1,3.651,3.651,0,0,1-1.332,1.417A6.484,6.484,0,0,1,30.5-.812,9.762,9.762,0,0,1,28.238-.565ZM50.751-8.3l-.042.973H39.967a3.752,3.752,0,0,0,1.156,2.65,3.7,3.7,0,0,0,2.552.916,3.563,3.563,0,0,0,1.91-.5A3.076,3.076,0,0,0,46.8-5.725l3.722.55a6.327,6.327,0,0,1-2.537,3.4A7.544,7.544,0,0,1,43.7-.565,7.845,7.845,0,0,1,38.057-2.56a7.278,7.278,0,0,1-2.093-5.533,7.321,7.321,0,0,1,2.1-5.533,7.612,7.612,0,0,1,5.512-2.023,7.275,7.275,0,0,1,5.2,1.847A7.244,7.244,0,0,1,50.751-8.3ZM43.6-12.773A3.208,3.208,0,0,0,40.08-9.982h6.654a3.052,3.052,0,0,0-1-2.072A3.172,3.172,0,0,0,43.6-12.773ZM51.3-.847l5.949-7.26L51.3-15.339h5.075L59.7-10.771l3.355-4.567H68.09L62.127-8.093,68.09-.847H63.058L59.731-5.386,56.39-.847ZM79.918-15.339h4.06V-.847H80.129L80.03-2.6a5.534,5.534,0,0,1-4.61,2.03,5.649,5.649,0,0,1-4-1.3,4.835,4.835,0,0,1-1.4-3.715v-9.755H74.1v8.881a2.505,2.505,0,0,0,.726,1.988,2.756,2.756,0,0,0,1.882.634,3.268,3.268,0,0,0,2.3-.825,3.542,3.542,0,0,0,.909-2.685ZM100.062-4.78a13.557,13.557,0,0,0,.352,3.538v.395H96.622L96.3-2.426a4.712,4.712,0,0,1-2.03,1.4,7.481,7.481,0,0,1-2.622.465,6.9,6.9,0,0,1-1.353-.127,4.6,4.6,0,0,1-1.219-.43,3.7,3.7,0,0,1-1.008-.754,3.307,3.307,0,0,1-.677-1.149A4.577,4.577,0,0,1,87.135-4.6,4.359,4.359,0,0,1,87.4-6.169a3.684,3.684,0,0,1,.7-1.177,4.275,4.275,0,0,1,1.142-.86,8.737,8.737,0,0,1,1.438-.62,17.18,17.18,0,0,1,1.72-.451l2.382-.536a2.628,2.628,0,0,0,1.078-.458A.914.914,0,0,0,96.185-11a1.5,1.5,0,0,0-.712-1.4,3.324,3.324,0,0,0-1.727-.423q-2.5,0-2.833,2.213l-3.595-.648a4.866,4.866,0,0,1,2.1-3.306,8.348,8.348,0,0,1,4.553-1.064q6.09,0,6.09,5.23ZM92.915-3.314a3.265,3.265,0,0,0,2.509-1.05A4.426,4.426,0,0,0,96.4-7.473l-3.44.973a4.065,4.065,0,0,0-1.445.592,1.216,1.216,0,0,0-.5,1.043,1.35,1.35,0,0,0,.536,1.149A2.217,2.217,0,0,0,92.915-3.314ZM104.009-.847V-22.5h4.1V-.847Z" transform="translate(877.83 3771.002)" fill="#fff"/>
    <path id="Trazado_40558" data-name="Trazado 40558" d="M9.442-.565A9.842,9.842,0,0,1,3.789-2.123,6.247,6.247,0,0,1,1.04-6.486l4.37-1A3.711,3.711,0,0,0,6.756-4.914a4.467,4.467,0,0,0,2.855.9,3.687,3.687,0,0,0,2.227-.627A2.116,2.116,0,0,0,12.684-6.5a1.977,1.977,0,0,0-.719-1.508,4.7,4.7,0,0,0-1.431-.923q-.712-.275-2.291-.754-.211-.07-.31-.1-.8-.254-1.3-.423T5.417-10.68a8.12,8.12,0,0,1-1.184-.592A8.67,8.67,0,0,1,3.253-12a3.84,3.84,0,0,1-.818-.937,4.98,4.98,0,0,1-.493-1.17,5.164,5.164,0,0,1-.2-1.452A5.453,5.453,0,0,1,2.7-18.771a5.828,5.828,0,0,1,2.566-2.044A9.338,9.338,0,0,1,8.934-21.5a11.6,11.6,0,0,1,2.657.3,9.307,9.307,0,0,1,2.375.909,5.819,5.819,0,0,1,1.9,1.678,6.308,6.308,0,0,1,1.078,2.474l-4.088,1.015a3.312,3.312,0,0,0-3.665-2.918,4.013,4.013,0,0,0-2.27.592,2.006,2.006,0,0,0-.888,1.79q0,1.114,1.48,1.8a22.057,22.057,0,0,0,2.833.973q.832.254,1.353.423t1.311.493a9.11,9.11,0,0,1,1.283.627,9.492,9.492,0,0,1,1.071.782,4.213,4.213,0,0,1,.909,1.015,5.488,5.488,0,0,1,.557,1.262,5.273,5.273,0,0,1,.226,1.572,6.176,6.176,0,0,1-.409,2.3A5,5,0,0,1,15.525-2.68,6.508,6.508,0,0,1,13.84-1.489a8.172,8.172,0,0,1-2.072.7A11.918,11.918,0,0,1,9.442-.565ZM34.055-8.3l-.042.973H23.271a3.752,3.752,0,0,0,1.156,2.65,3.7,3.7,0,0,0,2.552.916,3.563,3.563,0,0,0,1.91-.5,3.076,3.076,0,0,0,1.219-1.459l3.722.55a6.327,6.327,0,0,1-2.537,3.4A7.544,7.544,0,0,1,27.006-.565,7.845,7.845,0,0,1,21.361-2.56a7.278,7.278,0,0,1-2.093-5.533,7.321,7.321,0,0,1,2.1-5.533,7.612,7.612,0,0,1,5.512-2.023,7.275,7.275,0,0,1,5.2,1.847A7.244,7.244,0,0,1,34.055-8.3Zm-7.147-4.469a3.208,3.208,0,0,0-3.524,2.791h6.654a3.052,3.052,0,0,0-1-2.072A3.172,3.172,0,0,0,26.908-12.773ZM34.6-.847l5.949-7.26L34.6-15.339H39.68l3.327,4.567,3.355-4.567h5.033L45.431-8.093,51.394-.847H46.361L43.035-5.386,39.694-.847ZM63.221-15.339h4.06V-.847H63.433l-.1-1.748a5.534,5.534,0,0,1-4.61,2.03,5.649,5.649,0,0,1-4-1.3,4.835,4.835,0,0,1-1.4-3.715v-9.755H57.4v8.881a2.505,2.505,0,0,0,.726,1.988,2.756,2.756,0,0,0,1.882.634,3.268,3.268,0,0,0,2.3-.825,3.542,3.542,0,0,0,.909-2.685ZM83.366-4.78a13.557,13.557,0,0,0,.352,3.538v.395H79.926L79.6-2.426a4.712,4.712,0,0,1-2.03,1.4,7.481,7.481,0,0,1-2.622.465A6.9,6.9,0,0,1,73.6-.692a4.6,4.6,0,0,1-1.219-.43,3.7,3.7,0,0,1-1.008-.754,3.307,3.307,0,0,1-.677-1.149A4.577,4.577,0,0,1,70.439-4.6a4.359,4.359,0,0,1,.268-1.572,3.684,3.684,0,0,1,.7-1.177,4.275,4.275,0,0,1,1.142-.86,8.737,8.737,0,0,1,1.438-.62,17.18,17.18,0,0,1,1.72-.451l2.382-.536a2.628,2.628,0,0,0,1.078-.458A.914.914,0,0,0,79.489-11a1.5,1.5,0,0,0-.712-1.4,3.324,3.324,0,0,0-1.727-.423q-2.5,0-2.833,2.213l-3.595-.648a4.866,4.866,0,0,1,2.1-3.306,8.348,8.348,0,0,1,4.553-1.064q6.09,0,6.09,5.23ZM76.219-3.314a3.265,3.265,0,0,0,2.509-1.05A4.426,4.426,0,0,0,79.7-7.473l-3.44.973a4.065,4.065,0,0,0-1.445.592,1.216,1.216,0,0,0-.5,1.043,1.35,1.35,0,0,0,.536,1.149A2.217,2.217,0,0,0,76.219-3.314ZM87.313-.847V-22.5h4.1V-.847Z" transform="translate(571.459 3771.002)" fill="#fff"/>
    <path id="Trazado_40550" data-name="Trazado 40550" d="M16.284-.835l-1.48-4.2H6.247l-1.48,4.2H.439l7.5-20.37h5.174l7.5,20.37Zm-8.8-7.739h6.076l-3.031-8.641Zm32.817-7.034a5.537,5.537,0,0,1,3.736,1.177,4.212,4.212,0,0,1,1.367,3.376V-.835h-4.06V-9.9a2.421,2.421,0,0,0-.648-1.833,2.271,2.271,0,0,0-1.635-.62,2.619,2.619,0,0,0-1.974.789,3.585,3.585,0,0,0-.761,2.552V-.835h-4.1V-9.857a2.485,2.485,0,0,0-.648-1.868,2.312,2.312,0,0,0-1.678-.627,2.536,2.536,0,0,0-1.959.832A3.972,3.972,0,0,0,27.181-8.8V-.835H23.135V-15.326h4.046v1.706a4.928,4.928,0,0,1,4.2-1.988,6.2,6.2,0,0,1,2.728.557,3.713,3.713,0,0,1,1.713,1.614A5.124,5.124,0,0,1,40.305-15.608ZM51.428-17.5a2.279,2.279,0,0,1-1.663-.684,2.244,2.244,0,0,1-.691-1.656,2.217,2.217,0,0,1,.7-1.642,2.286,2.286,0,0,1,1.656-.684,2.247,2.247,0,0,1,1.635.684,2.228,2.228,0,0,1,.691,1.642,2.244,2.244,0,0,1-.691,1.656A2.247,2.247,0,0,1,51.428-17.5ZM49.356-.835V-15.326h4.088V-.835Zm13.688,0a4.377,4.377,0,0,1-3.27-1.177A4.578,4.578,0,0,1,58.617-5.36v-6.851H55.77v-3.115h.916a2.391,2.391,0,0,0,1.8-.606,3.121,3.121,0,0,0,.578-2.157v-1.917h3.665v4.68h2.989v3.115H62.733V-5.8q0,1.875,1.678,1.875h1.311V-.835Zm12.518.282a9.113,9.113,0,0,1-4.1-.888,6.638,6.638,0,0,1-2.812-2.608,7.772,7.772,0,0,1-1.022-4.046,7.089,7.089,0,0,1,2.2-5.5,8.158,8.158,0,0,1,5.737-2.016,8.178,8.178,0,0,1,5.752,2.016,7.089,7.089,0,0,1,2.2,5.5,7.128,7.128,0,0,1-2.2,5.519A8.161,8.161,0,0,1,75.562-.553Zm-.042-3.228a3.72,3.72,0,0,0,2.869-1.184,4.433,4.433,0,0,0,1.093-3.13,4.433,4.433,0,0,0-1.093-3.13,3.72,3.72,0,0,0-2.869-1.184,3.584,3.584,0,0,0-2.784,1.191,4.474,4.474,0,0,0-1.078,3.122,4.474,4.474,0,0,0,1.078,3.122A3.584,3.584,0,0,0,75.519-3.781ZM91.632-.553A8.1,8.1,0,0,1,87.4-1.568a4.29,4.29,0,0,1-2.072-3.017l3.4-.959a2.73,2.73,0,0,0,2.9,2.157,3,3,0,0,0,1.48-.331,1.153,1.153,0,0,0,.578-1.121,1.186,1.186,0,0,0-.24-.747,1.9,1.9,0,0,0-.74-.536,9.221,9.221,0,0,0-.987-.381q-.486-.155-1.29-.374t-1.339-.416a8.971,8.971,0,0,1-1.276-.543,5.442,5.442,0,0,1-1.057-.747,3.011,3.011,0,0,1-.789-1.135,4.094,4.094,0,0,1-.275-1.551,3.7,3.7,0,0,1,1.572-3.242,7.023,7.023,0,0,1,4.109-1.1,7.2,7.2,0,0,1,3.792.93,4.211,4.211,0,0,1,1.945,2.9l-3.144.7a2.462,2.462,0,0,0-2.58-1.833,2.825,2.825,0,0,0-1.424.324,1.042,1.042,0,0,0-.564.959,1.1,1.1,0,0,0,.085.437.865.865,0,0,0,.3.352,4.318,4.318,0,0,0,.409.268,3.084,3.084,0,0,0,.578.233q.381.12.634.183t.74.19l.754.2q.775.211,1.36.423a7.967,7.967,0,0,1,1.248.592A4.478,4.478,0,0,1,96.6-7.89a3.8,3.8,0,0,1,.712,1.2,4.425,4.425,0,0,1,.282,1.614,4.36,4.36,0,0,1-.486,2.1,3.651,3.651,0,0,1-1.332,1.417A6.484,6.484,0,0,1,93.895-.8,9.762,9.762,0,0,1,91.632-.553ZM102.585-17.5a2.279,2.279,0,0,1-1.663-.684,2.244,2.244,0,0,1-.691-1.656,2.217,2.217,0,0,1,.7-1.642,2.286,2.286,0,0,1,1.656-.684,2.247,2.247,0,0,1,1.635.684,2.228,2.228,0,0,1,.691,1.642,2.244,2.244,0,0,1-.691,1.656A2.247,2.247,0,0,1,102.585-17.5ZM100.513-.835V-15.326H104.6V-.835Zm13.392.282a8.1,8.1,0,0,1-4.229-1.015A4.29,4.29,0,0,1,107.6-4.584l3.4-.959a2.73,2.73,0,0,0,2.9,2.157,3,3,0,0,0,1.48-.331,1.153,1.153,0,0,0,.578-1.121,1.185,1.185,0,0,0-.24-.747,1.9,1.9,0,0,0-.74-.536A9.221,9.221,0,0,0,114-6.5q-.486-.155-1.29-.374t-1.339-.416a8.971,8.971,0,0,1-1.276-.543,5.441,5.441,0,0,1-1.057-.747,3.011,3.011,0,0,1-.789-1.135,4.094,4.094,0,0,1-.275-1.551,3.7,3.7,0,0,1,1.572-3.242,7.023,7.023,0,0,1,4.109-1.1,7.2,7.2,0,0,1,3.792.93,4.211,4.211,0,0,1,1.945,2.9l-3.144.7a2.462,2.462,0,0,0-2.58-1.833,2.825,2.825,0,0,0-1.424.324,1.042,1.042,0,0,0-.564.959,1.1,1.1,0,0,0,.085.437.865.865,0,0,0,.3.352,4.318,4.318,0,0,0,.409.268,3.085,3.085,0,0,0,.578.233q.381.12.634.183t.74.19l.754.2q.775.211,1.36.423a7.967,7.967,0,0,1,1.248.592,4.478,4.478,0,0,1,1.093.853,3.8,3.8,0,0,1,.712,1.2,4.425,4.425,0,0,1,.282,1.614,4.36,4.36,0,0,1-.486,2.1,3.651,3.651,0,0,1-1.332,1.417,6.484,6.484,0,0,1-1.882.761A9.763,9.763,0,0,1,113.905-.553Z" transform="translate(884.566 3932.664)" fill="#fff"/>
    <path id="Trazado_40551" data-name="Trazado 40551" d="M26.051-.835H21.836L20.5-16.186,15.337-.835H12.6L7.443-16.186,6.089-.835H1.86L3.566-21.2H9.6L13.941-8.419,18.34-21.2h6.033ZM32.014-17.5a2.279,2.279,0,0,1-1.663-.684,2.244,2.244,0,0,1-.691-1.656,2.217,2.217,0,0,1,.7-1.642,2.286,2.286,0,0,1,1.656-.684,2.247,2.247,0,0,1,1.635.684,2.228,2.228,0,0,1,.691,1.642,2.244,2.244,0,0,1-.691,1.656A2.247,2.247,0,0,1,32.014-17.5ZM29.941-.835V-15.326h4.088V-.835Zm13.688,0a4.377,4.377,0,0,1-3.27-1.177A4.578,4.578,0,0,1,39.2-5.36v-6.851H36.355v-3.115h.916a2.391,2.391,0,0,0,1.8-.606,3.121,3.121,0,0,0,.578-2.157v-1.917h3.665v4.68h2.989v3.115H43.319V-5.8q0,1.875,1.678,1.875h1.311V-.835Zm12.518.282a9.113,9.113,0,0,1-4.1-.888,6.638,6.638,0,0,1-2.812-2.608,7.772,7.772,0,0,1-1.022-4.046,7.089,7.089,0,0,1,2.2-5.5,8.158,8.158,0,0,1,5.737-2.016A8.178,8.178,0,0,1,61.9-13.592a7.089,7.089,0,0,1,2.2,5.5,7.128,7.128,0,0,1-2.2,5.519A8.161,8.161,0,0,1,56.147-.553Zm-.042-3.228a3.72,3.72,0,0,0,2.869-1.184,4.433,4.433,0,0,0,1.093-3.13,4.433,4.433,0,0,0-1.093-3.13,3.72,3.72,0,0,0-2.869-1.184,3.584,3.584,0,0,0-2.784,1.191,4.474,4.474,0,0,0-1.078,3.122,4.474,4.474,0,0,0,1.078,3.122A3.584,3.584,0,0,0,56.105-3.781ZM72.218-.553a8.1,8.1,0,0,1-4.229-1.015,4.29,4.29,0,0,1-2.072-3.017l3.4-.959a2.73,2.73,0,0,0,2.9,2.157,3,3,0,0,0,1.48-.331,1.153,1.153,0,0,0,.578-1.121,1.185,1.185,0,0,0-.24-.747,1.9,1.9,0,0,0-.74-.536,9.221,9.221,0,0,0-.987-.381q-.486-.155-1.29-.374T69.68-7.291A8.971,8.971,0,0,1,68.4-7.834a5.442,5.442,0,0,1-1.057-.747,3.011,3.011,0,0,1-.789-1.135,4.094,4.094,0,0,1-.275-1.551,3.7,3.7,0,0,1,1.572-3.242,7.023,7.023,0,0,1,4.109-1.1,7.2,7.2,0,0,1,3.792.93,4.211,4.211,0,0,1,1.945,2.9l-3.144.7a2.462,2.462,0,0,0-2.58-1.833,2.825,2.825,0,0,0-1.424.324,1.042,1.042,0,0,0-.564.959,1.1,1.1,0,0,0,.085.437.865.865,0,0,0,.3.352,4.319,4.319,0,0,0,.409.268,3.084,3.084,0,0,0,.578.233q.381.12.634.183t.74.19l.754.2q.775.211,1.36.423a7.967,7.967,0,0,1,1.248.592,4.478,4.478,0,0,1,1.093.853,3.8,3.8,0,0,1,.712,1.2,4.425,4.425,0,0,1,.282,1.614,4.36,4.36,0,0,1-.486,2.1,3.651,3.651,0,0,1-1.332,1.417A6.484,6.484,0,0,1,74.48-.8,9.762,9.762,0,0,1,72.218-.553ZM83.171-17.5a2.279,2.279,0,0,1-1.663-.684,2.244,2.244,0,0,1-.691-1.656,2.217,2.217,0,0,1,.7-1.642,2.286,2.286,0,0,1,1.656-.684,2.247,2.247,0,0,1,1.635.684,2.228,2.228,0,0,1,.691,1.642,2.244,2.244,0,0,1-.691,1.656A2.247,2.247,0,0,1,83.171-17.5ZM81.1-.835V-15.326h4.088V-.835Zm13.392.282a8.1,8.1,0,0,1-4.229-1.015A4.29,4.29,0,0,1,88.19-4.584l3.4-.959a2.73,2.73,0,0,0,2.9,2.157,3,3,0,0,0,1.48-.331,1.153,1.153,0,0,0,.578-1.121,1.186,1.186,0,0,0-.24-.747,1.9,1.9,0,0,0-.74-.536,9.221,9.221,0,0,0-.987-.381q-.486-.155-1.29-.374t-1.339-.416a8.971,8.971,0,0,1-1.276-.543,5.442,5.442,0,0,1-1.057-.747,3.011,3.011,0,0,1-.789-1.135,4.094,4.094,0,0,1-.275-1.551,3.7,3.7,0,0,1,1.572-3.242,7.023,7.023,0,0,1,4.109-1.1,7.2,7.2,0,0,1,3.792.93,4.211,4.211,0,0,1,1.945,2.9l-3.144.7a2.462,2.462,0,0,0-2.58-1.833,2.825,2.825,0,0,0-1.424.324,1.042,1.042,0,0,0-.564.959,1.1,1.1,0,0,0,.085.437.865.865,0,0,0,.3.352,4.318,4.318,0,0,0,.409.268,3.084,3.084,0,0,0,.578.233q.381.12.634.183t.74.19l.754.2q.775.211,1.36.423a7.967,7.967,0,0,1,1.248.592,4.478,4.478,0,0,1,1.093.853,3.8,3.8,0,0,1,.712,1.2,4.425,4.425,0,0,1,.282,1.614,4.36,4.36,0,0,1-.486,2.1,3.651,3.651,0,0,1-1.332,1.417A6.484,6.484,0,0,1,96.753-.8,9.762,9.762,0,0,1,94.491-.553Z" transform="translate(894.136 4027.936)" fill="#fff"/>
    <path id="Trazado_40552" data-name="Trazado 40552" d="M2.739-.835V-21.2H6.968V-.835ZM20.248-15.608a5.649,5.649,0,0,1,4,1.3,4.835,4.835,0,0,1,1.4,3.715V-.835H21.573V-9.716a2.524,2.524,0,0,0-.726-2,2.735,2.735,0,0,0-1.868-.634,3.816,3.816,0,0,0-1.212.183,3.115,3.115,0,0,0-1.015.571,2.523,2.523,0,0,0-.726,1.093,5.053,5.053,0,0,0-.275,1.678V-.835h-4.06V-15.326h4.06v1.607A5.584,5.584,0,0,1,20.248-15.608ZM31.666-17.5A2.279,2.279,0,0,1,30-18.181a2.244,2.244,0,0,1-.691-1.656,2.217,2.217,0,0,1,.7-1.642,2.286,2.286,0,0,1,1.656-.684,2.247,2.247,0,0,1,1.635.684,2.228,2.228,0,0,1,.691,1.642,2.244,2.244,0,0,1-.691,1.656A2.247,2.247,0,0,1,31.666-17.5ZM26.619,5.96V2.788a4.67,4.67,0,0,0,1.522-.2,1.7,1.7,0,0,0,.9-.726A3.215,3.215,0,0,0,29.474.61a14.066,14.066,0,0,0,.106-1.938v-14H33.7v14q0,3.792-1.649,5.54T26.619,5.96ZM51.543-8.292l-.042.973H40.758a3.752,3.752,0,0,0,1.156,2.65,3.7,3.7,0,0,0,2.552.916,3.563,3.563,0,0,0,1.91-.5A3.076,3.076,0,0,0,47.6-5.712l3.722.55a6.327,6.327,0,0,1-2.537,3.4A7.544,7.544,0,0,1,44.494-.553a7.845,7.845,0,0,1-5.646-1.995A7.278,7.278,0,0,1,36.755-8.08a7.321,7.321,0,0,1,2.1-5.533,7.612,7.612,0,0,1,5.512-2.023,7.275,7.275,0,0,1,5.2,1.847A7.244,7.244,0,0,1,51.543-8.292ZM44.4-12.76a3.208,3.208,0,0,0-3.524,2.791h6.654a3.052,3.052,0,0,0-1-2.072A3.172,3.172,0,0,0,44.4-12.76Zm14.125-.268a4.7,4.7,0,0,1,1.9-1.741,5.807,5.807,0,0,1,2.833-.726v3.623A5.49,5.49,0,0,0,59.789-11a3.816,3.816,0,0,0-1.071,3.1V-.835H54.63V-15.326h3.891ZM71.87-.835A4.377,4.377,0,0,1,68.6-2.012,4.578,4.578,0,0,1,67.444-5.36v-6.851H64.6v-3.115h.916a2.391,2.391,0,0,0,1.8-.606,3.121,3.121,0,0,0,.578-2.157v-1.917H71.56v4.68h2.989v3.115H71.56V-5.8q0,1.875,1.678,1.875h1.311V-.835Zm12.518.282a9.113,9.113,0,0,1-4.1-.888,6.638,6.638,0,0,1-2.812-2.608,7.772,7.772,0,0,1-1.022-4.046,7.089,7.089,0,0,1,2.2-5.5,8.158,8.158,0,0,1,5.737-2.016,8.178,8.178,0,0,1,5.752,2.016,7.089,7.089,0,0,1,2.2,5.5,7.128,7.128,0,0,1-2.2,5.519A8.161,8.161,0,0,1,84.388-.553Zm-.042-3.228a3.72,3.72,0,0,0,2.869-1.184,4.433,4.433,0,0,0,1.093-3.13,4.433,4.433,0,0,0-1.093-3.13,3.72,3.72,0,0,0-2.869-1.184,3.584,3.584,0,0,0-2.784,1.191,4.474,4.474,0,0,0-1.078,3.122,4.474,4.474,0,0,0,1.078,3.122A3.584,3.584,0,0,0,84.346-3.781Z" transform="translate(897.952 4121.283)" fill="#fff"/>
    <path id="Trazado_40553" data-name="Trazado 40553" d="M14.552-17.445H7v4.624h6.7v3.679H7v4.61h7.556V-.8H2.739v-20.37H14.552ZM23.476-.515A8.1,8.1,0,0,1,19.247-1.53a4.29,4.29,0,0,1-2.072-3.017l3.4-.959a2.73,2.73,0,0,0,2.9,2.157,3,3,0,0,0,1.48-.331A1.153,1.153,0,0,0,25.534-4.8a1.185,1.185,0,0,0-.24-.747,1.9,1.9,0,0,0-.74-.536,9.221,9.221,0,0,0-.987-.381q-.486-.155-1.29-.374t-1.339-.416A8.971,8.971,0,0,1,19.663-7.8a5.442,5.442,0,0,1-1.057-.747,3.011,3.011,0,0,1-.789-1.135,4.094,4.094,0,0,1-.275-1.551,3.7,3.7,0,0,1,1.572-3.242,7.023,7.023,0,0,1,4.109-1.1,7.2,7.2,0,0,1,3.792.93,4.211,4.211,0,0,1,1.945,2.9l-3.144.7a2.462,2.462,0,0,0-2.58-1.833,2.825,2.825,0,0,0-1.424.324,1.042,1.042,0,0,0-.564.959,1.1,1.1,0,0,0,.085.437.865.865,0,0,0,.3.352,4.318,4.318,0,0,0,.409.268,3.084,3.084,0,0,0,.578.233q.381.12.634.183t.74.19l.754.2q.775.211,1.36.423a7.967,7.967,0,0,1,1.248.592,4.478,4.478,0,0,1,1.093.853,3.8,3.8,0,0,1,.712,1.2,4.425,4.425,0,0,1,.282,1.614,4.36,4.36,0,0,1-.486,2.1A3.651,3.651,0,0,1,27.62-1.523a6.484,6.484,0,0,1-1.882.761A9.762,9.762,0,0,1,23.476-.515ZM37.756-.8a4.377,4.377,0,0,1-3.27-1.177,4.578,4.578,0,0,1-1.156-3.348v-6.851H30.482v-3.115H31.4a2.391,2.391,0,0,0,1.8-.606,3.121,3.121,0,0,0,.578-2.157v-1.917h3.665v4.68h2.989v3.115H37.446v6.414q0,1.875,1.678,1.875h1.311V-.8ZM55.405-4.73a13.557,13.557,0,0,0,.352,3.538V-.8H51.965l-.324-1.579a4.712,4.712,0,0,1-2.03,1.4,7.481,7.481,0,0,1-2.622.465,6.9,6.9,0,0,1-1.353-.127,4.6,4.6,0,0,1-1.219-.43,3.7,3.7,0,0,1-1.008-.754,3.307,3.307,0,0,1-.677-1.149,4.577,4.577,0,0,1-.254-1.572,4.359,4.359,0,0,1,.268-1.572,3.684,3.684,0,0,1,.7-1.177,4.275,4.275,0,0,1,1.142-.86,8.737,8.737,0,0,1,1.438-.62,17.181,17.181,0,0,1,1.72-.451l2.382-.536a2.627,2.627,0,0,0,1.078-.458.914.914,0,0,0,.317-.726,1.5,1.5,0,0,0-.712-1.4,3.324,3.324,0,0,0-1.727-.423q-2.5,0-2.833,2.213L42.662-11.2a4.866,4.866,0,0,1,2.1-3.306,8.348,8.348,0,0,1,4.553-1.064q6.09,0,6.09,5.23ZM48.258-3.264a3.265,3.265,0,0,0,2.509-1.05,4.426,4.426,0,0,0,.973-3.108L48.3-6.45a4.065,4.065,0,0,0-1.445.592,1.216,1.216,0,0,0-.5,1.043,1.35,1.35,0,0,0,.536,1.149A2.217,2.217,0,0,0,48.258-3.264ZM65.583-.529a7.743,7.743,0,0,1-5.6-2.086,7.206,7.206,0,0,1-2.171-5.441A7.19,7.19,0,0,1,59.98-13.5a7.767,7.767,0,0,1,5.6-2.072,7.722,7.722,0,0,1,4.694,1.4A6.231,6.231,0,0,1,72.7-10.242l-3.75.409a3.213,3.213,0,0,0-1.212-1.9,3.686,3.686,0,0,0-2.2-.634,3.324,3.324,0,0,0-2.65,1.184,4.642,4.642,0,0,0-1.015,3.13,4.648,4.648,0,0,0,1.015,3.122,3.315,3.315,0,0,0,2.65,1.191,3.654,3.654,0,0,0,2.192-.634,3.287,3.287,0,0,0,1.219-1.9l3.75.409a6.248,6.248,0,0,1-2.446,3.933A7.69,7.69,0,0,1,65.583-.529Zm21.892-4.2a13.557,13.557,0,0,0,.352,3.538V-.8H84.036l-.324-1.579a4.712,4.712,0,0,1-2.03,1.4,7.481,7.481,0,0,1-2.622.465,6.9,6.9,0,0,1-1.353-.127,4.6,4.6,0,0,1-1.219-.43,3.7,3.7,0,0,1-1.008-.754A3.307,3.307,0,0,1,74.8-2.975a4.577,4.577,0,0,1-.254-1.572,4.359,4.359,0,0,1,.268-1.572,3.684,3.684,0,0,1,.7-1.177,4.275,4.275,0,0,1,1.142-.86,8.737,8.737,0,0,1,1.438-.62,17.181,17.181,0,0,1,1.72-.451L82.2-9.763a2.627,2.627,0,0,0,1.078-.458.914.914,0,0,0,.317-.726,1.5,1.5,0,0,0-.712-1.4,3.324,3.324,0,0,0-1.727-.423q-2.5,0-2.833,2.213L74.732-11.2a4.866,4.866,0,0,1,2.1-3.306,8.348,8.348,0,0,1,4.553-1.064q6.09,0,6.09,5.23ZM80.328-3.264a3.265,3.265,0,0,0,2.509-1.05,4.426,4.426,0,0,0,.973-3.108l-3.44.973a4.065,4.065,0,0,0-1.445.592,1.216,1.216,0,0,0-.5,1.043,1.35,1.35,0,0,0,.536,1.149A2.217,2.217,0,0,0,80.328-3.264Z" transform="translate(899.877 4215.556)" fill="#fff"/>
    <path id="Trazado_40554" data-name="Trazado 40554" d="M16.284-.847l-1.48-4.2H6.247l-1.48,4.2H.439l7.5-20.37h5.174l7.5,20.37Zm-8.8-7.739h6.076l-3.031-8.641ZM29.606-.579a7.743,7.743,0,0,1-5.6-2.086,7.206,7.206,0,0,1-2.171-5.441A7.19,7.19,0,0,1,24-13.548a7.767,7.767,0,0,1,5.6-2.072,7.722,7.722,0,0,1,4.694,1.4,6.231,6.231,0,0,1,2.425,3.933l-3.75.409a3.213,3.213,0,0,0-1.212-1.9,3.686,3.686,0,0,0-2.2-.634,3.324,3.324,0,0,0-2.65,1.184A4.642,4.642,0,0,0,25.9-8.107a4.648,4.648,0,0,0,1.015,3.122,3.315,3.315,0,0,0,2.65,1.191,3.654,3.654,0,0,0,2.192-.634,3.287,3.287,0,0,0,1.219-1.9l3.75.409a6.248,6.248,0,0,1-2.446,3.933A7.69,7.69,0,0,1,29.606-.579Zm16.761.014a9.113,9.113,0,0,1-4.1-.888,6.638,6.638,0,0,1-2.812-2.608A7.772,7.772,0,0,1,38.43-8.107a7.089,7.089,0,0,1,2.2-5.5,8.158,8.158,0,0,1,5.737-2.016A8.178,8.178,0,0,1,52.119-13.6a7.089,7.089,0,0,1,2.2,5.5,7.128,7.128,0,0,1-2.2,5.519A8.161,8.161,0,0,1,46.367-.565Zm-.042-3.228a3.72,3.72,0,0,0,2.869-1.184,4.433,4.433,0,0,0,1.093-3.13,4.433,4.433,0,0,0-1.093-3.13,3.72,3.72,0,0,0-2.869-1.184,3.584,3.584,0,0,0-2.784,1.191,4.474,4.474,0,0,0-1.078,3.122,4.474,4.474,0,0,0,1.078,3.122A3.584,3.584,0,0,0,46.325-3.793ZM67.611-22.5h4.06V-.847H67.822l-.1-1.889a4.138,4.138,0,0,1-1.84,1.642,6.192,6.192,0,0,1-2.714.585,7.048,7.048,0,0,1-2.707-.522A6.719,6.719,0,0,1,58.244-2.5a6.715,6.715,0,0,1-1.5-2.389,8.814,8.814,0,0,1-.55-3.172,8.239,8.239,0,0,1,.959-4.039,6.568,6.568,0,0,1,2.53-2.629,6.968,6.968,0,0,1,3.489-.888,6.347,6.347,0,0,1,2.629.529,4.1,4.1,0,0,1,1.811,1.5ZM64.1-3.878a3.614,3.614,0,0,0,2.742-1.156,4.232,4.232,0,0,0,1.093-3.031,4.241,4.241,0,0,0-1.1-3.038A3.61,3.61,0,0,0,64.1-12.266a3.653,3.653,0,0,0-2.756,1.142,4.24,4.24,0,0,0-1.093,3.059A4.221,4.221,0,0,0,61.345-5.02,3.653,3.653,0,0,0,64.1-3.878ZM82.624-.565a9.113,9.113,0,0,1-4.1-.888A6.638,6.638,0,0,1,75.71-4.061a7.772,7.772,0,0,1-1.022-4.046,7.089,7.089,0,0,1,2.2-5.5,8.158,8.158,0,0,1,5.737-2.016A8.178,8.178,0,0,1,88.376-13.6a7.089,7.089,0,0,1,2.2,5.5,7.128,7.128,0,0,1-2.2,5.519A8.161,8.161,0,0,1,82.624-.565Zm-.042-3.228a3.72,3.72,0,0,0,2.869-1.184,4.433,4.433,0,0,0,1.093-3.13,4.433,4.433,0,0,0-1.093-3.13,3.72,3.72,0,0,0-2.869-1.184A3.584,3.584,0,0,0,79.8-11.23a4.474,4.474,0,0,0-1.078,3.122A4.474,4.474,0,0,0,79.8-4.985,3.584,3.584,0,0,0,82.582-3.793Z" transform="translate(899.001 4308.953)" fill="#fff"/>
    <path id="Trazado_40556" data-name="Trazado 40556" d="M13.678-11.6a4.764,4.764,0,0,1,3.834,5.047,5.47,5.47,0,0,1-1.621,4.18,6.7,6.7,0,0,1-4.765,1.53H2.739v-20.37h6.6a7.474,7.474,0,0,1,4.983,1.473,5.11,5.11,0,0,1,1.727,4.109,4.793,4.793,0,0,1-.6,2.418A3.946,3.946,0,0,1,13.678-11.6Zm-4.3-6.1H6.813v4.793H9.562a2.575,2.575,0,0,0,1.945-.677,2.46,2.46,0,0,0,.648-1.776,2.186,2.186,0,0,0-.7-1.7A2.982,2.982,0,0,0,9.379-17.707ZM10.337-4.47a3.248,3.248,0,0,0,2.333-.719,2.445,2.445,0,0,0,.74-1.833,2.56,2.56,0,0,0-.747-1.889,3.306,3.306,0,0,0-2.411-.747H6.813V-4.47ZM22.813-17.51a2.279,2.279,0,0,1-1.663-.684,2.244,2.244,0,0,1-.691-1.656,2.217,2.217,0,0,1,.7-1.642,2.286,2.286,0,0,1,1.656-.684,2.247,2.247,0,0,1,1.635.684,2.228,2.228,0,0,1,.691,1.642,2.244,2.244,0,0,1-.691,1.656A2.247,2.247,0,0,1,22.813-17.51ZM20.741-.847V-15.339h4.088V-.847ZM37.53-15.621a7.048,7.048,0,0,1,2.707.522,6.773,6.773,0,0,1,2.22,1.466,6.633,6.633,0,0,1,1.5,2.389,8.871,8.871,0,0,1,.55,3.179,8.871,8.871,0,0,1-.55,3.179,6.633,6.633,0,0,1-1.5,2.389,6.773,6.773,0,0,1-2.22,1.466,7.048,7.048,0,0,1-2.707.522,6.289,6.289,0,0,1-2.622-.536A4.109,4.109,0,0,1,33.09-2.567V6.2H29.03v-21.54h3.848l.113,1.945A3.969,3.969,0,0,1,34.8-15.036,6.226,6.226,0,0,1,37.53-15.621ZM36.614-3.878a3.647,3.647,0,0,0,2.742-1.135,4.215,4.215,0,0,0,1.093-3.052,4.215,4.215,0,0,0-1.093-3.052,3.647,3.647,0,0,0-2.742-1.135A3.653,3.653,0,0,0,33.851-11.1a4.216,4.216,0,0,0-1.1,3.031,4.216,4.216,0,0,0,1.1,3.031A3.653,3.653,0,0,0,36.614-3.878Zm22.837-.9A13.557,13.557,0,0,0,59.8-1.242v.395H56.011l-.324-1.579a4.712,4.712,0,0,1-2.03,1.4,7.481,7.481,0,0,1-2.622.465,6.9,6.9,0,0,1-1.353-.127,4.6,4.6,0,0,1-1.219-.43,3.7,3.7,0,0,1-1.008-.754,3.307,3.307,0,0,1-.677-1.149A4.577,4.577,0,0,1,46.524-4.6a4.359,4.359,0,0,1,.268-1.572,3.684,3.684,0,0,1,.7-1.177,4.275,4.275,0,0,1,1.142-.86,8.737,8.737,0,0,1,1.438-.62,17.181,17.181,0,0,1,1.72-.451l2.382-.536a2.628,2.628,0,0,0,1.078-.458A.914.914,0,0,0,55.574-11a1.5,1.5,0,0,0-.712-1.4,3.324,3.324,0,0,0-1.727-.423q-2.5,0-2.833,2.213l-3.595-.648a4.866,4.866,0,0,1,2.1-3.306,8.348,8.348,0,0,1,4.553-1.064q6.09,0,6.09,5.23ZM52.3-3.314a3.265,3.265,0,0,0,2.509-1.05,4.426,4.426,0,0,0,.973-3.108l-3.44.973a4.065,4.065,0,0,0-1.445.592,1.216,1.216,0,0,0-.5,1.043,1.35,1.35,0,0,0,.536,1.149A2.217,2.217,0,0,0,52.3-3.314Zm14.985-9.727a4.7,4.7,0,0,1,1.9-1.741,5.807,5.807,0,0,1,2.833-.726v3.623a5.49,5.49,0,0,0-3.468.874,3.816,3.816,0,0,0-1.071,3.1V-.847H63.4V-15.339h3.891ZM80.638-.847a4.377,4.377,0,0,1-3.27-1.177,4.578,4.578,0,0,1-1.156-3.348v-6.851H73.365v-3.115h.916a2.391,2.391,0,0,0,1.8-.606,3.121,3.121,0,0,0,.578-2.157v-1.917h3.665v4.68h2.989v3.115H80.328v6.414q0,1.875,1.678,1.875h1.311V-.847ZM88.533-17.51a2.279,2.279,0,0,1-1.663-.684,2.244,2.244,0,0,1-.691-1.656,2.217,2.217,0,0,1,.7-1.642,2.286,2.286,0,0,1,1.656-.684,2.247,2.247,0,0,1,1.635.684,2.228,2.228,0,0,1,.691,1.642,2.244,2.244,0,0,1-.691,1.656A2.247,2.247,0,0,1,88.533-17.51ZM86.46-.847V-15.339h4.088V-.847ZM101.3-.579a7.743,7.743,0,0,1-5.6-2.086,7.206,7.206,0,0,1-2.171-5.441A7.19,7.19,0,0,1,95.7-13.548a7.767,7.767,0,0,1,5.6-2.072,7.722,7.722,0,0,1,4.694,1.4,6.231,6.231,0,0,1,2.425,3.933l-3.75.409a3.213,3.213,0,0,0-1.212-1.9,3.686,3.686,0,0,0-2.2-.634,3.324,3.324,0,0,0-2.65,1.184A4.642,4.642,0,0,0,97.6-8.107a4.648,4.648,0,0,0,1.015,3.122,3.315,3.315,0,0,0,2.65,1.191,3.654,3.654,0,0,0,2.192-.634,3.287,3.287,0,0,0,1.219-1.9l3.75.409a6.248,6.248,0,0,1-2.446,3.933A7.69,7.69,0,0,1,101.3-.579Zm12.081-16.93a2.279,2.279,0,0,1-1.663-.684,2.244,2.244,0,0,1-.691-1.656,2.217,2.217,0,0,1,.7-1.642,2.286,2.286,0,0,1,1.656-.684,2.247,2.247,0,0,1,1.635.684,2.228,2.228,0,0,1,.691,1.642,2.244,2.244,0,0,1-.691,1.656A2.247,2.247,0,0,1,113.385-17.51ZM111.313-.847V-15.339H115.4V-.847ZM125.1-17.312l3.693-5.188,2,1.41-3.2,3.778ZM126.355-.565a9.113,9.113,0,0,1-4.1-.888,6.638,6.638,0,0,1-2.812-2.608,7.772,7.772,0,0,1-1.022-4.046,7.089,7.089,0,0,1,2.2-5.5,8.158,8.158,0,0,1,5.737-2.016,8.178,8.178,0,0,1,5.752,2.016,7.089,7.089,0,0,1,2.2,5.5,7.128,7.128,0,0,1-2.2,5.519A8.161,8.161,0,0,1,126.355-.565Zm-.042-3.228a3.72,3.72,0,0,0,2.869-1.184,4.433,4.433,0,0,0,1.092-3.13,4.433,4.433,0,0,0-1.092-3.13,3.72,3.72,0,0,0-2.869-1.184,3.584,3.584,0,0,0-2.784,1.191,4.474,4.474,0,0,0-1.078,3.122,4.474,4.474,0,0,0,1.078,3.122A3.584,3.584,0,0,0,126.312-3.793Zm19.566-11.827a5.649,5.649,0,0,1,4,1.3,4.835,4.835,0,0,1,1.4,3.715V-.847H147.2V-9.728a2.524,2.524,0,0,0-.726-2,2.735,2.735,0,0,0-1.868-.634,3.816,3.816,0,0,0-1.212.183,3.115,3.115,0,0,0-1.015.571,2.523,2.523,0,0,0-.726,1.093,5.053,5.053,0,0,0-.275,1.678V-.847h-4.06V-15.339h4.06v1.607A5.584,5.584,0,0,1,145.879-15.621Z" transform="translate(1230.924 3932.676)" fill="#fff"/>
    <path id="Trazado_40557" data-name="Trazado 40557" d="M11.5-.565a11.014,11.014,0,0,1-4.067-.74A9.535,9.535,0,0,1,4.186-3.385a9.341,9.341,0,0,1-2.129-3.3,11.68,11.68,0,0,1-.768-4.3,11.644,11.644,0,0,1,.789-4.349,9.465,9.465,0,0,1,2.171-3.327,9.707,9.707,0,0,1,3.306-2.093,11.37,11.37,0,0,1,4.152-.747A11.1,11.1,0,0,1,17-20.252a9.073,9.073,0,0,1,3.672,3.545l-3.707,1.974a5.435,5.435,0,0,0-2.15-2.312,6.166,6.166,0,0,0-3.108-.775,5.907,5.907,0,0,0-4.448,1.79,6.83,6.83,0,0,0-1.727,4.948,7.042,7.042,0,0,0,1.72,4.976,5.974,5.974,0,0,0,4.61,1.861,6.812,6.812,0,0,0,2.481-.437A4.949,4.949,0,0,0,16.316-6.1a5.132,5.132,0,0,0,1.128-2.418H11.876v-3.4h9.572V-.847H18.121V-3.667Q16.02-.565,11.5-.565ZM38.928-8.3l-.042.973H28.144A3.752,3.752,0,0,0,29.3-4.682a3.7,3.7,0,0,0,2.552.916,3.563,3.563,0,0,0,1.91-.5,3.076,3.076,0,0,0,1.219-1.459l3.722.55a6.327,6.327,0,0,1-2.537,3.4A7.544,7.544,0,0,1,31.879-.565,7.845,7.845,0,0,1,26.233-2.56,7.278,7.278,0,0,1,24.14-8.093a7.321,7.321,0,0,1,2.1-5.533,7.612,7.612,0,0,1,5.512-2.023,7.275,7.275,0,0,1,5.2,1.847A7.244,7.244,0,0,1,38.928-8.3Zm-7.147-4.469a3.208,3.208,0,0,0-3.524,2.791H34.91a3.052,3.052,0,0,0-1-2.072A3.172,3.172,0,0,0,31.781-12.773Zm27.4-2.848a5.537,5.537,0,0,1,3.736,1.177,4.212,4.212,0,0,1,1.367,3.376V-.847h-4.06V-9.912a2.421,2.421,0,0,0-.648-1.833,2.271,2.271,0,0,0-1.635-.62,2.619,2.619,0,0,0-1.974.789,3.585,3.585,0,0,0-.761,2.552V-.847h-4.1V-9.869a2.485,2.485,0,0,0-.648-1.868,2.312,2.312,0,0,0-1.678-.627,2.536,2.536,0,0,0-1.959.832,3.972,3.972,0,0,0-.761,2.721V-.847H42.015V-15.339h4.046v1.706a4.928,4.928,0,0,1,4.2-1.988,6.2,6.2,0,0,1,2.728.557A3.713,3.713,0,0,1,54.7-13.45,5.124,5.124,0,0,1,59.185-15.621ZM80.119-4.78a13.557,13.557,0,0,0,.352,3.538v.395H76.679l-.324-1.579a4.712,4.712,0,0,1-2.03,1.4A7.481,7.481,0,0,1,71.7-.565,6.9,6.9,0,0,1,70.35-.692a4.6,4.6,0,0,1-1.219-.43,3.7,3.7,0,0,1-1.008-.754,3.307,3.307,0,0,1-.677-1.149A4.577,4.577,0,0,1,67.192-4.6a4.359,4.359,0,0,1,.268-1.572,3.684,3.684,0,0,1,.7-1.177,4.275,4.275,0,0,1,1.142-.86,8.737,8.737,0,0,1,1.438-.62,17.181,17.181,0,0,1,1.72-.451l2.382-.536a2.627,2.627,0,0,0,1.078-.458A.914.914,0,0,0,76.242-11a1.5,1.5,0,0,0-.712-1.4,3.324,3.324,0,0,0-1.727-.423q-2.5,0-2.833,2.213l-3.595-.648a4.866,4.866,0,0,1,2.1-3.306,8.348,8.348,0,0,1,4.553-1.064q6.09,0,6.09,5.23ZM72.972-3.314a3.265,3.265,0,0,0,2.509-1.05,4.426,4.426,0,0,0,.973-3.108l-3.44.973a4.065,4.065,0,0,0-1.445.592,1.216,1.216,0,0,0-.5,1.043A1.35,1.35,0,0,0,71.6-3.716,2.217,2.217,0,0,0,72.972-3.314ZM90.3-.579a7.743,7.743,0,0,1-5.6-2.086,7.206,7.206,0,0,1-2.171-5.441,7.19,7.19,0,0,1,2.164-5.441,7.767,7.767,0,0,1,5.6-2.072,7.722,7.722,0,0,1,4.694,1.4,6.231,6.231,0,0,1,2.425,3.933l-3.75.409a3.213,3.213,0,0,0-1.212-1.9,3.686,3.686,0,0,0-2.2-.634,3.324,3.324,0,0,0-2.65,1.184,4.642,4.642,0,0,0-1.015,3.13A4.648,4.648,0,0,0,87.6-4.985a3.316,3.316,0,0,0,2.65,1.191,3.654,3.654,0,0,0,2.192-.634,3.287,3.287,0,0,0,1.219-1.9l3.75.409A6.248,6.248,0,0,1,94.97-1.989,7.69,7.69,0,0,1,90.3-.579Zm12.081-16.93a2.279,2.279,0,0,1-1.663-.684,2.244,2.244,0,0,1-.691-1.656,2.217,2.217,0,0,1,.7-1.642,2.286,2.286,0,0,1,1.656-.684,2.247,2.247,0,0,1,1.635.684,2.228,2.228,0,0,1,.691,1.642,2.244,2.244,0,0,1-.691,1.656A2.247,2.247,0,0,1,102.378-17.51ZM100.305-.847V-15.339h4.088V-.847Zm13.787-16.465,3.693-5.188,2,1.41-3.2,3.778ZM115.347-.565a9.113,9.113,0,0,1-4.1-.888,6.638,6.638,0,0,1-2.812-2.608,7.772,7.772,0,0,1-1.022-4.046,7.089,7.089,0,0,1,2.2-5.5,8.158,8.158,0,0,1,5.737-2.016A8.178,8.178,0,0,1,121.1-13.6a7.089,7.089,0,0,1,2.2,5.5,7.128,7.128,0,0,1-2.2,5.519A8.161,8.161,0,0,1,115.347-.565ZM115.3-3.793a3.72,3.72,0,0,0,2.869-1.184,4.433,4.433,0,0,0,1.093-3.13,4.433,4.433,0,0,0-1.093-3.13,3.72,3.72,0,0,0-2.869-1.184,3.584,3.584,0,0,0-2.784,1.191,4.474,4.474,0,0,0-1.078,3.122,4.474,4.474,0,0,0,1.078,3.122A3.584,3.584,0,0,0,115.3-3.793Zm19.566-11.827a5.649,5.649,0,0,1,4,1.3,4.835,4.835,0,0,1,1.4,3.715V-.847H136.2V-9.728a2.524,2.524,0,0,0-.726-2,2.735,2.735,0,0,0-1.868-.634,3.816,3.816,0,0,0-1.212.183,3.115,3.115,0,0,0-1.015.571,2.523,2.523,0,0,0-.726,1.093,5.053,5.053,0,0,0-.275,1.678V-.847h-4.06V-15.339h4.06v1.607A5.584,5.584,0,0,1,134.871-15.621Z" transform="translate(1230.979 4024.099)" fill="#fff"/>
    <path id="Trazado_40555" data-name="Trazado 40555" d="M14.552-17.5H7v4.624h6.7v3.679H7v4.61h7.556V-.847H2.739v-20.37H14.552ZM23.476-.565A8.1,8.1,0,0,1,19.247-1.58,4.29,4.29,0,0,1,17.174-4.6l3.4-.959a2.73,2.73,0,0,0,2.9,2.157,3,3,0,0,0,1.48-.331,1.153,1.153,0,0,0,.578-1.121,1.185,1.185,0,0,0-.24-.747,1.9,1.9,0,0,0-.74-.536,9.221,9.221,0,0,0-.987-.381q-.486-.155-1.29-.374T20.938-7.3a8.971,8.971,0,0,1-1.276-.543,5.442,5.442,0,0,1-1.057-.747,3.011,3.011,0,0,1-.789-1.135,4.094,4.094,0,0,1-.275-1.551,3.7,3.7,0,0,1,1.572-3.242,7.023,7.023,0,0,1,4.109-1.1,7.2,7.2,0,0,1,3.792.93,4.211,4.211,0,0,1,1.945,2.9l-3.144.7a2.462,2.462,0,0,0-2.58-1.833,2.825,2.825,0,0,0-1.424.324,1.042,1.042,0,0,0-.564.959,1.1,1.1,0,0,0,.085.437.865.865,0,0,0,.3.352,4.318,4.318,0,0,0,.409.268,3.084,3.084,0,0,0,.578.233q.381.12.634.183t.74.19l.754.2q.775.211,1.36.423a7.967,7.967,0,0,1,1.248.592,4.478,4.478,0,0,1,1.093.853,3.8,3.8,0,0,1,.712,1.2,4.425,4.425,0,0,1,.282,1.614,4.36,4.36,0,0,1-.486,2.1A3.651,3.651,0,0,1,27.62-1.573a6.484,6.484,0,0,1-1.882.761A9.762,9.762,0,0,1,23.476-.565ZM40.857-15.621a7.048,7.048,0,0,1,2.707.522,6.773,6.773,0,0,1,2.22,1.466,6.633,6.633,0,0,1,1.5,2.389,8.871,8.871,0,0,1,.55,3.179,8.871,8.871,0,0,1-.55,3.179,6.633,6.633,0,0,1-1.5,2.389,6.773,6.773,0,0,1-2.22,1.466,7.048,7.048,0,0,1-2.707.522,6.289,6.289,0,0,1-2.622-.536,4.109,4.109,0,0,1-1.818-1.522V6.2h-4.06v-21.54h3.848l.113,1.945a3.969,3.969,0,0,1,1.811-1.642A6.226,6.226,0,0,1,40.857-15.621ZM39.941-3.878a3.647,3.647,0,0,0,2.742-1.135,4.215,4.215,0,0,0,1.093-3.052,4.215,4.215,0,0,0-1.093-3.052,3.647,3.647,0,0,0-2.742-1.135A3.653,3.653,0,0,0,37.178-11.1a4.216,4.216,0,0,0-1.1,3.031,4.216,4.216,0,0,0,1.1,3.031A3.653,3.653,0,0,0,39.941-3.878ZM57.647-.565a9.113,9.113,0,0,1-4.1-.888,6.638,6.638,0,0,1-2.812-2.608A7.772,7.772,0,0,1,49.71-8.107a7.089,7.089,0,0,1,2.2-5.5,8.158,8.158,0,0,1,5.737-2.016A8.178,8.178,0,0,1,63.4-13.6a7.089,7.089,0,0,1,2.2,5.5,7.128,7.128,0,0,1-2.2,5.519A8.161,8.161,0,0,1,57.647-.565ZM57.6-3.793a3.72,3.72,0,0,0,2.869-1.184,4.433,4.433,0,0,0,1.093-3.13,4.433,4.433,0,0,0-1.093-3.13A3.72,3.72,0,0,0,57.6-12.421,3.584,3.584,0,0,0,54.82-11.23a4.474,4.474,0,0,0-1.078,3.122A4.474,4.474,0,0,0,54.82-4.985,3.584,3.584,0,0,0,57.6-3.793Zm14.9-9.248a4.7,4.7,0,0,1,1.9-1.741,5.807,5.807,0,0,1,2.833-.726v3.623a5.49,5.49,0,0,0-3.468.874A3.816,3.816,0,0,0,72.7-7.91V-.847H68.614V-15.339H72.5Zm16.719-2.3h4.06V-.847H89.435l-.1-1.748a5.534,5.534,0,0,1-4.61,2.03,5.649,5.649,0,0,1-4-1.3,4.835,4.835,0,0,1-1.4-3.715v-9.755H83.4v8.881a2.505,2.505,0,0,0,.726,1.988,2.756,2.756,0,0,0,1.882.634,3.268,3.268,0,0,0,2.3-.825,3.542,3.542,0,0,0,.909-2.685ZM97.484-.847V-22.5h4.1V-.847ZM117.671-4.78a13.557,13.557,0,0,0,.352,3.538v.395h-3.792l-.324-1.579a4.712,4.712,0,0,1-2.03,1.4,7.481,7.481,0,0,1-2.622.465A6.9,6.9,0,0,1,107.9-.692a4.6,4.6,0,0,1-1.219-.43,3.7,3.7,0,0,1-1.008-.754A3.307,3.307,0,0,1,105-3.025a4.577,4.577,0,0,1-.254-1.572,4.359,4.359,0,0,1,.268-1.572,3.684,3.684,0,0,1,.7-1.177,4.275,4.275,0,0,1,1.142-.86,8.737,8.737,0,0,1,1.438-.62,17.181,17.181,0,0,1,1.72-.451l2.382-.536a2.628,2.628,0,0,0,1.078-.458.914.914,0,0,0,.317-.726,1.5,1.5,0,0,0-.712-1.4,3.324,3.324,0,0,0-1.727-.423q-2.5,0-2.833,2.213l-3.595-.648a4.866,4.866,0,0,1,2.1-3.306,8.348,8.348,0,0,1,4.553-1.064q6.09,0,6.09,5.23Zm-7.147,1.466a3.265,3.265,0,0,0,2.509-1.05,4.426,4.426,0,0,0,.973-3.108l-3.44.973a4.065,4.065,0,0,0-1.445.592,1.216,1.216,0,0,0-.5,1.043,1.35,1.35,0,0,0,.536,1.149A2.217,2.217,0,0,0,110.524-3.314ZM127.849-.579a7.743,7.743,0,0,1-5.6-2.086,7.206,7.206,0,0,1-2.171-5.441,7.19,7.19,0,0,1,2.164-5.441,7.767,7.767,0,0,1,5.6-2.072,7.722,7.722,0,0,1,4.694,1.4,6.231,6.231,0,0,1,2.425,3.933l-3.75.409a3.212,3.212,0,0,0-1.212-1.9,3.686,3.686,0,0,0-2.2-.634,3.324,3.324,0,0,0-2.65,1.184,4.642,4.642,0,0,0-1.015,3.13,4.648,4.648,0,0,0,1.015,3.122,3.315,3.315,0,0,0,2.65,1.191A3.654,3.654,0,0,0,130-4.428a3.287,3.287,0,0,0,1.219-1.9l3.75.409a6.248,6.248,0,0,1-2.446,3.933A7.69,7.69,0,0,1,127.849-.579ZM139.93-17.51a2.279,2.279,0,0,1-1.663-.684,2.244,2.244,0,0,1-.691-1.656,2.217,2.217,0,0,1,.7-1.642,2.286,2.286,0,0,1,1.656-.684,2.247,2.247,0,0,1,1.635.684,2.228,2.228,0,0,1,.691,1.642,2.244,2.244,0,0,1-.691,1.656A2.247,2.247,0,0,1,139.93-17.51ZM137.858-.847V-15.339h4.088V-.847Zm13.787-16.465,3.693-5.188,2,1.41-3.2,3.778ZM152.9-.565a9.113,9.113,0,0,1-4.1-.888,6.638,6.638,0,0,1-2.812-2.608,7.772,7.772,0,0,1-1.022-4.046,7.089,7.089,0,0,1,2.2-5.5,8.158,8.158,0,0,1,5.737-2.016,8.178,8.178,0,0,1,5.752,2.016,7.089,7.089,0,0,1,2.2,5.5,7.128,7.128,0,0,1-2.2,5.519A8.161,8.161,0,0,1,152.9-.565Zm-.042-3.228a3.72,3.72,0,0,0,2.869-1.184,4.433,4.433,0,0,0,1.093-3.13,4.433,4.433,0,0,0-1.093-3.13,3.72,3.72,0,0,0-2.869-1.184,3.584,3.584,0,0,0-2.784,1.191,4.474,4.474,0,0,0-1.078,3.122,4.474,4.474,0,0,0,1.078,3.122A3.584,3.584,0,0,0,152.857-3.793Zm19.566-11.827a5.649,5.649,0,0,1,4,1.3,4.835,4.835,0,0,1,1.4,3.715V-.847h-4.074V-9.728a2.524,2.524,0,0,0-.726-2,2.735,2.735,0,0,0-1.868-.634,3.816,3.816,0,0,0-1.212.183,3.114,3.114,0,0,0-1.015.571,2.523,2.523,0,0,0-.726,1.093,5.053,5.053,0,0,0-.275,1.678V-.847h-4.06V-15.339h4.06v1.607A5.584,5.584,0,0,1,172.423-15.621Z" transform="translate(1217.451 4121.296)" fill="#fff"/>
    <path id="Trazado_40584" data-name="Trazado 40584" d="M0,0H3.849V183.592H0Z" transform="translate(614.398 3800.95)" fill="#082143"/>
    <path id="Trazado_40582" data-name="Trazado 40582" d="M38.975,0H267.051a38.975,38.975,0,0,1,0,77.95H38.975a38.975,38.975,0,0,1,0-77.95Z" transform="translate(465.235 3883.712)" fill="#4fe3ae"/>
    <path id="Trazado_40585" data-name="Trazado 40585" d="M27,0h-4.38L21.226-15.952,15.864,0H13.022L7.661-15.952,6.255,0H1.86L3.633-21.167H9.9L14.414-7.881l4.57-13.286h6.27ZM43.3-4.087A14.088,14.088,0,0,0,43.667-.41V0h-3.94L39.39-1.641A4.9,4.9,0,0,1,37.28-.19a7.774,7.774,0,0,1-2.725.483A7.164,7.164,0,0,1,33.149.161a4.781,4.781,0,0,1-1.267-.447,3.845,3.845,0,0,1-1.047-.784,3.437,3.437,0,0,1-.7-1.194A4.756,4.756,0,0,1,29.868-3.9a4.529,4.529,0,0,1,.278-1.633,3.828,3.828,0,0,1,.732-1.223,4.443,4.443,0,0,1,1.187-.894,9.079,9.079,0,0,1,1.494-.645,17.853,17.853,0,0,1,1.787-.469l2.476-.557a2.73,2.73,0,0,0,1.121-.476.949.949,0,0,0,.33-.754,1.554,1.554,0,0,0-.74-1.45,3.454,3.454,0,0,0-1.794-.439q-2.593,0-2.944,2.3l-3.735-.674a5.056,5.056,0,0,1,2.183-3.435,8.675,8.675,0,0,1,4.731-1.106q6.328,0,6.328,5.435ZM35.874-2.563a3.393,3.393,0,0,0,2.607-1.091,4.6,4.6,0,0,0,1.011-3.23L35.918-5.874a4.224,4.224,0,0,0-1.5.615,1.263,1.263,0,0,0-.52,1.084,1.4,1.4,0,0,0,.557,1.194A2.3,2.3,0,0,0,35.874-2.563Zm18,2.842A8.046,8.046,0,0,1,48.062-1.89a7.488,7.488,0,0,1-2.256-5.654A7.471,7.471,0,0,1,48.054-13.2a8.071,8.071,0,0,1,5.823-2.153,8.024,8.024,0,0,1,4.878,1.45,6.474,6.474,0,0,1,2.52,4.087l-3.9.425a3.338,3.338,0,0,0-1.26-1.978,3.831,3.831,0,0,0-2.285-.659,3.454,3.454,0,0,0-2.754,1.23,4.824,4.824,0,0,0-1.055,3.252A4.83,4.83,0,0,0,51.079-4.3a3.445,3.445,0,0,0,2.754,1.238,3.8,3.8,0,0,0,2.278-.659A3.416,3.416,0,0,0,57.378-5.7l3.9.425a6.492,6.492,0,0,1-2.542,4.087A7.991,7.991,0,0,1,53.877.278Zm19.512-15.63a5.345,5.345,0,0,1,3.977,1.428,5.747,5.747,0,0,1,1.414,4.211V0H74.546V-9.023a2.95,2.95,0,0,0-.747-2.249,2.806,2.806,0,0,0-1.992-.7,3.848,3.848,0,0,0-1.179.176,3.373,3.373,0,0,0-1.047.564,2.55,2.55,0,0,0-.784,1.135,5.216,5.216,0,0,0-.3,1.787V0H64.277V-22.5H68.5v9.243A5.961,5.961,0,0,1,73.389-15.352ZM89.854.293A9.469,9.469,0,0,1,85.591-.63a6.9,6.9,0,0,1-2.922-2.71,8.076,8.076,0,0,1-1.062-4.2,7.366,7.366,0,0,1,2.285-5.713,8.477,8.477,0,0,1,5.962-2.095,8.5,8.5,0,0,1,5.977,2.095,7.366,7.366,0,0,1,2.285,5.713A7.407,7.407,0,0,1,95.83-1.809,8.48,8.48,0,0,1,89.854.293ZM89.81-3.062a3.865,3.865,0,0,0,2.981-1.23,4.606,4.606,0,0,0,1.135-3.252A4.606,4.606,0,0,0,92.791-10.8a3.865,3.865,0,0,0-2.981-1.23,3.724,3.724,0,0,0-2.893,1.238A4.649,4.649,0,0,0,85.8-7.544,4.649,4.649,0,0,0,86.917-4.3,3.724,3.724,0,0,0,89.81-3.062ZM106.553.293a8.416,8.416,0,0,1-4.395-1.055A4.458,4.458,0,0,1,100-3.9l3.53-1a2.837,2.837,0,0,0,3.018,2.241A3.116,3.116,0,0,0,108.091-3a1.2,1.2,0,0,0,.6-1.165,1.232,1.232,0,0,0-.249-.776,1.972,1.972,0,0,0-.769-.557,9.581,9.581,0,0,0-1.025-.4q-.505-.161-1.34-.388t-1.392-.432a9.322,9.322,0,0,1-1.326-.564,5.655,5.655,0,0,1-1.1-.776,3.129,3.129,0,0,1-.82-1.179,4.254,4.254,0,0,1-.286-1.611,3.847,3.847,0,0,1,1.633-3.369,7.3,7.3,0,0,1,4.27-1.143,7.482,7.482,0,0,1,3.94.967,4.376,4.376,0,0,1,2.021,3.018l-3.267.732a2.559,2.559,0,0,0-2.681-1.9,2.935,2.935,0,0,0-1.479.337,1.082,1.082,0,0,0-.586,1,1.141,1.141,0,0,0,.088.454.9.9,0,0,0,.308.366,4.486,4.486,0,0,0,.425.278,3.2,3.2,0,0,0,.6.242q.4.125.659.19t.769.2l.784.205q.806.22,1.414.439a8.279,8.279,0,0,1,1.3.615,4.653,4.653,0,0,1,1.135.886,3.953,3.953,0,0,1,.74,1.245,4.6,4.6,0,0,1,.293,1.677,4.53,4.53,0,0,1-.505,2.183,3.793,3.793,0,0,1-1.384,1.472A6.738,6.738,0,0,1,108.9.037,10.144,10.144,0,0,1,106.553.293Z" transform="translate(561 3933)" fill="#fff"/>
    <path id="Trazado_40583" data-name="Trazado 40583" d="M38.975,0H267.051a38.975,38.975,0,0,1,0,77.95H38.975a38.975,38.975,0,0,1,0-77.95Z" transform="translate(465 3978.712)" fill="#4fe3ae"/>
    <path id="Trazado_40586" data-name="Trazado 40586" d="M16.084-21.167h4.395V0H16.084V-8.7H7.134V0H2.739V-21.167H7.134v8.643h8.95ZM39.478-7.749l-.044,1.011H28.271a3.9,3.9,0,0,0,1.2,2.754,3.842,3.842,0,0,0,2.651.952,3.7,3.7,0,0,0,1.985-.52,3.2,3.2,0,0,0,1.267-1.516l3.867.571a6.574,6.574,0,0,1-2.637,3.53A7.84,7.84,0,0,1,32.153.293,8.152,8.152,0,0,1,26.287-1.78a7.563,7.563,0,0,1-2.175-5.75,7.608,7.608,0,0,1,2.183-5.75,7.91,7.91,0,0,1,5.728-2.1,7.559,7.559,0,0,1,5.405,1.919A7.528,7.528,0,0,1,39.478-7.749Zm-7.427-4.644a3.334,3.334,0,0,0-3.662,2.9H35.3a3.171,3.171,0,0,0-1.04-2.153A3.3,3.3,0,0,0,32.051-12.393Zm28.477-2.959a5.753,5.753,0,0,1,3.882,1.223A4.377,4.377,0,0,1,65.83-10.62V0H61.611V-9.419a2.515,2.515,0,0,0-.674-1.9,2.36,2.36,0,0,0-1.7-.645,2.722,2.722,0,0,0-2.051.82A3.726,3.726,0,0,0,56.4-8.5V0H52.134V-9.375a2.582,2.582,0,0,0-.674-1.941,2.4,2.4,0,0,0-1.743-.652,2.635,2.635,0,0,0-2.036.864,4.127,4.127,0,0,0-.791,2.827V0h-4.2V-15.059h4.2v1.772a5.12,5.12,0,0,1,4.365-2.065,6.439,6.439,0,0,1,2.834.579,3.858,3.858,0,0,1,1.78,1.677A5.325,5.325,0,0,1,60.527-15.352Zm18.252,0a7.286,7.286,0,0,1,2.8.542,6.982,6.982,0,0,1,2.307,1.531,6.978,6.978,0,0,1,1.56,2.483,9.159,9.159,0,0,1,.571,3.3,9.159,9.159,0,0,1-.571,3.3,6.978,6.978,0,0,1-1.56,2.483A6.982,6.982,0,0,1,81.577-.19a7.286,7.286,0,0,1-2.8.542A6.5,6.5,0,0,1,75.93-.256a4.211,4.211,0,0,1-1.9-1.707L73.931,0h-4V-22.5H74.15v9.272a4.2,4.2,0,0,1,1.882-1.567A6.621,6.621,0,0,1,78.779-15.352ZM77.8-3.149a3.8,3.8,0,0,0,2.864-1.187A4.386,4.386,0,0,0,81.8-7.5a4.406,4.406,0,0,0-1.135-3.179A3.8,3.8,0,0,0,77.8-11.865a3.751,3.751,0,0,0-2.842,1.208A4.407,4.407,0,0,0,73.813-7.5a4.4,4.4,0,0,0,1.135,3.149A3.756,3.756,0,0,0,77.8-3.149Zm15.439-9.521a4.888,4.888,0,0,1,1.978-1.809,6.034,6.034,0,0,1,2.944-.754v3.765a5.7,5.7,0,0,0-3.6.908,3.965,3.965,0,0,0-1.113,3.223V0H89.194V-15.059h4.043ZM112.9-4.087a14.088,14.088,0,0,0,.366,3.677V0h-3.94l-.337-1.641a4.9,4.9,0,0,1-2.109,1.45,7.774,7.774,0,0,1-2.725.483,7.164,7.164,0,0,1-1.406-.132,4.781,4.781,0,0,1-1.267-.447,3.845,3.845,0,0,1-1.047-.784,3.437,3.437,0,0,1-.7-1.194A4.756,4.756,0,0,1,99.463-3.9a4.529,4.529,0,0,1,.278-1.633,3.828,3.828,0,0,1,.732-1.223,4.443,4.443,0,0,1,1.187-.894,9.079,9.079,0,0,1,1.494-.645,17.853,17.853,0,0,1,1.787-.469l2.476-.557a2.73,2.73,0,0,0,1.121-.476.949.949,0,0,0,.33-.754,1.554,1.554,0,0,0-.74-1.45,3.454,3.454,0,0,0-1.794-.439q-2.593,0-2.944,2.3l-3.735-.674a5.056,5.056,0,0,1,2.183-3.435,8.675,8.675,0,0,1,4.731-1.106q6.328,0,6.328,5.435Zm-7.427,1.523a3.393,3.393,0,0,0,2.607-1.091,4.6,4.6,0,0,0,1.011-3.23l-3.574,1.011a4.224,4.224,0,0,0-1.5.615,1.263,1.263,0,0,0-.52,1.084,1.4,1.4,0,0,0,.557,1.194A2.3,2.3,0,0,0,105.469-2.563ZM122.3.293a8.416,8.416,0,0,1-4.395-1.055A4.458,4.458,0,0,1,115.752-3.9l3.53-1A2.837,2.837,0,0,0,122.3-2.651,3.116,3.116,0,0,0,123.838-3a1.2,1.2,0,0,0,.6-1.165,1.232,1.232,0,0,0-.249-.776,1.972,1.972,0,0,0-.769-.557,9.581,9.581,0,0,0-1.025-.4q-.505-.161-1.34-.388t-1.392-.432a9.322,9.322,0,0,1-1.326-.564,5.655,5.655,0,0,1-1.1-.776,3.129,3.129,0,0,1-.82-1.179,4.254,4.254,0,0,1-.286-1.611,3.847,3.847,0,0,1,1.633-3.369,7.3,7.3,0,0,1,4.27-1.143,7.482,7.482,0,0,1,3.94.967A4.376,4.376,0,0,1,128-11.367l-3.267.732a2.559,2.559,0,0,0-2.681-1.9,2.935,2.935,0,0,0-1.479.337,1.082,1.082,0,0,0-.586,1,1.141,1.141,0,0,0,.088.454.9.9,0,0,0,.308.366,4.486,4.486,0,0,0,.425.278,3.2,3.2,0,0,0,.6.242q.4.125.659.19t.769.2l.784.205q.806.22,1.414.439a8.279,8.279,0,0,1,1.3.615,4.653,4.653,0,0,1,1.135.886,3.953,3.953,0,0,1,.74,1.245,4.6,4.6,0,0,1,.293,1.677,4.53,4.53,0,0,1-.505,2.183,3.793,3.793,0,0,1-1.384,1.472,6.738,6.738,0,0,1-1.956.791A10.144,10.144,0,0,1,122.3.293Z" transform="translate(554 4027)" fill="#fff"/>
  </g>
</svg>
