<svg xmlns="http://www.w3.org/2000/svg" width="119" height="119" viewBox="0 0 119 119">
  <g id="Grupo_10533" data-name="Grupo 10533" transform="translate(-453 -2942)">
    <circle id="Elipse_964" data-name="Elipse 964" cx="59.5" cy="59.5" r="59.5" transform="translate(453 2942)" fill="#ededed"/>
    <g id="Grupo_10522" data-name="Grupo 10522" transform="translate(-753.878 2815.097)">
      <path id="Trazado_27758" data-name="Trazado 27758" d="M1251.826,142.23a25.593,25.593,0,0,1,16.781,6.215,20.211,20.211,0,0,1,9.074-1.989,21.607,21.607,0,0,1,21.628,20.012,18.929,18.929,0,0,1-1.616,37.787h-65.256a18.906,18.906,0,0,1-6.464-36.668,25.893,25.893,0,0,1,25.854-25.357Z" transform="translate(-2.436 -2.063)" fill="#aee2ff" fill-rule="evenodd"/>
      <path id="Trazado_27759" data-name="Trazado 27759" d="M1310.1,191.081a18.936,18.936,0,0,1-11.187,34.182h-65.256a18.846,18.846,0,0,1-17.277-11.063,19.365,19.365,0,0,0,11.186,3.6h65.257a18.821,18.821,0,0,0,17.277-26.724Z" transform="translate(-3.655 -23.072)" fill="#95daff" fill-rule="evenodd"/>
      <path id="Trazado_27760" data-name="Trazado 27760" d="M1298.237,204.926a2.113,2.113,0,0,1-.24-4.211,17.194,17.194,0,0,0-.565-34.2,2.111,2.111,0,0,1-1.918-1.944,20.173,20.173,0,0,0-20.019-18.557,20.861,20.861,0,0,0-8.355,1.814,2.113,2.113,0,0,1-2.2-.319,24.344,24.344,0,0,0-40.163,17.951,2.111,2.111,0,0,1-1.374,1.925,17.459,17.459,0,0,0-11.3,16.291,17.218,17.218,0,0,0,13.069,16.72,2.112,2.112,0,1,1-1.028,4.1,21.433,21.433,0,0,1-16.263-20.818,21.712,21.712,0,0,1,12.743-19.715,28.552,28.552,0,0,1,46.025-20.5,24.725,24.725,0,0,1,8.847-1.677,24.434,24.434,0,0,1,24.04,20.739,21.42,21.42,0,0,1-1.049,42.389A1.905,1.905,0,0,1,1298.237,204.926Z" fill="#2f2f2f"/>
      <path id="Trazado_27761" data-name="Trazado 27761" d="M1273.446,242.767a2.11,2.11,0,0,1-2.111-2.113V220.891a2.111,2.111,0,1,1,4.222,0v19.762A2.11,2.11,0,0,1,1273.446,242.767Z" transform="translate(-27.29 -34.983)" fill="#2f2f2f"/>
      <path id="Trazado_27762" data-name="Trazado 27762" d="M1258.4,241.545a2.113,2.113,0,0,1-1.049-3.946l17.15-9.819a2.112,2.112,0,1,1,2.1,3.665l-17.15,9.819A2.08,2.08,0,0,1,1258.4,241.545Z" transform="translate(-20.819 -38.733)" fill="#2f2f2f"/>
      <path id="Trazado_27763" data-name="Trazado 27763" d="M1275.552,241.545a2.083,2.083,0,0,1-1.049-.281l-17.15-9.819a2.112,2.112,0,1,1,2.1-3.665l17.15,9.819a2.113,2.113,0,0,1-1.049,3.946Z" transform="translate(-20.819 -38.733)" fill="#2f2f2f"/>
      <path id="Trazado_27764" data-name="Trazado 27764" d="M1329.495,242.767a2.11,2.11,0,0,1-2.111-2.113V220.891a2.111,2.111,0,1,1,4.222,0v19.762A2.11,2.11,0,0,1,1329.495,242.767Z" transform="translate(-51.394 -34.983)" fill="#2f2f2f"/>
      <path id="Trazado_27765" data-name="Trazado 27765" d="M1314.452,241.545a2.113,2.113,0,0,1-1.049-3.946l17.15-9.819a2.112,2.112,0,0,1,2.1,3.665l-17.15,9.819A2.079,2.079,0,0,1,1314.452,241.545Z" transform="translate(-44.923 -38.733)" fill="#2f2f2f"/>
      <path id="Trazado_27766" data-name="Trazado 27766" d="M1331.6,241.545a2.079,2.079,0,0,1-1.049-.281l-17.15-9.819a2.112,2.112,0,0,1,2.1-3.665l17.15,9.819a2.113,2.113,0,0,1-1.049,3.946Z" transform="translate(-44.923 -38.733)" fill="#2f2f2f"/>
      <path id="Trazado_27767" data-name="Trazado 27767" d="M1301.366,290.4a2.11,2.11,0,0,1-2.112-2.113V268.653a2.111,2.111,0,1,1,4.223,0v19.638A2.11,2.11,0,0,1,1301.366,290.4Z" transform="translate(-39.296 -55.523)" fill="#2f2f2f"/>
      <path id="Trazado_27768" data-name="Trazado 27768" d="M1286.532,289.215a2.113,2.113,0,0,1-1.066-3.937l17.031-9.943a2.113,2.113,0,0,1,2.132,3.648l-17.03,9.943A2.089,2.089,0,0,1,1286.532,289.215Z" transform="translate(-32.916 -59.181)" fill="#2f2f2f"/>
      <path id="Trazado_27769" data-name="Trazado 27769" d="M1303.563,289.215a2.089,2.089,0,0,1-1.066-.289l-17.031-9.943a2.113,2.113,0,0,1,2.133-3.648l17.03,9.943a2.113,2.113,0,0,1-1.066,3.937Z" transform="translate(-32.916 -59.181)" fill="#2f2f2f"/>
    </g>
  </g>
</svg>
