<svg xmlns="http://www.w3.org/2000/svg" width="119" height="119" viewBox="0 0 119 119">
  <g id="Grupo_10528" data-name="Grupo 10528" transform="translate(-454 -1159)">
    <circle id="Elipse_967" data-name="Elipse 967" cx="59.5" cy="59.5" r="59.5" transform="translate(454 1159)" fill="#ededed"/>
    <g id="Grupo_10511" data-name="Grupo 10511" transform="translate(77.031 1025.202)">
      <path id="Trazado_27690" data-name="Trazado 27690" d="M468.276,173.416a25.295,25.295,0,1,1-25.232,25.357,25.278,25.278,0,0,1,25.232-25.357Z" transform="translate(-28.416 -16.131)" fill="#ffda00" fill-rule="evenodd"/>
      <path id="Trazado_27691" data-name="Trazado 27691" d="M487.7,181.7a25.217,25.217,0,1,1-33.312,37.414,25.247,25.247,0,0,0,39.776-20.633A24.574,24.574,0,0,0,487.7,181.7Z" transform="translate(-33.292 -19.695)" fill="#ffc735" fill-rule="evenodd"/>
      <path id="Trazado_27692" data-name="Trazado 27692" d="M412.894,214.2a21.619,21.619,0,0,1,14.294,5.345,17.95,17.95,0,0,1,7.707-1.74,18.24,18.24,0,0,1,18.271,17.028A16.065,16.065,0,0,1,451.8,266.9H396.487a16.088,16.088,0,0,1-5.469-31.2,21.913,21.913,0,0,1,21.876-21.5Z" transform="translate(-1.498 -33.669)" fill="#aee2ff" fill-rule="evenodd"/>
      <path id="Trazado_27693" data-name="Trazado 27693" d="M462.278,255.853a15.887,15.887,0,0,1,6.588,12.927,16.074,16.074,0,0,1-16.035,16.034H397.519a16.217,16.217,0,0,1-14.667-9.447,16.024,16.024,0,0,0,9.571,3.107h55.312A16.074,16.074,0,0,0,463.77,262.44a14.642,14.642,0,0,0-1.492-6.587Z" transform="translate(-2.53 -51.583)" fill="#95daff" fill-rule="evenodd"/>
      <path id="Trazado_27694" data-name="Trazado 27694" d="M450.177,267.388H395.113a18.129,18.129,0,0,1-7.511-34.636,23.978,23.978,0,0,1,38.42-17.146,20.65,20.65,0,0,1,27.547,15.863,18.117,18.117,0,0,1-3.392,35.919Zm-38.655-52.452a19.86,19.86,0,0,0-19.766,19.311,2.115,2.115,0,0,1-1.4,1.944,13.9,13.9,0,0,0,4.753,26.971h55.064a13.892,13.892,0,0,0,1.3-27.725,2.114,2.114,0,0,1-1.914-1.938A16.306,16.306,0,0,0,433.4,218.539a15.79,15.79,0,0,0-6.8,1.413,2.128,2.128,0,0,1-2.261-.291A20.02,20.02,0,0,0,411.522,214.935Z" transform="translate(0 -32.169)" fill="#2f2f2f"/>
      <path id="Trazado_27695" data-name="Trazado 27695" d="M490.654,211.1a2.078,2.078,0,0,1-1.019-.263,2.109,2.109,0,0,1-.831-2.869,22.643,22.643,0,0,0,2.843-11.037,22.938,22.938,0,0,0-43.708-9.791,2.111,2.111,0,1,1-3.82-1.8A27.168,27.168,0,1,1,492.5,210.007,2.107,2.107,0,0,1,490.654,211.1Z" transform="translate(-28.79 -14.537)" fill="#2f2f2f"/>
      <path id="Trazado_27696" data-name="Trazado 27696" d="M485.724,150.821a2.11,2.11,0,0,1-2.111-2.113V138.02a2.111,2.111,0,1,1,4.222,0v10.689A2.11,2.11,0,0,1,485.724,150.821Z" transform="translate(-45.862)" fill="#2f2f2f"/>
      <path id="Trazado_27697" data-name="Trazado 27697" d="M555.729,217.99H545.041a2.113,2.113,0,0,1,0-4.227h10.688a2.113,2.113,0,0,1,0,4.227Z" transform="translate(-71.372 -33.482)" fill="#2f2f2f"/>
      <path id="Trazado_27698" data-name="Trazado 27698" d="M438.127,170.393a2.1,2.1,0,0,1-1.494-.618l-7.584-7.582a2.114,2.114,0,0,1,2.989-2.989l7.584,7.581a2.113,2.113,0,0,1-1.495,3.608Z" transform="translate(-22.131 -9.752)" fill="#2f2f2f"/>
      <path id="Trazado_27699" data-name="Trazado 27699" d="M527.593,170.393a2.113,2.113,0,0,1-1.494-3.608l7.584-7.581a2.114,2.114,0,0,1,2.989,2.989l-7.584,7.582A2.105,2.105,0,0,1,527.593,170.393Z" transform="translate(-63.867 -9.752)" fill="#2f2f2f"/>
      <path id="Trazado_27700" data-name="Trazado 27700" d="M461.193,158.09a2.109,2.109,0,0,1-1.961-1.327l-2.736-6.837a2.113,2.113,0,0,1,3.922-1.572l2.736,6.837a2.116,2.116,0,0,1-1.961,2.9Z" transform="translate(-34.136 -4.782)" fill="#2f2f2f"/>
      <path id="Trazado_27701" data-name="Trazado 27701" d="M540.457,193.588a2.113,2.113,0,0,1-.8-4.068l6.963-2.858a2.113,2.113,0,0,1,1.6,3.91l-6.963,2.858A2.1,2.1,0,0,1,540.457,193.588Z" transform="translate(-69.399 -21.76)" fill="#2f2f2f"/>
      <path id="Trazado_27702" data-name="Trazado 27702" d="M426.042,192.931a2.053,2.053,0,0,1-.813-.165l-6.835-2.858a2.111,2.111,0,1,1,1.627-3.9l6.835,2.858a2.112,2.112,0,0,1-.814,4.061Z" transform="translate(-17.256 -21.476)" fill="#2f2f2f"/>
      <path id="Trazado_27703" data-name="Trazado 27703" d="M547.3,243.745a2.057,2.057,0,0,1-.814-.165l-6.838-2.861a2.111,2.111,0,1,1,1.627-3.9l6.838,2.861a2.112,2.112,0,0,1-.813,4.061Z" transform="translate(-69.4 -43.327)" fill="#2f2f2f"/>
      <path id="Trazado_27704" data-name="Trazado 27704" d="M508.623,158.308a2.084,2.084,0,0,1-.813-.163,2.112,2.112,0,0,1-1.135-2.764l2.856-6.837a2.111,2.111,0,1,1,3.9,1.627l-2.856,6.837A2.111,2.111,0,0,1,508.623,158.308Z" transform="translate(-55.71 -4.877)" fill="#2f2f2f"/>
    </g>
  </g>
</svg>
