<svg xmlns="http://www.w3.org/2000/svg" width="61.652" height="47.682" viewBox="0 0 61.652 47.682">
  <g id="Grupo_9109" data-name="Grupo 9109" transform="translate(-147.916 -395.027)">
    <path id="Trazado_22560" data-name="Trazado 22560" d="M213.515,492.579,182.4,499.706a7.938,7.938,0,0,1-3.565-.149l-11.7-3.741-6.024-1.928a7.217,7.217,0,0,1-2.286-12.528l4.739,2.144a3.521,3.521,0,0,0-1.323,6.866L179,495.728a7.985,7.985,0,0,0,3.565.149l28.324-6.487a1.848,1.848,0,0,1,2.215,1.387C213.332,491.771,213.515,492.579,213.515,492.579Z" transform="translate(-5.411 -57.132)" fill="#efefee"/>
    <path id="Trazado_22561" data-name="Trazado 22561" d="M159.93,417.5a3.527,3.527,0,0,0,2.286,4.428l16.756,5.358a7.987,7.987,0,0,0,3.565.149l28.327-6.487a1.853,1.853,0,0,1,2.215,1.39c.23.994.413,1.8.413,1.8l-31.114,7.127a7.987,7.987,0,0,1-3.565-.149c-4.187-1.336-14.4-4.6-14.449-4.6a3.373,3.373,0,0,0-.825-.152l-4.739-2.144.007-.007a7.089,7.089,0,0,1-1.248-1.258,7.176,7.176,0,0,1,1.285-10.073,7.2,7.2,0,0,1,5-12.738l24.583-4.769a26.475,26.475,0,0,1,7.292-.189l18.39,2.591.129-.024.72,3.626c-.193.041-19.489,3.869-28.4,6.081-7.059,1.749-11.037.291-11.872-.074l-10.174-3.423a3.523,3.523,0,0,0-2.124,6.717l16.756,5.361a7.89,7.89,0,0,0,3.565.149l28.327-6.484h0a1.848,1.848,0,0,1,2.215,1.387c.23,1,.413,1.8.413,1.8l-31.114,7.127a7.873,7.873,0,0,1-3.562-.149c-4.231-1.35-14.605-4.664-14.625-4.664A3.542,3.542,0,0,0,159.93,417.5Z" transform="translate(-5.387 0)" fill="#efefee"/>
    <path id="Trazado_22562" data-name="Trazado 22562" d="M160.149,482.372" transform="translate(-8.095 -57.802)" fill="#efefee"/>
    <path id="Trazado_22563" data-name="Trazado 22563" d="M191.3,491.524" transform="translate(-28.709 -63.858)" fill="#efefee"/>
    <path id="Trazado_22564" data-name="Trazado 22564" d="M147.916,475.207" transform="translate(0 -53.06)" fill="#efefee"/>
  </g>
</svg>
