<svg xmlns="http://www.w3.org/2000/svg" width="119" height="119" viewBox="0 0 119 119">
  <g id="Grupo_10527" data-name="Grupo 10527" transform="translate(-461 -1438)">
    <circle id="Elipse_970" data-name="Elipse 970" cx="59.5" cy="59.5" r="59.5" transform="translate(461 1438)" fill="#ededed"/>
    <g id="Grupo_10525" data-name="Grupo 10525" transform="translate(37 157.563)">
      <path id="Trazado_27814" data-name="Trazado 27814" d="M464.216,173.416a21.224,21.224,0,1,1-21.172,21.276,21.21,21.21,0,0,1,21.172-21.276Z" transform="translate(35.624 1139.966)" fill="#ffda00" fill-rule="evenodd"/>
      <path id="Trazado_27815" data-name="Trazado 27815" d="M483.132,204.44a1.743,1.743,0,0,1-.855-.221,1.769,1.769,0,0,1-.7-2.407,19,19,0,0,0,2.386-9.261,19.247,19.247,0,0,0-36.674-8.216,1.771,1.771,0,1,1-3.205-1.509,22.8,22.8,0,1,1,40.6,20.7A1.768,1.768,0,0,1,483.132,204.44Z" transform="translate(35.17 1141.9)" fill="#2f2f2f"/>
      <path id="Trazado_27816" data-name="Trazado 27816" d="M485.384,148.421a1.77,1.77,0,0,1-1.771-1.773V137.68a1.771,1.771,0,1,1,3.543,0v8.969A1.771,1.771,0,0,1,485.384,148.421Z" transform="translate(14.456 1159.537)" fill="#2f2f2f"/>
      <path id="Trazado_27817" data-name="Trazado 27817" d="M553.67,217.31H544.7a1.773,1.773,0,0,1,0-3.547h8.968a1.773,1.773,0,0,1,0,3.547Z" transform="translate(-16.493 1118.914)" fill="#2f2f2f"/>
      <path id="Trazado_27818" data-name="Trazado 27818" d="M436.567,168.492a1.766,1.766,0,0,1-1.254-.519l-6.363-6.362a1.773,1.773,0,0,1,2.508-2.508l6.363,6.361a1.773,1.773,0,0,1-1.254,3.027Z" transform="translate(43.25 1147.705)" fill="#2f2f2f"/>
      <path id="Trazado_27819" data-name="Trazado 27819" d="M527.253,168.492A1.773,1.773,0,0,1,526,165.465l6.363-6.361a1.773,1.773,0,0,1,2.508,2.508l-6.363,6.362A1.766,1.766,0,0,1,527.253,168.492Z" transform="translate(-7.388 1147.705)" fill="#2f2f2f"/>
      <path id="Trazado_27820" data-name="Trazado 27820" d="M460.413,156.31a1.77,1.77,0,0,1-1.646-1.114l-2.3-5.736a1.773,1.773,0,0,1,3.291-1.319l2.3,5.736a1.775,1.775,0,0,1-1.646,2.433Z" transform="translate(28.684 1153.735)" fill="#2f2f2f"/>
      <path id="Trazado_27821" data-name="Trazado 27821" d="M540.117,192.449a1.773,1.773,0,0,1-.672-3.414l5.842-2.4a1.773,1.773,0,0,1,1.344,3.281l-5.843,2.4A1.759,1.759,0,0,1,540.117,192.449Z" transform="translate(-14.1 1133.136)" fill="#2f2f2f"/>
      <path id="Trazado_27822" data-name="Trazado 27822" d="M424.6,191.791a1.722,1.722,0,0,1-.682-.138l-5.735-2.4a1.772,1.772,0,1,1,1.365-3.27l5.735,2.4a1.772,1.772,0,0,1-.683,3.408Z" transform="translate(49.164 1133.481)" fill="#2f2f2f"/>
      <path id="Trazado_27823" data-name="Trazado 27823" d="M545.856,242.6a1.726,1.726,0,0,1-.683-.138l-5.738-2.4a1.772,1.772,0,1,1,1.365-3.27l5.738,2.4a1.772,1.772,0,0,1-.682,3.408Z" transform="translate(-14.101 1106.97)" fill="#2f2f2f"/>
      <path id="Trazado_27824" data-name="Trazado 27824" d="M508.283,156.528a1.749,1.749,0,0,1-.682-.137,1.772,1.772,0,0,1-.952-2.319l2.4-5.736a1.772,1.772,0,1,1,3.27,1.365l-2.4,5.736A1.771,1.771,0,0,1,508.283,156.528Z" transform="translate(2.509 1153.621)" fill="#2f2f2f"/>
      <path id="Trazado_27800" data-name="Trazado 27800" d="M7783,56.038l36.127-36.127,36.127,36.127" transform="translate(-7346 1312.286)" fill="none" stroke="#2f2f2f" stroke-linecap="round" stroke-linejoin="round" stroke-width="4"/>
      <path id="Trazado_27801" data-name="Trazado 27801" d="M7783,48.017l28.106-28.106,28.105,28.106" transform="translate(-7316.632 1320.307)" fill="none" stroke="#2f2f2f" stroke-linecap="round" stroke-linejoin="round" stroke-width="4"/>
      <path id="Trazado_27813" data-name="Trazado 27813" d="M7798.6,58.186c2.078-3.3,24.507-24.925,24.507-24.925l26.1,24.925Z" transform="translate(-7350.188 1312.655)" fill="#32b586"/>
    </g>
  </g>
</svg>
