<svg xmlns="http://www.w3.org/2000/svg" width="119" height="119" viewBox="0 0 119 119">
  <g id="Grupo_10531" data-name="Grupo 10531" transform="translate(-454 -2376)">
    <circle id="Elipse_962" data-name="Elipse 962" cx="59.5" cy="59.5" r="59.5" transform="translate(454 2376)" fill="#ededed"/>
    <g id="Grupo_10519" data-name="Grupo 10519" transform="translate(-494.296 1696.92)">
      <path id="Trazado_27728" data-name="Trazado 27728" d="M1023.034,750.917a20.31,20.31,0,0,1,8.6,16.822,20.813,20.813,0,1,1-41.626,0,20.31,20.31,0,0,1,8.6-16.822V696.889a12.218,12.218,0,1,1,24.435,0Z" transform="translate(-1.62 -1.621)" fill="#f8f8f8" fill-rule="evenodd"/>
      <path id="Trazado_27729" data-name="Trazado 27729" d="M1031.261,825.058a22.612,22.612,0,0,1,.368,4.052,20.813,20.813,0,1,1-41.626,0,22.612,22.612,0,0,1,.368-4.052,20.835,20.835,0,0,0,40.889,0Z" transform="translate(-1.62 -62.992)" fill="#f1f1f1" fill-rule="evenodd"/>
      <path id="Trazado_27730" data-name="Trazado 27730" d="M1009.135,789.08A22.927,22.927,0,0,1,986.3,766.119a22.577,22.577,0,0,1,8.6-17.877V695.269a14.3,14.3,0,1,1,28.609,0v52.973a22.577,22.577,0,0,1,8.6,17.877A22.988,22.988,0,0,1,1009.135,789.08Zm0-104a10.271,10.271,0,0,0-10.073,10.193V749.3a2.075,2.075,0,0,1-.892,1.711,18.124,18.124,0,0,0-7.7,15.112,18.73,18.73,0,1,0,37.459,0,18.124,18.124,0,0,0-7.7-15.112,2.075,2.075,0,0,1-.892-1.711V695.269A10.2,10.2,0,0,0,1009.135,685.076Z" fill="#2f2f2f"/>
      <path id="Trazado_27731" data-name="Trazado 27731" d="M1025.242,766.74a2.084,2.084,0,0,1-2.085-2.088V702.4a2.085,2.085,0,1,1,4.171,0v62.254A2.085,2.085,0,0,1,1025.242,766.74Z" transform="translate(-16.107 -8.482)" fill="#2f2f2f"/>
      <path id="Trazado_27732" data-name="Trazado 27732" d="M1019.237,814.808a9.823,9.823,0,1,1-9.823,9.823,9.879,9.879,0,0,1,9.823-9.823Z" transform="translate(-10.102 -58.513)" fill="#ff392a" fill-rule="evenodd"/>
      <path id="Trazado_27733" data-name="Trazado 27733" d="M1026.914,817.861a10.227,10.227,0,0,1,4.175,8.1,9.879,9.879,0,0,1-9.946,9.823,10.211,10.211,0,0,1-7.368-3.192,10.6,10.6,0,0,0,5.771,1.719,9.92,9.92,0,0,0,7.368-16.453Z" transform="translate(-12.007 -59.847)" fill="#f41103" fill-rule="evenodd"/>
      <path id="Trazado_27734" data-name="Trazado 27734" d="M1017.619,834.949a12.034,12.034,0,1,1,12.03-12.033A11.985,11.985,0,0,1,1017.619,834.949Zm0-19.893a7.859,7.859,0,1,0,7.859,7.86A7.905,7.905,0,0,0,1017.619,815.056Z" transform="translate(-8.484 -56.797)" fill="#2f2f2f"/>
    </g>
  </g>
</svg>
