<?xml version="1.0" encoding="utf-8"?>
<!-- Generator: Adobe Illustrator 25.0.1, SVG Export Plug-In . SVG Version: 6.00 Build 0)  -->
<svg version="1.1" id="Capa_1" xmlns="http://www.w3.org/2000/svg" xmlns:xlink="http://www.w3.org/1999/xlink" x="0px" y="0px"
	 viewBox="0 0 18.4 19.6" style="enable-background:new 0 0 18.4 19.6;" xml:space="preserve">
<style type="text/css">
	.st0{fill:#72CAEE;}
</style>
<g id="Grupo_12033" transform="translate(-243.114 -10762.645)">
	<g id="Grupo_11307" transform="translate(-162.922 10369.755)">
		<g id="Grupo_11305" transform="translate(412.653 392.89)">
			<path id="Trazado_10732" class="st0" d="M0.6,19.1L0.6,19.1c-0.7-0.7-0.7-1.9,0-2.7l4.8-4.8c1-1,1-2.6,0-3.6L0.6,3.2
				c-0.7-0.7-0.7-1.9,0-2.7l0,0c0.7-0.7,1.9-0.7,2.7,0c0,0,0,0,0,0l8.1,8.1c0.6,0.6,0.6,1.7,0,2.3l-8.1,8.1
				C2.5,19.8,1.3,19.8,0.6,19.1z"/>
		</g>
		<g id="Grupo_11306" transform="translate(406.036 396.647)">
			<path id="Trazado_10733" class="st0" d="M0.6,11.6L0.6,11.6c-0.7-0.7-0.7-1.9,0-2.7l1.5-1.5c0.7-0.7,0.7-1.9,0-2.6L0.6,3.2
				c-0.7-0.7-0.7-1.9,0-2.7l0,0c0.7-0.7,1.9-0.7,2.7,0c0,0,0,0,0,0l4.4,4.4c0.6,0.6,0.6,1.7,0,2.3l-4.4,4.4
				C2.5,12.3,1.3,12.3,0.6,11.6z"/>
		</g>
	</g>
</g>
</svg>
