<svg xmlns="http://www.w3.org/2000/svg" xmlns:xlink="http://www.w3.org/1999/xlink" width="937.196" height="801.465" viewBox="0 0 937.196 801.465">
  <defs>
    <linearGradient id="linear-gradient" y1="0.5" x2="1" y2="0.5" gradientUnits="objectBoundingBox">
      <stop offset="0" stop-color="#29a8df"/>
      <stop offset="1" stop-color="#0071b9"/>
    </linearGradient>
    <linearGradient id="linear-gradient-2" y1="0.5" x2="1" y2="0.5" gradientUnits="objectBoundingBox">
      <stop offset="0" stop-color="#89c33f"/>
      <stop offset="1" stop-color="#008f45"/>
    </linearGradient>
    <linearGradient id="linear-gradient-3" x1="47.804" y1="-16.92" x2="48.804" y2="-16.92" gradientUnits="objectBoundingBox">
      <stop offset="0" stop-color="#d44f37"/>
      <stop offset="1" stop-color="#ff86a0"/>
    </linearGradient>
    <linearGradient id="linear-gradient-4" x1="48.804" y1="-16.92" x2="49.804" y2="-16.92" xlink:href="#linear-gradient-3"/>
    <linearGradient id="linear-gradient-5" y1="0.5" x2="1" y2="0.5" gradientUnits="objectBoundingBox">
      <stop offset="0" stop-color="#ff5980"/>
      <stop offset="1" stop-color="#ff87a1"/>
    </linearGradient>
    <linearGradient id="linear-gradient-6" y1="0.5" x2="1" y2="0.5" gradientUnits="objectBoundingBox">
      <stop offset="0" stop-color="#8088c2"/>
      <stop offset="1" stop-color="#b798c6"/>
    </linearGradient>
  </defs>
  <g id="Grupo_12256" data-name="Grupo 12256" transform="translate(-464.255 -3822.763)">
    <g id="Grupo_12241" data-name="Grupo 12241">
      <g id="Grupo_9907" data-name="Grupo 9907" transform="translate(355.763 3411.027)">
        <g id="Layer_5" data-name="Layer 5" transform="translate(162.391 411.736)">
          <g id="Grupo_9859" data-name="Grupo 9859">
            <rect id="Rectángulo_2479" data-name="Rectángulo 2479" width="883.298" height="313.909" rx="57.841" fill="#ffe79e"/>
            <g id="Grupo_9794" data-name="Grupo 9794" transform="translate(6.522 40.868)">
              <circle id="Elipse_699" data-name="Elipse 699" cx="52.771" cy="52.771" r="52.771" transform="translate(21.858)" fill="url(#linear-gradient)"/>
              <circle id="Elipse_700" data-name="Elipse 700" cx="52.771" cy="52.771" r="52.771" transform="translate(0 179.403) rotate(-45)" fill="url(#linear-gradient-2)"/>
            </g>
            <rect id="Rectángulo_2480" data-name="Rectángulo 2480" width="883.298" height="324.125" rx="58.775" transform="translate(0 477.34)" fill="#ffd8cc"/>
            <g id="Grupo_9796" data-name="Grupo 9796" transform="translate(811.779 19.032)">
              <g id="Grupo_9795" data-name="Grupo 9795">
                <ellipse id="Elipse_701" data-name="Elipse 701" cx="16.725" cy="18.706" rx="16.725" ry="18.706" transform="translate(16.725)" fill="url(#linear-gradient-3)"/>
                <circle id="Elipse_702" data-name="Elipse 702" cx="20.314" cy="20.314" r="20.314" transform="translate(0.649 54.124) rotate(-76.717)" fill="#333"/>
                <ellipse id="Elipse_703" data-name="Elipse 703" cx="16.725" cy="18.706" rx="16.725" ry="18.706" fill="url(#linear-gradient-4)"/>
              </g>
            </g>
            <circle id="Elipse_704" data-name="Elipse 704" cx="52.771" cy="52.771" r="52.771" transform="translate(28.38 581.523)" fill="url(#linear-gradient-5)"/>
            <g id="Grupo_9798" data-name="Grupo 9798" transform="translate(223.267 503.455)">
              <circle id="Elipse_705" data-name="Elipse 705" cx="37.61" cy="37.61" r="37.61" transform="translate(4.15 2.848)" fill="#d6dd21"/>
              <path id="Trazado_24529" data-name="Trazado 24529" d="M769.358,1735.779l33.223-27.95,12.36,20.81,32.24-48.516-33.223,27.95-12.36-20.81Z" transform="translate(-766.51 -1667.493)" fill="#fff"/>
              <g id="Grupo_9797" data-name="Grupo 9797">
                <path id="Trazado_24530" data-name="Trazado 24530" d="M804.117,1651.93a37.567,37.567,0,0,1,31.053,16.393l7.858-6.611-6.183,9.3a37.607,37.607,0,0,1-63.781,39.74l-7.859,6.611,6.184-9.3a37.6,37.6,0,0,1,32.728-56.133m38.911,9.782h0m-38.914-12.63a40.454,40.454,0,0,0-36.045,58.827l-5.238,7.883a2.848,2.848,0,0,0,4.206,3.756l5.544-4.664a40.455,40.455,0,0,0,67.578-43.712l5.2-7.827a2.848,2.848,0,0,0-2.331-4.481h-.047a2.84,2.84,0,0,0-1.8.679l-5.532,4.654a40.457,40.457,0,0,0-31.534-15.115Z" transform="translate(-762.358 -1649.082)" fill="#008f45"/>
              </g>
            </g>
            <g id="Grupo_9831" data-name="Grupo 9831" transform="translate(243.287 361.536)">
              <g id="Grupo_9814" data-name="Grupo 9814" transform="translate(210.575)">
                <g id="Grupo_9805" data-name="Grupo 9805" transform="translate(18.387)">
                  <g id="Grupo_9800" data-name="Grupo 9800">
                    <g id="Grupo_9799" data-name="Grupo 9799" transform="translate(1.161 1.161)">
                      <circle id="Elipse_706" data-name="Elipse 706" cx="10.348" cy="10.348" r="10.348" transform="translate(0.203 0.203)" fill="#ffe79e"/>
                      <path id="Trazado_24531" data-name="Trazado 24531" d="M1387.692,1324.243a10.552,10.552,0,1,1,10.552-10.552A10.564,10.564,0,0,1,1387.692,1324.243Zm0-20.7a10.145,10.145,0,1,0,10.145,10.144A10.156,10.156,0,0,0,1387.692,1303.547Z" transform="translate(-1377.141 -1303.14)" fill="#034768"/>
                    </g>
                    <path id="Trazado_24532" data-name="Trazado 24532" d="M1386,1323.711A11.713,11.713,0,1,1,1397.712,1312,11.726,11.726,0,0,1,1386,1323.711Zm0-20.7a8.984,8.984,0,1,0,8.983,8.984A8.993,8.993,0,0,0,1386,1303.015Z" transform="translate(-1374.287 -1300.286)" fill="#034768"/>
                  </g>
                  <g id="Grupo_9802" data-name="Grupo 9802" transform="translate(30.476)">
                    <g id="Grupo_9801" data-name="Grupo 9801" transform="translate(1.161 1.161)">
                      <circle id="Elipse_707" data-name="Elipse 707" cx="10.348" cy="10.348" r="10.348" transform="translate(0.204 0.203)" fill="#ffe79e"/>
                      <path id="Trazado_24533" data-name="Trazado 24533" d="M1462.593,1324.243a10.552,10.552,0,1,1,10.551-10.552A10.564,10.564,0,0,1,1462.593,1324.243Zm0-20.7a10.145,10.145,0,1,0,10.144,10.144A10.156,10.156,0,0,0,1462.593,1303.547Z" transform="translate(-1452.041 -1303.14)" fill="#034768"/>
                    </g>
                    <path id="Trazado_24534" data-name="Trazado 24534" d="M1460.9,1323.711A11.713,11.713,0,1,1,1472.613,1312,11.726,11.726,0,0,1,1460.9,1323.711Zm0-20.7a8.984,8.984,0,1,0,8.984,8.984A8.993,8.993,0,0,0,1460.9,1303.015Z" transform="translate(-1449.188 -1300.286)" fill="#034768"/>
                  </g>
                  <g id="Grupo_9804" data-name="Grupo 9804" transform="translate(60.952)">
                    <g id="Grupo_9803" data-name="Grupo 9803" transform="translate(1.161 1.161)">
                      <circle id="Elipse_708" data-name="Elipse 708" cx="10.348" cy="10.348" r="10.348" transform="translate(0.204 0.203)" fill="#ffe79e"/>
                      <path id="Trazado_24535" data-name="Trazado 24535" d="M1537.493,1324.243a10.552,10.552,0,1,1,10.552-10.552A10.564,10.564,0,0,1,1537.493,1324.243Zm0-20.7a10.145,10.145,0,1,0,10.145,10.144A10.156,10.156,0,0,0,1537.493,1303.547Z" transform="translate(-1526.941 -1303.14)" fill="#034768"/>
                    </g>
                    <path id="Trazado_24536" data-name="Trazado 24536" d="M1535.8,1323.711A11.713,11.713,0,1,1,1547.513,1312,11.726,11.726,0,0,1,1535.8,1323.711Zm0-20.7a8.984,8.984,0,1,0,8.983,8.984A8.993,8.993,0,0,0,1535.8,1303.015Z" transform="translate(-1524.088 -1300.286)" fill="#034768"/>
                  </g>
                </g>
                <g id="Grupo_9812" data-name="Grupo 9812" transform="translate(18.387 49.434)">
                  <g id="Grupo_9807" data-name="Grupo 9807">
                    <g id="Grupo_9806" data-name="Grupo 9806" transform="translate(1.161 1.161)">
                      <circle id="Elipse_709" data-name="Elipse 709" cx="10.348" cy="10.348" r="10.348" transform="translate(0.203 0.203)" fill="#ffe79e"/>
                      <path id="Trazado_24537" data-name="Trazado 24537" d="M1387.692,1445.737a10.552,10.552,0,1,1,10.552-10.552A10.564,10.564,0,0,1,1387.692,1445.737Zm0-20.7a10.145,10.145,0,1,0,10.145,10.144A10.156,10.156,0,0,0,1387.692,1425.041Z" transform="translate(-1377.141 -1424.634)" fill="#034768"/>
                    </g>
                    <path id="Trazado_24538" data-name="Trazado 24538" d="M1386,1445.205a11.713,11.713,0,1,1,11.713-11.713A11.726,11.726,0,0,1,1386,1445.205Zm0-20.7a8.984,8.984,0,1,0,8.983,8.984A8.994,8.994,0,0,0,1386,1424.509Z" transform="translate(-1374.287 -1421.78)" fill="#034768"/>
                  </g>
                  <g id="Grupo_9809" data-name="Grupo 9809" transform="translate(30.476)">
                    <g id="Grupo_9808" data-name="Grupo 9808" transform="translate(1.161 1.161)">
                      <circle id="Elipse_710" data-name="Elipse 710" cx="10.348" cy="10.348" r="10.348" transform="translate(0.204 0.203)" fill="#ffe79e"/>
                      <path id="Trazado_24539" data-name="Trazado 24539" d="M1462.593,1445.737a10.552,10.552,0,1,1,10.551-10.552A10.564,10.564,0,0,1,1462.593,1445.737Zm0-20.7a10.145,10.145,0,1,0,10.144,10.144A10.156,10.156,0,0,0,1462.593,1425.041Z" transform="translate(-1452.041 -1424.634)" fill="#034768"/>
                    </g>
                    <path id="Trazado_24540" data-name="Trazado 24540" d="M1460.9,1445.205a11.713,11.713,0,1,1,11.712-11.713A11.726,11.726,0,0,1,1460.9,1445.205Zm0-20.7a8.984,8.984,0,1,0,8.984,8.984A8.994,8.994,0,0,0,1460.9,1424.509Z" transform="translate(-1449.188 -1421.78)" fill="#034768"/>
                  </g>
                  <g id="Grupo_9811" data-name="Grupo 9811" transform="translate(60.952)">
                    <g id="Grupo_9810" data-name="Grupo 9810" transform="translate(1.161 1.161)">
                      <circle id="Elipse_711" data-name="Elipse 711" cx="10.348" cy="10.348" r="10.348" transform="translate(0.204 0.203)" fill="#ffe79e"/>
                      <path id="Trazado_24541" data-name="Trazado 24541" d="M1537.493,1445.737a10.552,10.552,0,1,1,10.552-10.552A10.564,10.564,0,0,1,1537.493,1445.737Zm0-20.7a10.145,10.145,0,1,0,10.145,10.144A10.156,10.156,0,0,0,1537.493,1425.041Z" transform="translate(-1526.941 -1424.634)" fill="#034768"/>
                    </g>
                    <path id="Trazado_24542" data-name="Trazado 24542" d="M1535.8,1445.205a11.713,11.713,0,1,1,11.713-11.713A11.726,11.726,0,0,1,1535.8,1445.205Zm0-20.7a8.984,8.984,0,1,0,8.983,8.984A8.994,8.994,0,0,0,1535.8,1424.509Z" transform="translate(-1524.088 -1421.78)" fill="#034768"/>
                  </g>
                </g>
                <g id="Grupo_9813" data-name="Grupo 9813" transform="translate(0 10.348)">
                  <rect id="Rectángulo_2481" data-name="Rectángulo 2481" width="118.423" height="49.434" rx="24.717" transform="translate(1.365 1.364)" fill="#c7f4ff"/>
                  <path id="Trazado_24543" data-name="Trazado 24543" d="M1433.873,1377.882h-88.4a16.393,16.393,0,0,1-16.375-16.375v-19.413a16.393,16.393,0,0,1,16.375-16.375h88.4a16.393,16.393,0,0,1,16.375,16.375v19.413A16.394,16.394,0,0,1,1433.873,1377.882Zm-88.4-49.434a13.661,13.661,0,0,0-13.646,13.646v19.413a13.661,13.661,0,0,0,13.646,13.646h88.4a13.661,13.661,0,0,0,13.646-13.646v-19.413a13.661,13.661,0,0,0-13.646-13.646Z" transform="translate(-1329.096 -1325.719)" fill="#034768"/>
                </g>
              </g>
              <g id="Grupo_9826" data-name="Grupo 9826" transform="translate(25.599)">
                <g id="Grupo_9819" data-name="Grupo 9819" transform="translate(21.418)">
                  <g id="Grupo_9816" data-name="Grupo 9816">
                    <g id="Grupo_9815" data-name="Grupo 9815">
                      <circle id="Elipse_712" data-name="Elipse 712" cx="10.348" cy="10.348" r="10.348" transform="translate(1.365 1.365)" fill="#c7f4ff"/>
                      <path id="Trazado_24544" data-name="Trazado 24544" d="M938.831,1323.711A11.713,11.713,0,1,1,950.543,1312,11.726,11.726,0,0,1,938.831,1323.711Zm0-20.7a8.984,8.984,0,1,0,8.984,8.984A8.994,8.994,0,0,0,938.831,1303.015Z" transform="translate(-927.118 -1300.286)" fill="#034768"/>
                    </g>
                    <path id="Trazado_24545" data-name="Trazado 24545" d="M938.831,1323.711A11.713,11.713,0,1,1,950.543,1312,11.726,11.726,0,0,1,938.831,1323.711Zm0-20.7a8.984,8.984,0,1,0,8.984,8.984A8.994,8.994,0,0,0,938.831,1303.015Z" transform="translate(-927.118 -1300.286)" fill="#034768"/>
                  </g>
                  <g id="Grupo_9818" data-name="Grupo 9818" transform="translate(30.476)">
                    <g id="Grupo_9817" data-name="Grupo 9817">
                      <circle id="Elipse_713" data-name="Elipse 713" cx="10.348" cy="10.348" r="10.348" transform="translate(1.364 1.365)" fill="#c7f4ff"/>
                      <path id="Trazado_24546" data-name="Trazado 24546" d="M1013.732,1323.711A11.713,11.713,0,1,1,1025.444,1312,11.726,11.726,0,0,1,1013.732,1323.711Zm0-20.7a8.984,8.984,0,1,0,8.984,8.984A8.993,8.993,0,0,0,1013.732,1303.015Z" transform="translate(-1002.019 -1300.286)" fill="#034768"/>
                    </g>
                    <path id="Trazado_24547" data-name="Trazado 24547" d="M1013.732,1323.711A11.713,11.713,0,1,1,1025.444,1312,11.726,11.726,0,0,1,1013.732,1323.711Zm0-20.7a8.984,8.984,0,1,0,8.984,8.984A8.993,8.993,0,0,0,1013.732,1303.015Z" transform="translate(-1002.019 -1300.286)" fill="#034768"/>
                  </g>
                </g>
                <g id="Grupo_9824" data-name="Grupo 9824" transform="translate(21.418 49.434)">
                  <g id="Grupo_9821" data-name="Grupo 9821">
                    <g id="Grupo_9820" data-name="Grupo 9820">
                      <circle id="Elipse_714" data-name="Elipse 714" cx="10.348" cy="10.348" r="10.348" transform="translate(1.365 1.365)" fill="#c7f4ff"/>
                      <path id="Trazado_24548" data-name="Trazado 24548" d="M938.831,1445.205a11.713,11.713,0,1,1,11.713-11.713A11.726,11.726,0,0,1,938.831,1445.205Zm0-20.7a8.984,8.984,0,1,0,8.984,8.984A8.994,8.994,0,0,0,938.831,1424.509Z" transform="translate(-927.118 -1421.78)" fill="#034768"/>
                    </g>
                    <path id="Trazado_24549" data-name="Trazado 24549" d="M938.831,1445.205a11.713,11.713,0,1,1,11.713-11.713A11.726,11.726,0,0,1,938.831,1445.205Zm0-20.7a8.984,8.984,0,1,0,8.984,8.984A8.994,8.994,0,0,0,938.831,1424.509Z" transform="translate(-927.118 -1421.78)" fill="#034768"/>
                  </g>
                  <g id="Grupo_9823" data-name="Grupo 9823" transform="translate(30.476)">
                    <g id="Grupo_9822" data-name="Grupo 9822">
                      <circle id="Elipse_715" data-name="Elipse 715" cx="10.348" cy="10.348" r="10.348" transform="translate(1.364 1.365)" fill="#c7f4ff"/>
                      <path id="Trazado_24550" data-name="Trazado 24550" d="M1013.732,1445.205a11.713,11.713,0,1,1,11.712-11.713A11.726,11.726,0,0,1,1013.732,1445.205Zm0-20.7a8.984,8.984,0,1,0,8.984,8.984A8.994,8.994,0,0,0,1013.732,1424.509Z" transform="translate(-1002.019 -1421.78)" fill="#034768"/>
                    </g>
                    <path id="Trazado_24551" data-name="Trazado 24551" d="M1013.732,1445.205a11.713,11.713,0,1,1,11.712-11.713A11.726,11.726,0,0,1,1013.732,1445.205Zm0-20.7a8.984,8.984,0,1,0,8.984,8.984A8.994,8.994,0,0,0,1013.732,1424.509Z" transform="translate(-1002.019 -1421.78)" fill="#034768"/>
                  </g>
                </g>
                <g id="Grupo_9825" data-name="Grupo 9825" transform="translate(0 10.348)">
                  <rect id="Rectángulo_2482" data-name="Rectángulo 2482" width="94.008" height="49.434" rx="24.717" transform="translate(1.364 1.364)" fill="#ffd878"/>
                  <path id="Trazado_24552" data-name="Trazado 24552" d="M954.841,1377.882H890.854a16.393,16.393,0,0,1-16.375-16.375v-19.413a16.393,16.393,0,0,1,16.375-16.375h63.988a16.393,16.393,0,0,1,16.375,16.375v19.413A16.393,16.393,0,0,1,954.841,1377.882Zm-63.988-49.434a13.661,13.661,0,0,0-13.646,13.646v19.413a13.661,13.661,0,0,0,13.646,13.646h63.988a13.661,13.661,0,0,0,13.646-13.646v-19.413a13.661,13.661,0,0,0-13.646-13.646Z" transform="translate(-874.479 -1325.719)" fill="#034768"/>
                </g>
              </g>
              <g id="Grupo_9828" data-name="Grupo 9828" transform="translate(0 27.798)">
                <g id="Grupo_9827" data-name="Grupo 9827" transform="translate(0 0)">
                  <rect id="Rectángulo_2483" data-name="Rectángulo 2483" width="5.493" height="18.92" transform="translate(13.379 0) rotate(45)" fill="#034768"/>
                  <rect id="Rectángulo_2484" data-name="Rectángulo 2484" width="5.493" height="18.92" transform="matrix(-0.707, 0.707, -0.707, -0.707, 17.263, 13.379)" fill="#034768"/>
                </g>
              </g>
              <g id="Grupo_9830" data-name="Grupo 9830" transform="translate(184.971 27.798)">
                <g id="Grupo_9829" data-name="Grupo 9829" transform="translate(0 0)">
                  <rect id="Rectángulo_2485" data-name="Rectángulo 2485" width="5.493" height="18.92" transform="translate(13.379 0) rotate(45)" fill="#034768"/>
                  <rect id="Rectángulo_2486" data-name="Rectángulo 2486" width="5.493" height="18.92" transform="matrix(-0.707, 0.707, -0.707, -0.707, 17.263, 13.379)" fill="#034768"/>
                </g>
              </g>
            </g>
            <path id="Trazado_24553" data-name="Trazado 24553" d="M1084.144,1635.252c-13.227,0-26.118-4.107-38.316-12.206-11.456-7.607-22.026-18.561-31.416-32.56-18.416-27.453-31.379-65.708-36.5-107.72a6.51,6.51,0,0,1,12.925-1.576c4.88,40.018,17.094,76.257,34.391,102.043,8.43,12.567,17.785,22.312,27.805,28.966s20.495,10.033,31.114,10.033c10.285,0,20.439-3.17,30.178-9.422s18.864-15.415,27.151-27.255c16.936-24.2,29.349-58.539,34.952-96.7a6.51,6.51,0,1,1,12.882,1.891c-5.891,40.127-19.092,76.448-37.167,102.274-9.264,13.236-19.622,23.58-30.784,30.746C1109.484,1631.388,1096.964,1635.252,1084.144,1635.252Z" transform="translate(-666.91 -1042.653)" fill="#034768"/>
            <path id="Trazado_24554" data-name="Trazado 24554" d="M1173.39,1018.015a6.511,6.511,0,0,1-6.456-5.738c-11.542-96.441-60.449-166.438-116.289-166.438s-104.746,70-116.288,166.438a6.51,6.51,0,0,1-12.928-1.547c5.866-49.01,21.578-93.728,44.24-125.918,11.481-16.307,24.419-29.061,38.455-37.909,14.825-9.346,30.477-14.084,46.521-14.084s31.7,4.739,46.521,14.084c14.036,8.848,26.974,21.6,38.455,37.909,22.663,32.19,38.375,76.908,44.24,125.918a6.509,6.509,0,0,1-5.69,7.238A6.593,6.593,0,0,1,1173.39,1018.015Z" transform="translate(-633.411 -661.487)" fill="#034768"/>
            <path id="Trazado_24555" data-name="Trazado 24555" d="M1195.216,1106.983a6.512,6.512,0,0,1-6.432-5.554c-4.537-30.515-14.047-57.867-26.777-77.017-15.7-23.616-31.424-28.573-41.851-28.573s-26.152,4.957-41.851,28.573c-12.731,19.15-22.24,46.5-26.777,77.017a6.51,6.51,0,1,1-12.879-1.915c4.883-32.837,14.846-61.3,28.813-82.31,7.127-10.721,15.09-19.109,23.666-24.93,9.243-6.274,19.01-9.455,29.028-9.455s19.785,3.181,29.028,9.455c8.576,5.821,16.539,14.209,23.666,24.93,13.967,21.01,23.931,49.473,28.814,82.31a6.511,6.511,0,0,1-5.482,7.4A6.62,6.62,0,0,1,1195.216,1106.983Z" transform="translate(-702.922 -750.455)" fill="#034768"/>
            <path id="Trazado_24556" data-name="Trazado 24556" d="M1032.711,1245.761a6.512,6.512,0,0,1-5.746-3.449l-8.491-15.938a6.51,6.51,0,1,1,11.491-6.122l4.648,8.724,7.462-6.479a6.51,6.51,0,0,1,8.536,9.831l-13.633,11.838A6.512,6.512,0,0,1,1032.711,1245.761Z" transform="translate(-690.545 -889.234)" fill="#034768"/>
            <path id="Trazado_24557" data-name="Trazado 24557" d="M914.907,1246.095a6.514,6.514,0,0,1-5.665-3.3l-8.9-15.711a6.51,6.51,0,1,1,11.328-6.418l4.873,8.6,7.292-6.673a6.51,6.51,0,0,1,8.79,9.605L919.3,1244.387A6.51,6.51,0,0,1,914.907,1246.095Z" transform="translate(-620.429 -889.566)" fill="#034768"/>
            <path id="Trazado_24558" data-name="Trazado 24558" d="M1461.226,1523.555a6.508,6.508,0,0,1-5.715-3.383l-4.75-8.669-7.386,6.569a6.51,6.51,0,0,1-8.653-9.73l13.494-12a6.51,6.51,0,0,1,10.035,1.736l8.678,15.836a6.513,6.513,0,0,1-5.7,9.64Z" transform="translate(-936.586 -1054.059)" fill="#034768"/>
            <g id="Grupo_9833" data-name="Grupo 9833" transform="translate(211.837 690.039)">
              <circle id="Elipse_716" data-name="Elipse 716" cx="37.61" cy="37.61" r="37.61" transform="translate(0 53.189) rotate(-45)" fill="#c7f4ff"/>
              <path id="Trazado_24559" data-name="Trazado 24559" d="M769.358,2225.634l33.223-27.95,12.36,20.81,32.24-48.516-33.223,27.95-12.36-20.81Z" transform="translate(-755.081 -2144.617)" fill="#fff"/>
              <g id="Grupo_9832" data-name="Grupo 9832" transform="translate(11.429 12.731)">
                <path id="Trazado_24560" data-name="Trazado 24560" d="M804.117,2141.785a37.567,37.567,0,0,1,31.053,16.393l7.858-6.612-6.183,9.305a37.607,37.607,0,0,1-63.781,39.739l-7.859,6.612,6.184-9.3a37.6,37.6,0,0,1,32.728-56.133m38.911,9.782h0m-38.914-12.63a40.453,40.453,0,0,0-36.045,58.826l-5.238,7.883a2.848,2.848,0,0,0,4.206,3.756l5.544-4.665a40.455,40.455,0,0,0,67.578-43.711l5.2-7.827a2.848,2.848,0,0,0-2.331-4.48h-.047a2.838,2.838,0,0,0-1.8.679l-5.532,4.653a40.457,40.457,0,0,0-31.534-15.115Z" transform="translate(-762.358 -2138.937)" fill="#0071b9"/>
              </g>
            </g>
            <g id="Grupo_9834" data-name="Grupo 9834" transform="translate(247.266 589.175)">
              <path id="Trazado_24561" data-name="Trazado 24561" d="M839.1,2081.967h0a6.51,6.51,0,0,1-5.092-2.454l-11.25-14.127a6.51,6.51,0,0,1,10.185-8.111l6.158,7.732,6.157-7.729a6.51,6.51,0,1,1,10.184,8.112l-11.25,14.122A6.51,6.51,0,0,1,839.1,2081.967Z" transform="translate(-821.341 -1975.452)" fill="#034768"/>
              <path id="Trazado_24562" data-name="Trazado 24562" d="M855.5,1966.271a6.51,6.51,0,0,1-6.51-6.51v-93.5a6.51,6.51,0,1,1,13.02,0v93.5A6.51,6.51,0,0,1,855.5,1966.271Z" transform="translate(-837.741 -1859.755)" fill="#034768"/>
            </g>
            <g id="Grupo_9837" data-name="Grupo 9837" transform="translate(199.239 535.282)">
              <g id="Grupo_9836" data-name="Grupo 9836" transform="translate(0 0)">
                <g id="Grupo_9835" data-name="Grupo 9835">
                  <rect id="Rectángulo_2487" data-name="Rectángulo 2487" width="5.493" height="18.92" transform="matrix(0.707, 0.707, -0.707, 0.707, 13.378, 0)" fill="#034768"/>
                  <rect id="Rectángulo_2488" data-name="Rectángulo 2488" width="5.493" height="18.92" transform="translate(17.263 13.379) rotate(135)" fill="#034768"/>
                </g>
              </g>
            </g>
            <g id="Grupo_9840" data-name="Grupo 9840" transform="translate(199.239 734.596)">
              <g id="Grupo_9839" data-name="Grupo 9839" transform="translate(0 0)">
                <g id="Grupo_9838" data-name="Grupo 9838">
                  <rect id="Rectángulo_2489" data-name="Rectángulo 2489" width="5.493" height="18.92" transform="translate(13.379 0) rotate(45)" fill="#034768"/>
                  <rect id="Rectángulo_2490" data-name="Rectángulo 2490" width="5.493" height="18.92" transform="matrix(-0.707, 0.707, -0.707, -0.707, 17.263, 13.379)" fill="#034768"/>
                </g>
              </g>
            </g>
            <g id="Grupo_9842" data-name="Grupo 9842" transform="translate(559.891 503.455)">
              <circle id="Elipse_717" data-name="Elipse 717" cx="37.61" cy="37.61" r="37.61" transform="translate(4.149 2.848)" fill="#d6dd21"/>
              <path id="Trazado_24563" data-name="Trazado 24563" d="M1596.683,1735.779l33.223-27.95,12.36,20.81,32.24-48.516-33.223,27.95-12.36-20.81Z" transform="translate(-1593.834 -1667.493)" fill="#fff"/>
              <g id="Grupo_9841" data-name="Grupo 9841">
                <path id="Trazado_24564" data-name="Trazado 24564" d="M1631.442,1651.93a37.566,37.566,0,0,1,31.053,16.393l7.859-6.611-6.183,9.3a37.608,37.608,0,0,1-63.781,39.74l-7.858,6.611,6.183-9.3a37.6,37.6,0,0,1,32.728-56.133m38.912,9.782h0m-38.914-12.63a40.453,40.453,0,0,0-36.045,58.827l-5.238,7.883a2.848,2.848,0,0,0,4.205,3.756l5.544-4.664a40.455,40.455,0,0,0,67.578-43.712l5.2-7.827a2.848,2.848,0,0,0-2.332-4.481h-.033a2.836,2.836,0,0,0-1.817.68l-5.53,4.653a40.458,40.458,0,0,0-31.533-15.115Z" transform="translate(-1589.683 -1649.082)" fill="#008f45"/>
              </g>
            </g>
            <g id="Grupo_9844" data-name="Grupo 9844" transform="translate(548.462 690.039)">
              <circle id="Elipse_718" data-name="Elipse 718" cx="37.61" cy="37.61" r="37.61" transform="translate(0 53.189) rotate(-45)" fill="#c7f4ff"/>
              <path id="Trazado_24565" data-name="Trazado 24565" d="M1596.683,2225.634l33.223-27.95,12.36,20.81,32.24-48.516-33.223,27.95-12.36-20.81Z" transform="translate(-1582.405 -2144.617)" fill="#fff"/>
              <g id="Grupo_9843" data-name="Grupo 9843" transform="translate(11.429 12.731)">
                <path id="Trazado_24566" data-name="Trazado 24566" d="M1631.442,2141.785a37.566,37.566,0,0,1,31.053,16.393l7.859-6.612-6.183,9.305a37.607,37.607,0,0,1-63.781,39.739l-7.858,6.612,6.183-9.3a37.6,37.6,0,0,1,32.728-56.133m38.912,9.782h0m-38.914-12.63a40.453,40.453,0,0,0-36.045,58.826l-5.238,7.883a2.848,2.848,0,0,0,4.205,3.756l5.544-4.665a40.455,40.455,0,0,0,67.578-43.711l5.2-7.827a2.848,2.848,0,0,0-2.333-4.481h-.033a2.834,2.834,0,0,0-1.817.681l-5.53,4.652a40.457,40.457,0,0,0-31.533-15.115Z" transform="translate(-1589.683 -2138.937)" fill="#0071b9"/>
              </g>
            </g>
            <g id="Grupo_9845" data-name="Grupo 9845" transform="translate(583.891 589.175)">
              <path id="Trazado_24567" data-name="Trazado 24567" d="M1666.426,2081.967h0a6.509,6.509,0,0,1-5.092-2.455l-11.25-14.126a6.51,6.51,0,1,1,10.186-8.11l6.157,7.732,6.157-7.729a6.51,6.51,0,0,1,10.184,8.113l-11.25,14.122A6.509,6.509,0,0,1,1666.426,2081.967Z" transform="translate(-1648.666 -1975.452)" fill="#034768"/>
              <path id="Trazado_24568" data-name="Trazado 24568" d="M1682.825,1966.271a6.51,6.51,0,0,1-6.51-6.51v-93.5a6.51,6.51,0,1,1,13.02,0v93.5A6.51,6.51,0,0,1,1682.825,1966.271Z" transform="translate(-1665.065 -1859.755)" fill="#034768"/>
            </g>
            <g id="Grupo_9848" data-name="Grupo 9848" transform="translate(535.863 535.282)">
              <g id="Grupo_9847" data-name="Grupo 9847" transform="translate(0 0)">
                <g id="Grupo_9846" data-name="Grupo 9846">
                  <rect id="Rectángulo_2491" data-name="Rectángulo 2491" width="5.493" height="18.92" transform="matrix(0.707, 0.707, -0.707, 0.707, 13.378, 0)" fill="#034768"/>
                  <rect id="Rectángulo_2492" data-name="Rectángulo 2492" width="5.493" height="18.92" transform="translate(17.263 13.379) rotate(135)" fill="#034768"/>
                </g>
              </g>
            </g>
            <g id="Grupo_9851" data-name="Grupo 9851" transform="translate(535.863 734.596)">
              <g id="Grupo_9850" data-name="Grupo 9850" transform="translate(0 0)">
                <g id="Grupo_9849" data-name="Grupo 9849">
                  <rect id="Rectángulo_2493" data-name="Rectángulo 2493" width="5.493" height="18.92" transform="translate(13.379 0) rotate(45)" fill="#034768"/>
                  <rect id="Rectángulo_2494" data-name="Rectángulo 2494" width="5.493" height="18.92" transform="matrix(-0.707, 0.707, -0.707, -0.707, 17.263, 13.379)" fill="#034768"/>
                </g>
              </g>
            </g>
            <g id="Grupo_9852" data-name="Grupo 9852" transform="translate(143.126 616.534)">
              <path id="Trazado_24569" data-name="Trazado 24569" d="M1789.077,1962.517a6.51,6.51,0,0,1-4.06-11.6l7.733-6.158-7.729-6.157a6.51,6.51,0,1,1,8.112-10.184l14.122,11.25a6.51,6.51,0,0,1,0,10.184l-14.126,11.25A6.485,6.485,0,0,1,1789.077,1962.517Z" transform="translate(-1287.318 -1926.996)" fill="#034768"/>
              <path id="Trazado_24570" data-name="Trazado 24570" d="M1081.277,1967.667H571.906a6.51,6.51,0,0,1,0-13.021h509.371a6.51,6.51,0,1,1,0,13.021Z" transform="translate(-565.396 -1943.396)" fill="#034768"/>
            </g>
            <g id="Grupo_9853" data-name="Grupo 9853" transform="translate(674.632 581.523)">
              <circle id="Elipse_719" data-name="Elipse 719" cx="52.771" cy="52.771" r="52.771" fill="url(#linear-gradient-6)"/>
              <circle id="Elipse_720" data-name="Elipse 720" cx="52.771" cy="52.771" r="52.771" transform="translate(56.692)" fill="url(#linear-gradient-6)"/>
            </g>
            <g id="Grupo_9856" data-name="Grupo 9856" transform="translate(759.248 696.167)">
              <g id="Grupo_9855" data-name="Grupo 9855" transform="translate(0 0)">
                <g id="Grupo_9854" data-name="Grupo 9854">
                  <rect id="Rectángulo_2495" data-name="Rectángulo 2495" width="5.493" height="18.92" transform="matrix(0.707, 0.707, -0.707, 0.707, 13.379, 0)" fill="#034768"/>
                  <rect id="Rectángulo_2496" data-name="Rectángulo 2496" width="5.493" height="18.92" transform="translate(17.263 13.379) rotate(135)" fill="#034768"/>
                </g>
              </g>
            </g>
            <g id="Grupo_9857" data-name="Grupo 9857" transform="translate(143.126 75.878)">
              <path id="Trazado_24571" data-name="Trazado 24571" d="M586.024,633.743a6.482,6.482,0,0,1-4.052-1.418l-14.122-11.25a6.51,6.51,0,0,1,0-10.185l14.126-11.25a6.51,6.51,0,1,1,8.111,10.185l-7.732,6.158,7.729,6.157a6.51,6.51,0,0,1-4.061,11.6Z" transform="translate(-565.396 -598.223)" fill="#034768"/>
              <path id="Trazado_24572" data-name="Trazado 24572" d="M1206.365,1110.389a6.51,6.51,0,0,1-6.51-6.51V661.192a22.325,22.325,0,0,0-22.3-22.3H571.906a6.51,6.51,0,1,1,0-13.02h605.65a35.36,35.36,0,0,1,35.32,35.32v442.687A6.51,6.51,0,0,1,1206.365,1110.389Z" transform="translate(-565.396 -614.622)" fill="#034768"/>
            </g>
            <g id="Grupo_9858" data-name="Grupo 9858" transform="translate(143.126 202.511)">
              <path id="Trazado_24573" data-name="Trazado 24573" d="M586.024,944.968a6.484,6.484,0,0,1-4.052-1.418L567.85,932.3a6.51,6.51,0,0,1,0-10.185l14.126-11.25a6.51,6.51,0,1,1,8.111,10.185l-7.732,6.158,7.729,6.156a6.51,6.51,0,0,1-4.061,11.6Z" transform="translate(-565.396 -909.448)" fill="#034768"/>
              <path id="Trazado_24574" data-name="Trazado 24574" d="M1149.673,1294.653a6.51,6.51,0,0,1-6.51-6.51V972.417a22.324,22.324,0,0,0-22.3-22.3H571.906a6.51,6.51,0,1,1,0-13.02h548.958a35.359,35.359,0,0,1,35.32,35.319v315.727A6.51,6.51,0,0,1,1149.673,1294.653Z" transform="translate(-565.396 -925.847)" fill="#034768"/>
            </g>
            <path id="Trazado_24575" data-name="Trazado 24575" d="M2131.221,910.951a6.51,6.51,0,0,1-6.51-6.51V871.26a32.933,32.933,0,0,1,32.9-32.9,19.9,19.9,0,0,0,19.875-19.875V726.558a6.51,6.51,0,0,1,13.02,0v91.931a32.933,32.933,0,0,1-32.9,32.9,19.9,19.9,0,0,0-19.875,19.875v33.181A6.51,6.51,0,0,1,2131.221,910.951Z" transform="translate(-1347.126 -594.601)" fill="#034768"/>
            <path id="Trazado_24576" data-name="Trazado 24576" d="M2255.771,747.195a6.5,6.5,0,0,1-5.1-2.455l-6.158-7.733-6.157,7.73a6.51,6.51,0,0,1-10.184-8.113l11.25-14.122a6.511,6.511,0,0,1,5.092-2.454h0a6.511,6.511,0,0,1,5.092,2.455l11.25,14.126a6.511,6.511,0,0,1-5.088,10.566Z" transform="translate(-1407.651 -594.601)" fill="#034768"/>
          </g>
        </g>
        <g id="Layer_6" data-name="Layer 6" transform="translate(127.237 439.987)">
          <g id="Grupo_9861" data-name="Grupo 9861" transform="translate(844.614 58.899)">
            <g id="Grupo_9860" data-name="Grupo 9860">
              <path id="Trazado_24577" data-name="Trazado 24577" d="M2205.721,645.813q-2.669-3.027-2.669-8.561a13.351,13.351,0,0,1,1.286-6.071,8.948,8.948,0,0,1,3.727-3.906,11.787,11.787,0,0,1,5.793-1.351,19.9,19.9,0,0,1,7.845,1.725q-.293,2.93-.944,6.478l-2.474.163L2216.04,631a11.131,11.131,0,0,0-3.157-.423,12.993,12.993,0,0,0-2.474.228,10.19,10.19,0,0,0-.846,2.669,17.361,17.361,0,0,0-.325,3.353,8.86,8.86,0,0,0,1.318,5.355,5.062,5.062,0,0,0,4.182,1.807,15.516,15.516,0,0,0,2.881-.342,27.438,27.438,0,0,0,3.4-.9l1.009,3.581a15.244,15.244,0,0,1-4.085,1.807,16.4,16.4,0,0,1-4.605.7Q2208.39,648.84,2205.721,645.813Z" transform="translate(-2203.052 -625.924)" fill="#034768"/>
              <path id="Trazado_24578" data-name="Trazado 24578" d="M2256.345,646.168q-2.653-2.734-2.653-8.3a13.784,13.784,0,0,1,1.335-6.266,9.571,9.571,0,0,1,3.808-4.085,11.563,11.563,0,0,1,5.892-1.432q10.872,0,10.872,11.1a13.761,13.761,0,0,1-1.335,6.282,9.308,9.308,0,0,1-3.857,4.036,12.192,12.192,0,0,1-6.005,1.4Q2259,648.9,2256.345,646.168Zm12.288-2.7a12.4,12.4,0,0,0,.553-2.523,23.273,23.273,0,0,0,.2-2.978,9.245,9.245,0,0,0-1.351-5.469,4.585,4.585,0,0,0-3.955-1.855,9.635,9.635,0,0,0-3.58.684,5.933,5.933,0,0,0-.553,2.034,23.9,23.9,0,0,0-.2,3.239,10.3,10.3,0,0,0,1.367,5.794,4.5,4.5,0,0,0,3.971,2.018A7.178,7.178,0,0,0,2268.633,643.466Z" transform="translate(-2233.087 -626.019)" fill="#034768"/>
              <path id="Trazado_24579" data-name="Trazado 24579" d="M2310.781,664.918q.456-.4,1.4-1.125t1.538-1.182q2.677-2.051,3.361-2.649a5.408,5.408,0,0,0,.142-1.2,1.772,1.772,0,0,0-.555-1.453,2.747,2.747,0,0,0-1.752-.456,25.787,25.787,0,0,0-3.532.285l-.142-1.111.342-2.877a17.574,17.574,0,0,1,4.329-.541,6.725,6.725,0,0,1,4.116,1.139,3.7,3.7,0,0,1,1.524,3.133,6.325,6.325,0,0,1-1.054,3.617,16.492,16.492,0,0,1-3.474,3.475l-1.2.883,4.756-1.082h1.168l-.313,4.472h-10.567Z" transform="translate(-2266.948 -641.754)" fill="#034768"/>
            </g>
          </g>
          <g id="Grupo_9863" data-name="Grupo 9863" transform="translate(272.782 503.304)">
            <g id="Grupo_9862" data-name="Grupo 9862">
              <path id="Trazado_24580" data-name="Trazado 24580" d="M797.655,1735.375l.889-.545,6.71-16.258,4.875-.43,5.735,15.484q.287.746.4.975a4.073,4.073,0,0,0,.431.631l.516.66-.172,2.036h-8.057l-.287-2.724,2.036-.516-.917-2.9-5.821.086-.631,1.807a1.425,1.425,0,0,0-.086.43.516.516,0,0,0,.072.3.467.467,0,0,0,.244.157l1.979.832-.287,2.523h-7.513Zm9.376-12.33-1.893,5.505,3.7.172Z" transform="translate(-797.655 -1718.142)" fill="#008f45"/>
              <path id="Trazado_24581" data-name="Trazado 24581" d="M845.054,1735.786l2.495-.688v-12.416l-2.408.2-2.122,2.552-2.093-.172q0-2.38.229-5.993H859.1q.229,3.613.229,5.993l-2.065.172-2.151-2.552-2.351-.2v11.268a2.813,2.813,0,0,0,.086.889.98.98,0,0,0,.487.4l1.778,1.061L855,1738.6H845.2Z" transform="translate(-823.319 -1718.811)" fill="#008f45"/>
              <path id="Trazado_24582" data-name="Trazado 24582" d="M890.3,1735.17l2.094-.574v-10.925a2.751,2.751,0,0,0-.115-.989,1.1,1.1,0,0,0-.6-.444l-1.491-.832.172-2.323q2.179-.344,4.129-.5t4.187-.158a15.375,15.375,0,0,1,4.975.66,5.082,5.082,0,0,1,2.753,2.065,6.989,6.989,0,0,1,.874,3.727,5.712,5.712,0,0,1-2.165,4.731,9.27,9.27,0,0,1-5.921,1.72l-1.577-.057v2.179a2.43,2.43,0,0,0,.1.889,1.079,1.079,0,0,0,.5.4l1.749,1.033-.115,2.322h-9.4Zm11.412-7.341a13.436,13.436,0,0,0,.316-2.954,3.582,3.582,0,0,0-.645-2.409,2.673,2.673,0,0,0-2.079-.717q-.487,0-1.691.114v6.108a8.552,8.552,0,0,0,1.835.172A6,6,0,0,0,901.711,1727.829Z" transform="translate(-852.536 -1718.309)" fill="#008f45"/>
            </g>
          </g>
          <g id="Grupo_9865" data-name="Grupo 9865" transform="translate(518.383 361.669)">
            <g id="Grupo_9864" data-name="Grupo 9864">
              <path id="Trazado_24583" data-name="Trazado 24583" d="M1405.134,1376.318l.371,5.721a1.691,1.691,0,0,0,.109.655,1.044,1.044,0,0,0,.393.328l1.135.764-.087,1.834h-5.677l-.109-2.379,1.179-.284.087-8.6a1.641,1.641,0,0,0-.065-.568,1.034,1.034,0,0,0-.306-.349l-.807-.611.153-1.922h4.519l6.594,8.45-.306-4.869a1.787,1.787,0,0,0-.109-.677,1.049,1.049,0,0,0-.393-.328l-1.135-.742.066-1.834h5.633l.088,2.228-1.113.48-.087,11.812-2.511.83Z" transform="translate(-1401.27 -1370.554)" fill="#034768"/>
              <path id="Trazado_24584" data-name="Trazado 24584" d="M1438.885,1383.167l.677-.415,5.109-12.379,3.712-.328,4.367,11.79q.218.568.306.742a3.1,3.1,0,0,0,.327.48l.393.5-.131,1.55h-6.135l-.218-2.074,1.55-.393-.7-2.205-4.432.066-.48,1.376a1.082,1.082,0,0,0-.065.328.39.39,0,0,0,.055.229.356.356,0,0,0,.186.12l1.507.633-.218,1.921h-5.721Zm7.14-9.389-1.441,4.192,2.816.131Z" transform="translate(-1423.58 -1370.045)" fill="#034768"/>
              <path id="Trazado_24585" data-name="Trazado 24585" d="M1477.932,1385.233l-.109-2.1,1.594-.437v-8.318a2.086,2.086,0,0,0-.087-.753.832.832,0,0,0-.458-.338l-1.136-.634.131-1.812q2.27-.174,3.821-.273t2.489-.1a13.807,13.807,0,0,1,4.836.7,4.941,4.941,0,0,1,2.663,2.205,8.191,8.191,0,0,1,.841,4,8.332,8.332,0,0,1-1.441,5.087,6.58,6.58,0,0,1-3.417,2.325,18.917,18.917,0,0,1-5.382.644Q1479.919,1385.43,1477.932,1385.233Zm10-3.362a9.279,9.279,0,0,0,.36-1.7,15.505,15.505,0,0,0,.164-2.161,5.5,5.5,0,0,0-1.015-3.646,3.859,3.859,0,0,0-3.09-1.179c-.189,0-.364.008-.524.022l-.459.044v8.952a13.376,13.376,0,0,0,1.659.109A7.852,7.852,0,0,0,1487.932,1381.871Z" transform="translate(-1446.623 -1370.3)" fill="#034768"/>
              <path id="Trazado_24586" data-name="Trazado 24586" d="M1516.521,1383.326l1.375-.371v-8.362a2.371,2.371,0,0,0-.076-.753.765.765,0,0,0-.426-.339l-.917-.524.065-2.074h6.812l.109,2.228-1.616.436v3.188l4.978-.131v-2.03a2.1,2.1,0,0,0-.087-.753.837.837,0,0,0-.459-.339l-1.07-.611.109-1.987h6.7l.087,2.293-1.332.371v8.515a1.842,1.842,0,0,0,.076.677.823.823,0,0,0,.382.306l.9.524-.088,2.03h-6.637l-.109-2.249,1.528-.415V1379.7l-4.978-.218v2.6a1.845,1.845,0,0,0,.076.677.83.83,0,0,0,.4.306l1.157.677-.087,1.878h-6.769Z" transform="translate(-1469.601 -1370.554)" fill="#034768"/>
            </g>
          </g>
          <g id="Grupo_9867" data-name="Grupo 9867" transform="translate(329.757 361.669)">
            <g id="Grupo_9866" data-name="Grupo 9866">
              <path id="Trazado_24587" data-name="Trazado 24587" d="M941.546,1376.318l.371,5.721a1.7,1.7,0,0,0,.109.655,1.048,1.048,0,0,0,.393.328l1.135.764-.087,1.834h-5.677l-.109-2.379,1.179-.284.088-8.6a1.638,1.638,0,0,0-.066-.568,1.035,1.035,0,0,0-.306-.349l-.807-.611.153-1.922h4.519l6.594,8.45-.306-4.869a1.8,1.8,0,0,0-.109-.677,1.05,1.05,0,0,0-.393-.328l-1.135-.742.065-1.834h5.633l.088,2.228-1.113.48-.087,11.812-2.511.83Z" transform="translate(-937.682 -1370.554)" fill="#034768"/>
              <path id="Trazado_24588" data-name="Trazado 24588" d="M975.3,1383.167l.677-.415,5.109-12.379,3.711-.328,4.367,11.79q.218.568.305.742a3.08,3.08,0,0,0,.327.48l.393.5-.131,1.55h-6.135l-.219-2.074,1.55-.393-.7-2.205-4.432.066-.48,1.376a1.076,1.076,0,0,0-.066.328.391.391,0,0,0,.055.229.357.357,0,0,0,.186.12l1.507.633-.219,1.921h-5.72Zm7.14-9.389L981,1377.97l2.816.131Z" transform="translate(-959.992 -1370.045)" fill="#034768"/>
              <path id="Trazado_24589" data-name="Trazado 24589" d="M1014.344,1385.233l-.109-2.1,1.594-.437v-8.318a2.088,2.088,0,0,0-.088-.753.83.83,0,0,0-.458-.338l-1.136-.634.131-1.812q2.27-.174,3.821-.273t2.489-.1a13.807,13.807,0,0,1,4.836.7,4.943,4.943,0,0,1,2.664,2.205,8.194,8.194,0,0,1,.84,4,8.329,8.329,0,0,1-1.441,5.087,6.58,6.58,0,0,1-3.417,2.325,18.919,18.919,0,0,1-5.382.644Q1016.331,1385.43,1014.344,1385.233Zm10-3.362a9.279,9.279,0,0,0,.36-1.7,15.485,15.485,0,0,0,.164-2.161,5.494,5.494,0,0,0-1.015-3.646,3.858,3.858,0,0,0-3.09-1.179c-.189,0-.364.008-.524.022l-.459.044v8.952a13.372,13.372,0,0,0,1.659.109A7.851,7.851,0,0,0,1024.344,1381.871Z" transform="translate(-983.035 -1370.3)" fill="#034768"/>
            </g>
          </g>
          <g id="Grupo_9870" data-name="Grupo 9870" transform="translate(254.934 358.217)">
            <g id="Grupo_9869" data-name="Grupo 9869" transform="translate(0)">
              <g id="Grupo_9868" data-name="Grupo 9868">
                <path id="Trazado_24590" data-name="Trazado 24590" d="M753.79,1378.689q.634-.555,1.943-1.566t2.141-1.646q3.726-2.855,4.678-3.687a7.532,7.532,0,0,0,.2-1.666,2.467,2.467,0,0,0-.773-2.022,3.82,3.82,0,0,0-2.438-.634,35.86,35.86,0,0,0-4.917.4l-.2-1.547.476-4a24.454,24.454,0,0,1,6.027-.753,9.36,9.36,0,0,1,5.729,1.586,5.149,5.149,0,0,1,2.121,4.361,8.807,8.807,0,0,1-1.467,5.035,22.962,22.962,0,0,1-4.837,4.837l-1.665,1.229,6.621-1.506h1.626l-.436,6.225h-14.71Z" transform="translate(-753.79 -1361.56)" fill="#034768"/>
              </g>
            </g>
          </g>
          <g id="Grupo_9873" data-name="Grupo 9873" transform="translate(439.905 358.217)">
            <g id="Grupo_9872" data-name="Grupo 9872">
              <g id="Grupo_9871" data-name="Grupo 9871">
                <path id="Trazado_24591" data-name="Trazado 24591" d="M1208.4,1378.689q.633-.555,1.942-1.566t2.142-1.646q3.727-2.855,4.678-3.687a7.532,7.532,0,0,0,.2-1.666,2.466,2.466,0,0,0-.774-2.022,3.817,3.817,0,0,0-2.438-.634,35.877,35.877,0,0,0-4.917.4l-.2-1.547.476-4a24.445,24.445,0,0,1,6.026-.753,9.36,9.36,0,0,1,5.73,1.586,5.147,5.147,0,0,1,2.121,4.361,8.81,8.81,0,0,1-1.467,5.035,22.973,22.973,0,0,1-4.837,4.837l-1.665,1.229,6.622-1.506h1.625l-.437,6.225h-14.71Z" transform="translate(-1208.395 -1361.56)" fill="#034768"/>
              </g>
            </g>
          </g>
          <g id="Grupo_9875" data-name="Grupo 9875" transform="translate(270.889 702.618)">
            <g id="Grupo_9874" data-name="Grupo 9874">
              <path id="Trazado_24592" data-name="Trazado 24592" d="M793,2225.229l.889-.545,6.71-16.258,4.875-.43,5.735,15.484q.286.746.4.975a4.083,4.083,0,0,0,.43.631l.516.66-.172,2.036H804.33l-.287-2.724,2.036-.517-.918-2.9-5.82.086-.631,1.807a1.416,1.416,0,0,0-.086.431.515.515,0,0,0,.072.3.468.468,0,0,0,.243.158l1.979.831-.287,2.524h-7.513Zm9.376-12.33-1.892,5.505,3.7.172Z" transform="translate(-793.004 -2207.996)" fill="#0071b9"/>
              <path id="Trazado_24593" data-name="Trazado 24593" d="M844.282,2227.944l-.144-2.753,2.093-.574v-10.924a2.736,2.736,0,0,0-.115-.989,1.093,1.093,0,0,0-.6-.444l-1.491-.832.172-2.379q2.982-.229,5.018-.359t3.268-.129a18.14,18.14,0,0,1,6.351.917,6.486,6.486,0,0,1,3.5,2.9,10.755,10.755,0,0,1,1.1,5.247,10.943,10.943,0,0,1-1.892,6.681,8.654,8.654,0,0,1-4.488,3.054,24.854,24.854,0,0,1-7.068.846Q846.892,2228.2,844.282,2227.944Zm13.133-4.416a12.208,12.208,0,0,0,.473-2.237,20.3,20.3,0,0,0,.215-2.839,7.215,7.215,0,0,0-1.333-4.789,5.063,5.063,0,0,0-4.057-1.548q-.373,0-.688.028c-.211.019-.411.039-.6.058v11.756a17.577,17.577,0,0,0,2.179.144A10.333,10.333,0,0,0,857.415,2223.528Z" transform="translate(-823.265 -2208.331)" fill="#0071b9"/>
              <path id="Trazado_24594" data-name="Trazado 24594" d="M894.949,2225.024l2.093-.574v-10.924a2.744,2.744,0,0,0-.115-.99,1.1,1.1,0,0,0-.6-.445l-1.491-.831.172-2.323q2.18-.343,4.13-.5t4.186-.158a15.38,15.38,0,0,1,4.975.66,5.08,5.08,0,0,1,2.753,2.064,6.987,6.987,0,0,1,.875,3.728,5.713,5.713,0,0,1-2.165,4.731,9.268,9.268,0,0,1-5.921,1.72l-1.577-.057v2.179a2.432,2.432,0,0,0,.1.89,1.084,1.084,0,0,0,.5.4l1.749,1.032-.115,2.323h-9.405Zm11.412-7.341a13.461,13.461,0,0,0,.315-2.953,3.578,3.578,0,0,0-.645-2.408,2.671,2.671,0,0,0-2.079-.717q-.488,0-1.692.115v6.108a8.581,8.581,0,0,0,1.835.172A5.994,5.994,0,0,0,906.361,2217.683Z" transform="translate(-853.401 -2208.163)" fill="#0071b9"/>
            </g>
          </g>
          <g id="Grupo_9878" data-name="Grupo 9878" transform="translate(210.886 504.165)">
            <g id="Grupo_9877" data-name="Grupo 9877">
              <g id="Grupo_9876" data-name="Grupo 9876">
                <path id="Trazado_24595" data-name="Trazado 24595" d="M645.532,1737.385q.634-.555,1.943-1.566t2.141-1.645q3.726-2.855,4.678-3.687a7.531,7.531,0,0,0,.2-1.665,2.469,2.469,0,0,0-.773-2.022,3.824,3.824,0,0,0-2.438-.634,35.87,35.87,0,0,0-4.917.4l-.2-1.547.476-4a24.465,24.465,0,0,1,6.027-.753,9.36,9.36,0,0,1,5.729,1.586,5.147,5.147,0,0,1,2.121,4.361,8.806,8.806,0,0,1-1.467,5.036,22.965,22.965,0,0,1-4.837,4.837l-1.665,1.229,6.621-1.506H660.8l-.436,6.224h-14.71Z" transform="translate(-645.532 -1720.257)" fill="#034768"/>
              </g>
            </g>
          </g>
          <g id="Grupo_9881" data-name="Grupo 9881" transform="translate(210.886 703.478)">
            <g id="Grupo_9880" data-name="Grupo 9880">
              <g id="Grupo_9879" data-name="Grupo 9879">
                <path id="Trazado_24596" data-name="Trazado 24596" d="M645.532,2227.24q.634-.555,1.943-1.566t2.141-1.645q3.726-2.854,4.678-3.687a7.534,7.534,0,0,0,.2-1.666,2.468,2.468,0,0,0-.773-2.022,3.82,3.82,0,0,0-2.438-.634,36.008,36.008,0,0,0-4.917.4l-.2-1.546.476-4a24.459,24.459,0,0,1,6.027-.753,9.361,9.361,0,0,1,5.729,1.586,5.147,5.147,0,0,1,2.121,4.361,8.8,8.8,0,0,1-1.467,5.035,22.94,22.94,0,0,1-4.837,4.838l-1.665,1.229,6.621-1.507H660.8l-.436,6.225h-14.71Z" transform="translate(-645.532 -2210.111)" fill="#034768"/>
              </g>
            </g>
          </g>
          <g id="Grupo_9883" data-name="Grupo 9883" transform="translate(609.407 503.304)">
            <g id="Grupo_9882" data-name="Grupo 9882">
              <path id="Trazado_24597" data-name="Trazado 24597" d="M1624.98,1735.375l.889-.545,6.709-16.258,4.875-.43,5.734,15.484q.287.746.4.975a4.048,4.048,0,0,0,.43.631l.516.66-.172,2.036h-8.057l-.287-2.724,2.036-.516-.917-2.9-5.821.086-.63,1.807a1.409,1.409,0,0,0-.086.43.516.516,0,0,0,.072.3.467.467,0,0,0,.244.157l1.979.832-.287,2.523h-7.513Zm9.376-12.33-1.892,5.505,3.7.172Z" transform="translate(-1624.98 -1718.142)" fill="#008f45"/>
              <path id="Trazado_24598" data-name="Trazado 24598" d="M1672.38,1735.786l2.495-.688v-12.416l-2.408.2-2.122,2.552-2.093-.172q0-2.38.229-5.993h17.95q.229,3.613.23,5.993l-2.064.172-2.151-2.552-2.351-.2v11.268a2.824,2.824,0,0,0,.086.889.982.982,0,0,0,.488.4l1.778,1.061-.114,2.294h-9.806Z" transform="translate(-1650.645 -1718.811)" fill="#008f45"/>
              <path id="Trazado_24599" data-name="Trazado 24599" d="M1717.624,1735.17l2.093-.574v-10.925a2.748,2.748,0,0,0-.115-.989,1.1,1.1,0,0,0-.6-.444l-1.491-.832.172-2.323q2.18-.344,4.13-.5t4.186-.158a15.374,15.374,0,0,1,4.974.66,5.083,5.083,0,0,1,2.753,2.065,6.986,6.986,0,0,1,.874,3.727,5.712,5.712,0,0,1-2.165,4.731,9.269,9.269,0,0,1-5.921,1.72l-1.577-.057v2.179a2.425,2.425,0,0,0,.1.889,1.081,1.081,0,0,0,.5.4l1.749,1.033-.115,2.322h-9.4Zm11.412-7.341a13.447,13.447,0,0,0,.316-2.954,3.58,3.58,0,0,0-.645-2.409,2.673,2.673,0,0,0-2.079-.717q-.487,0-1.692.114v6.108a8.557,8.557,0,0,0,1.835.172A6,6,0,0,0,1729.036,1727.829Z" transform="translate(-1679.86 -1718.309)" fill="#008f45"/>
            </g>
          </g>
          <g id="Grupo_9885" data-name="Grupo 9885" transform="translate(607.514 702.618)">
            <g id="Grupo_9884" data-name="Grupo 9884">
              <path id="Trazado_24600" data-name="Trazado 24600" d="M1620.329,2225.229l.889-.545,6.71-16.258,4.875-.43,5.735,15.484q.286.746.4.975a4.085,4.085,0,0,0,.431.631l.516.66-.172,2.036h-8.057l-.287-2.724,2.036-.517-.917-2.9-5.821.086-.631,1.807a1.433,1.433,0,0,0-.086.431.515.515,0,0,0,.072.3.469.469,0,0,0,.244.158l1.979.831-.287,2.524h-7.513Zm9.376-12.33-1.893,5.505,3.7.172Z" transform="translate(-1620.329 -2207.996)" fill="#0071b9"/>
              <path id="Trazado_24601" data-name="Trazado 24601" d="M1671.607,2227.944l-.144-2.753,2.093-.574v-10.924a2.747,2.747,0,0,0-.115-.989,1.1,1.1,0,0,0-.6-.444l-1.491-.832.172-2.379q2.982-.229,5.018-.359t3.269-.129a18.143,18.143,0,0,1,6.352.917,6.487,6.487,0,0,1,3.5,2.9,10.755,10.755,0,0,1,1.1,5.247,10.942,10.942,0,0,1-1.892,6.681,8.653,8.653,0,0,1-4.488,3.054,24.856,24.856,0,0,1-7.068.846Q1674.217,2228.2,1671.607,2227.944Zm13.133-4.416a12.211,12.211,0,0,0,.473-2.237,20.3,20.3,0,0,0,.215-2.839,7.216,7.216,0,0,0-1.333-4.789,5.062,5.062,0,0,0-4.057-1.548q-.373,0-.688.028c-.21.019-.411.039-.6.058v11.756a17.575,17.575,0,0,0,2.179.144A10.329,10.329,0,0,0,1684.74,2223.528Z" transform="translate(-1650.59 -2208.331)" fill="#0071b9"/>
              <path id="Trazado_24602" data-name="Trazado 24602" d="M1722.274,2225.024l2.093-.574v-10.924a2.737,2.737,0,0,0-.115-.99,1.094,1.094,0,0,0-.6-.445l-1.491-.831.172-2.323q2.179-.343,4.129-.5t4.186-.158a15.379,15.379,0,0,1,4.975.66,5.08,5.08,0,0,1,2.753,2.064,6.989,6.989,0,0,1,.875,3.728,5.713,5.713,0,0,1-2.166,4.731,9.267,9.267,0,0,1-5.92,1.72l-1.577-.057v2.179a2.435,2.435,0,0,0,.1.89,1.085,1.085,0,0,0,.5.4l1.749,1.032-.115,2.323h-9.4Zm11.412-7.341a13.461,13.461,0,0,0,.315-2.953,3.579,3.579,0,0,0-.645-2.408,2.671,2.671,0,0,0-2.079-.717q-.488,0-1.691.115v6.108a8.579,8.579,0,0,0,1.835.172A5.994,5.994,0,0,0,1733.686,2217.683Z" transform="translate(-1680.726 -2208.163)" fill="#0071b9"/>
            </g>
          </g>
          <g id="Grupo_9888" data-name="Grupo 9888" transform="translate(547.51 504.165)">
            <g id="Grupo_9887" data-name="Grupo 9887">
              <g id="Grupo_9886" data-name="Grupo 9886">
                <path id="Trazado_24603" data-name="Trazado 24603" d="M1472.856,1737.385q.633-.555,1.942-1.566t2.141-1.645q3.727-2.855,4.678-3.687a7.532,7.532,0,0,0,.2-1.665,2.468,2.468,0,0,0-.773-2.022,3.823,3.823,0,0,0-2.438-.634,35.872,35.872,0,0,0-4.917.4l-.2-1.547.476-4a24.462,24.462,0,0,1,6.026-.753,9.359,9.359,0,0,1,5.729,1.586,5.147,5.147,0,0,1,2.121,4.361,8.809,8.809,0,0,1-1.467,5.036,22.98,22.98,0,0,1-4.837,4.837l-1.665,1.229,6.622-1.506h1.625l-.437,6.224h-14.71Z" transform="translate(-1472.856 -1720.257)" fill="#034768"/>
              </g>
            </g>
          </g>
          <g id="Grupo_9891" data-name="Grupo 9891" transform="translate(547.51 703.478)">
            <g id="Grupo_9890" data-name="Grupo 9890">
              <g id="Grupo_9889" data-name="Grupo 9889">
                <path id="Trazado_24604" data-name="Trazado 24604" d="M1472.856,2227.24q.633-.555,1.942-1.566t2.141-1.645q3.727-2.854,4.678-3.687a7.535,7.535,0,0,0,.2-1.666,2.467,2.467,0,0,0-.773-2.022,3.819,3.819,0,0,0-2.438-.634,36.011,36.011,0,0,0-4.917.4l-.2-1.546.476-4a24.456,24.456,0,0,1,6.026-.753,9.36,9.36,0,0,1,5.729,1.586,5.147,5.147,0,0,1,2.121,4.361,8.806,8.806,0,0,1-1.467,5.035,22.954,22.954,0,0,1-4.837,4.838l-1.665,1.229,6.622-1.507h1.625l-.437,6.225h-14.71Z" transform="translate(-1472.856 -2210.111)" fill="#034768"/>
              </g>
            </g>
          </g>
          <g id="Grupo_9898" data-name="Grupo 9898" transform="translate(770.895 665.049)">
            <g id="Grupo_9897" data-name="Grupo 9897">
              <g id="Grupo_9896" data-name="Grupo 9896">
                <path id="Trazado_24620" data-name="Trazado 24620" d="M2021.871,2132.793q.634-.555,1.942-1.566t2.141-1.646q3.726-2.855,4.678-3.687a7.518,7.518,0,0,0,.2-1.665,2.468,2.468,0,0,0-.773-2.022,3.824,3.824,0,0,0-2.438-.634,35.9,35.9,0,0,0-4.917.4l-.2-1.547.476-4a24.452,24.452,0,0,1,6.027-.754,9.36,9.36,0,0,1,5.729,1.586,5.147,5.147,0,0,1,2.121,4.361,8.8,8.8,0,0,1-1.467,5.035,22.949,22.949,0,0,1-4.836,4.837l-1.666,1.229,6.621-1.506h1.625l-.436,6.225h-14.71Z" transform="translate(-2021.871 -2115.664)" fill="#034768"/>
              </g>
            </g>
          </g>
          <path id="Trazado_40498" data-name="Trazado 40498" d="M15.27,0H1.02V-2.43l.99-.09q.87-.09.87-.84V-17.31L1.17-17.4v-2.55H14.91v4.98l-3.06.21v-1.2a1.286,1.286,0,0,0-.15-.72q-.15-.21-.72-.21H6.54v5.13h6.93V-8.7H6.54v5.61h4.83q.54,0,.69-.225a1.368,1.368,0,0,0,.15-.735v-1.5l3.06.21Zm5.52-18.27h1.95v3.18h3.99l-.3,2.52H22.74v7.89a2.743,2.743,0,0,0,.48,1.845A1.918,1.918,0,0,0,24.7-2.31a3.833,3.833,0,0,0,2.025-.63l.9,2.31A6.491,6.491,0,0,1,23.82.42,6.592,6.592,0,0,1,21.54.075,4.15,4.15,0,0,1,20.16-.69a2.688,2.688,0,0,1-.69-1.23,6.221,6.221,0,0,1-.27-1.275q-.03-.465-.03-1.365v-8.01H17.04l.3-2.19a2.925,2.925,0,0,0,2.13-1.005A8.891,8.891,0,0,0,20.79-18.27Zm21.45,3.78V-3.33a.991.991,0,0,0,.165.66.86.86,0,0,0,.585.21l.96.06V0H39.18V-1.74l-.09-.03A4.742,4.742,0,0,1,34.98.39a5.307,5.307,0,0,1-4.53-1.95A8.683,8.683,0,0,1,28.98-6.9a9.388,9.388,0,0,1,1.98-6.36q1.98-2.28,5.94-2.28A15.149,15.149,0,0,1,42.24-14.49ZM38.76-4.77v-7.77a5.591,5.591,0,0,0-2.31-.39,3.079,3.079,0,0,0-2.91,1.62,8.821,8.821,0,0,0-.9,4.29q0,4.86,3.12,4.86a3.015,3.015,0,0,0,2.16-.8A2.438,2.438,0,0,0,38.76-4.77Zm6.84-7.92v-2.4h5.07v1.95a5.464,5.464,0,0,1,2.07-1.755,6.151,6.151,0,0,1,2.79-.645,4.641,4.641,0,0,1,3.525,1.305A5.477,5.477,0,0,1,60.3-10.32v7.83l1.71.09V0H54.87V-2.28l.99-.09a1.188,1.188,0,0,0,.66-.255.993.993,0,0,0,.21-.735V-9.54a4.617,4.617,0,0,0-.51-2.445,2.126,2.126,0,0,0-1.935-.795,2.949,2.949,0,0,0-2.265.9,3.017,3.017,0,0,0-.84,2.13v7.26l1.71.09V0H45.75V-2.28l.99-.09a1.188,1.188,0,0,0,.66-.255.993.993,0,0,0,.21-.735v-8.31q0-.9-.75-.93ZM70.38-2.19q3.27,0,3.27-5.28a8.838,8.838,0,0,0-.735-4.05,2.566,2.566,0,0,0-2.46-1.38,2.76,2.76,0,0,0-2.535,1.32,6.857,6.857,0,0,0-.81,3.6q0,4.23,1.56,5.31A2.922,2.922,0,0,0,70.38-2.19Zm-6.9-5.37a10.266,10.266,0,0,1,.66-3.855,5.9,5.9,0,0,1,1.77-2.505,7.6,7.6,0,0,1,4.71-1.62,7.129,7.129,0,0,1,3.045.585,6.2,6.2,0,0,1,1.95,1.35,6.212,6.212,0,0,1,1.2,2.22A10.689,10.689,0,0,1,77.31-7.95q0,4.14-2.01,6.27A6.762,6.762,0,0,1,70.155.45a6.172,6.172,0,0,1-4.9-2.025Q63.48-3.6,63.48-7.56ZM84.69-21.39v18.9l1.71.09V0H79.26V-2.28l.99-.09a.864.864,0,0,0,.87-.96V-18.12q0-.66-.75-.72l-1.05-.06v-2.49Z" transform="translate(71 73.987)" fill="#fff"/>
        </g>
      </g>
      <path id="Trazado_40450" data-name="Trazado 40450" d="M1.19,0V-2.835L2.345-2.94q1.015-.1,1.015-.98V-20.2l-2-.1v-2.975H18.27v5.81l-3.57.245v-1.4a1.5,1.5,0,0,0-.175-.84q-.175-.245-.84-.245H7.63v6.195h8.61v3.57H7.63v6.86l3.115.1V0ZM36.645,0H20.02V-2.835l1.155-.105q1.015-.1,1.015-.98V-20.2l-2-.1v-2.975h16.03v5.81l-3.57.245v-1.4a1.5,1.5,0,0,0-.175-.84q-.175-.245-.84-.245H26.46v5.985h8.085v3.57H26.46v6.545H32.1q.63,0,.805-.263a1.6,1.6,0,0,0,.175-.858v-1.75l3.57.245ZM38.99,0V-2.835l1.155-.105q1.015-.1,1.015-.98V-20.2l-1.995-.1v-2.975H48.72a10.872,10.872,0,0,1,6.23,1.505q2.17,1.5,2.17,4.935a6.044,6.044,0,0,1-1.242,3.92,7.325,7.325,0,0,1-2.958,2.24,3.625,3.625,0,0,1,2,2.135l2.52,5.5,2,.07V0H50.785V-2.835L51.8-2.94q.805-.1.805-.63a1.128,1.128,0,0,0-.14-.49L50.82-7.56A3.162,3.162,0,0,0,49.962-8.8a2.154,2.154,0,0,0-1.347-.367H45.43v6.09l2.275.1V0Zm6.44-12.495h3.045q4.3,0,4.305-3.85,0-2.2-1.138-2.87a7.569,7.569,0,0,0-3.657-.665H45.43Zm22.855-10.78,5.95,15.82h.07l5.985-15.82h6.93v2.835l-1.155.105A1.038,1.038,0,0,0,85.05-19.11l.875,16.03,2.17.1V0H79.66V-2.835l1.26-.105q.945-.07.91-.91L81.165-16.2H81.1L75.705-2.24H72.38L67.06-16.065h-.07L66.29-3.08l2.275.1V0h-8.26V-2.835l1.26-.105a.9.9,0,0,0,.875-.945l.945-16.275L61.25-20.3v-2.975ZM106.435,0H89.81V-2.835l1.155-.105q1.015-.1,1.015-.98V-20.2l-2-.1v-2.975h16.03v5.81l-3.57.245v-1.4a1.5,1.5,0,0,0-.175-.84q-.175-.245-.84-.245H96.25v5.985h8.085v3.57H96.25v6.545h5.635q.63,0,.805-.263a1.6,1.6,0,0,0,.175-.858v-1.75l3.57.245Zm2.345,0V-2.835l1.26-.105a.877.877,0,0,0,.91-.98V-20.2l-2-.1v-2.975h6.3l9.9,16.065h.07V-20.2l-2.31-.1v-2.975h8.54v2.835l-1.26.105q-.84.07-.84,1.085V0h-4.095L115.15-16.31h-.07V-3.08l2.275.1V0Zm31.01-3.92V-19.81h-2.73q-.805,0-.8,1.085v1.645l-3.57-.245v-5.95H150.99v5.95l-3.57.245v-1.645a1.5,1.5,0,0,0-.175-.84q-.175-.245-.84-.245h-2.38V-3.08l2.765.1V0h-9.87V-2.835l1.855-.105Q139.79-3.045,139.79-3.92Zm11.48,0L156.9-20.23l-2.205-.21v-2.835h8.015l7.14,20.2h.035l1.995.1V0h-9.03V-2.835l1.33-.105a1.39,1.39,0,0,0,.805-.28q.21-.21.035-.77l-.735-2.17H156.1l-1.05,3.08,2.1.1V0h-8.085V-2.835l1.155-.105A1.25,1.25,0,0,0,151.27-3.92ZM160.2-19.355,156.94-9.38h6.51l-3.15-9.975Zm26.95-.21q-.385-.665-2.87-.665a5.821,5.821,0,0,0-4.935,2.2,10.36,10.36,0,0,0-1.68,6.37q0,8.645,6.475,8.645h.928a5.239,5.239,0,0,0,1.557-.227,1.59,1.59,0,0,0,.875-.473,1.613,1.613,0,0,0,.14-.77v-2.8l3.57.245V-.98a14.821,14.821,0,0,1-6.93,1.435q-5.355,0-8.173-3.01t-2.818-8.96a15.911,15.911,0,0,1,.945-5.74,9.231,9.231,0,0,1,2.555-3.815,11.327,11.327,0,0,1,7.49-2.625,15.39,15.39,0,0,1,6.58,1.435v5.95l-3.57.245V-18.8A1.613,1.613,0,0,0,187.145-19.565Zm8.925,15.47V-20.2l-1.995-.1v-2.975h8.47v2.835l-1.155.105a1.008,1.008,0,0,0-1.015,1.12V-3.08l1.995.1V0H193.9V-2.835l1.155-.105a1.386,1.386,0,0,0,.77-.3A1.158,1.158,0,0,0,196.07-4.095Zm19.355-19.6a9.226,9.226,0,0,1,6.965,2.94q2.8,2.94,2.8,8.977t-2.783,9.135a9.609,9.609,0,0,1-7.525,3.1,9.366,9.366,0,0,1-7.437-3.08q-2.7-3.08-2.7-8.96a15.552,15.552,0,0,1,.945-5.653A9.307,9.307,0,0,1,208.18-21,10.735,10.735,0,0,1,215.425-23.695Zm-6.3,11.935q0,8.68,6.02,8.68a4.606,4.606,0,0,0,4.515-2.66,12.583,12.583,0,0,0,1.19-5.74,14.594,14.594,0,0,0-1.05-5.6,4.872,4.872,0,0,0-1.8-2.2,5.547,5.547,0,0,0-3.133-.805,4.741,4.741,0,0,0-3.307,1.26,6.546,6.546,0,0,0-1.908,3.045A14.258,14.258,0,0,0,209.125-11.76Zm2.52-14.49,5.67-5.5,1.4,1.155a1.657,1.657,0,0,1,.63,1.155q0,.875-1.225,1.575L212.7-24.815ZM227.535,0V-2.835l1.26-.105a.877.877,0,0,0,.91-.98V-20.2l-1.995-.1v-2.975h6.3l9.9,16.065h.07V-20.2l-2.31-.1v-2.975h8.54v2.835l-1.26.105q-.84.07-.84,1.085V0h-4.1L233.9-16.31h-.07V-3.08l2.275.1V0Z" transform="translate(496 4100) rotate(-90)" fill="#00223d"/>
      <path id="Trazado_40451" data-name="Trazado 40451" d="M19.74-8.155V-1.82A13.928,13.928,0,0,1,11.655.42,9.606,9.606,0,0,1,4.113-2.608Q1.4-5.635,1.4-11.585a15.248,15.248,0,0,1,.683-4.725,10.751,10.751,0,0,1,1.785-3.465A10.165,10.165,0,0,1,6.44-22.05a12.3,12.3,0,0,1,6.353-1.645,15.51,15.51,0,0,1,6.633,1.435v5.95l-3.57.245V-18.8a1.613,1.613,0,0,0-.14-.77q-.385-.665-3.185-.665-6.755,0-6.755,8.365,0,8.82,6.09,8.82a6.824,6.824,0,0,0,3.71-.84V-9.1H15.54L12.845-9.2V-12.18H21.56v2.8l-.805.07a1.342,1.342,0,0,0-.787.3A1.219,1.219,0,0,0,19.74-8.155ZM40.005,0H23.38V-2.835l1.155-.105q1.015-.1,1.015-.98V-20.2l-1.995-.1v-2.975H31.99v2.835l-1.155.105a1.008,1.008,0,0,0-1.015,1.12v15.61h5.81a.7.7,0,0,0,.647-.263,1.745,1.745,0,0,0,.158-.858v-2.45l3.57.245Zm7-19.18V-7.56a4.328,4.328,0,0,0,1.173,3.448,5.044,5.044,0,0,0,3.36,1,4.9,4.9,0,0,0,3.4-1.085A4.062,4.062,0,0,0,56.14-7.385V-20.2l-2.03-.1v-2.975H62.4v2.835l-1.155.105a.975.975,0,0,0-1.015,1.05V-6.79a6.466,6.466,0,0,1-2.38,5.32A10.186,10.186,0,0,1,51.275.455q-4.2,0-6.353-1.873T42.77-7.35V-20.2l-2.03-.1v-2.975h8.47v2.835l-1.155.105a1.438,1.438,0,0,0-.805.3A1.158,1.158,0,0,0,47.005-19.18Zm31.115-.385q-.385-.665-2.87-.665a5.821,5.821,0,0,0-4.935,2.2,10.36,10.36,0,0,0-1.68,6.37q0,8.645,6.475,8.645h.927A5.238,5.238,0,0,0,77.6-3.237a1.59,1.59,0,0,0,.875-.473,1.613,1.613,0,0,0,.14-.77v-2.8l3.57.245V-.98A14.821,14.821,0,0,1,75.25.455q-5.355,0-8.173-3.01t-2.817-8.96a15.911,15.911,0,0,1,.945-5.74A9.231,9.231,0,0,1,67.76-21.07a11.327,11.327,0,0,1,7.49-2.625,15.39,15.39,0,0,1,6.58,1.435v5.95l-3.57.245V-18.8A1.613,1.613,0,0,0,78.12-19.565Zm17.71-4.13a9.226,9.226,0,0,1,6.965,2.94q2.8,2.94,2.8,8.977t-2.783,9.135a9.61,9.61,0,0,1-7.525,3.1,9.366,9.366,0,0,1-7.437-3.08q-2.7-3.08-2.695-8.96a15.553,15.553,0,0,1,.945-5.653A9.307,9.307,0,0,1,88.585-21,10.735,10.735,0,0,1,95.83-23.695ZM89.53-11.76q0,8.68,6.02,8.68a4.606,4.606,0,0,0,4.515-2.66,12.583,12.583,0,0,0,1.19-5.74,14.594,14.594,0,0,0-1.05-5.6,4.872,4.872,0,0,0-1.8-2.2,5.547,5.547,0,0,0-3.132-.805,4.741,4.741,0,0,0-3.308,1.26,6.546,6.546,0,0,0-1.907,3.045A14.259,14.259,0,0,0,89.53-11.76Zm2.52-14.49,5.67-5.5,1.4,1.155a1.657,1.657,0,0,1,.63,1.155q0,.875-1.225,1.575L93.1-24.815ZM124.565,0H107.94V-2.835L109.1-2.94q1.015-.1,1.015-.98V-20.2l-2-.1v-2.975h8.435v2.835l-1.155.105a1.008,1.008,0,0,0-1.015,1.12v15.61h5.81a.7.7,0,0,0,.647-.263A1.744,1.744,0,0,0,121-4.725v-2.45l3.57.245Zm4.165-4.095V-20.2l-1.995-.1v-2.975h8.47v2.835l-1.155.105a1.008,1.008,0,0,0-1.015,1.12V-3.08l1.995.1V0h-8.47V-2.835l1.155-.105a1.386,1.386,0,0,0,.77-.3A1.158,1.158,0,0,0,128.73-4.095Zm15.715.945q4.2,0,4.2-3.36A2.739,2.739,0,0,0,146.79-9.1a13.834,13.834,0,0,0-2.538-.91,20.348,20.348,0,0,1-2.59-.858,10.41,10.41,0,0,1-2.082-1.207,5.53,5.53,0,0,1-2.065-4.743,6.188,6.188,0,0,1,2.222-5.04,8.821,8.821,0,0,1,5.81-1.837,15.591,15.591,0,0,1,6.667,1.435v5.25l-3.57.245V-18.8a1.613,1.613,0,0,0-.14-.77q-.385-.665-2.467-.665a5.21,5.21,0,0,0-3.08.735,2.639,2.639,0,0,0-1,2.275,2.686,2.686,0,0,0,.84,1.96,4.2,4.2,0,0,0,1.663.927q1.1.368,2.345.753a16.842,16.842,0,0,1,2.205.84,11.263,11.263,0,0,1,2.012,1.26,5.647,5.647,0,0,1,2.135,4.865,6.273,6.273,0,0,1-2.362,5.18,9.677,9.677,0,0,1-6.23,1.89A16.26,16.26,0,0,1,137.62-.98V-6.51l3.57-.245V-4.62a1.614,1.614,0,0,0,.14.77,1.567,1.567,0,0,0,.858.472A8.12,8.12,0,0,0,144.445-3.15Zm12.95-.945V-20.2l-1.995-.1v-2.975h8.47v2.835l-1.155.105a1.008,1.008,0,0,0-1.015,1.12V-3.08l1.995.1V0h-8.47V-2.835l1.155-.105a1.386,1.386,0,0,0,.77-.3A1.158,1.158,0,0,0,157.395-4.095Zm15.715.945q4.2,0,4.2-3.36a2.739,2.739,0,0,0-1.855-2.59,13.834,13.834,0,0,0-2.538-.91,20.348,20.348,0,0,1-2.59-.858,10.41,10.41,0,0,1-2.082-1.207,5.53,5.53,0,0,1-2.065-4.743,6.188,6.188,0,0,1,2.222-5.04,8.821,8.821,0,0,1,5.81-1.837,15.591,15.591,0,0,1,6.667,1.435v5.25l-3.57.245V-18.8a1.613,1.613,0,0,0-.14-.77q-.385-.665-2.467-.665a5.21,5.21,0,0,0-3.08.735,2.639,2.639,0,0,0-1,2.275,2.686,2.686,0,0,0,.84,1.96,4.2,4.2,0,0,0,1.663.927q1.1.368,2.345.753a16.842,16.842,0,0,1,2.205.84,11.263,11.263,0,0,1,2.012,1.26,5.647,5.647,0,0,1,2.135,4.865,6.273,6.273,0,0,1-2.362,5.18,9.677,9.677,0,0,1-6.23,1.89A16.26,16.26,0,0,1,166.285-.98V-6.51l3.57-.245V-4.62a1.614,1.614,0,0,0,.14.77,1.567,1.567,0,0,0,.858.472A8.12,8.12,0,0,0,173.11-3.15Z" transform="translate(496 4555) rotate(-90)" fill="#00223d"/>
    </g>
    <path id="Trazado_40495" data-name="Trazado 40495" d="M16.92-6.99v5.43A11.938,11.938,0,0,1,9.99.36a8.234,8.234,0,0,1-6.465-2.6Q1.2-4.83,1.2-9.93a13.07,13.07,0,0,1,.585-4.05,9.215,9.215,0,0,1,1.53-2.97,8.713,8.713,0,0,1,2.2-1.95,10.546,10.546,0,0,1,5.445-1.41,13.3,13.3,0,0,1,5.685,1.23v5.1l-3.06.21v-2.34a1.383,1.383,0,0,0-.12-.66q-.33-.57-2.73-.57-5.79,0-5.79,7.17,0,7.56,5.22,7.56a5.849,5.849,0,0,0,3.18-.72V-7.8h-.03l-2.31-.09v-2.55h7.47v2.4l-.69.06a1.15,1.15,0,0,0-.675.255A1.045,1.045,0,0,0,16.92-6.99Zm8.67-14.4v18.9l1.71.09V0H20.16V-2.28l.99-.09a.864.864,0,0,0,.87-.96V-18.12q0-.66-.75-.72l-1.05-.06v-2.49ZM44.76-2.37V0H39.9V-1.95A5.566,5.566,0,0,1,35.04.39q-4.65,0-4.65-5.19v-6.93q0-.81-.75-.84l-.96-.06v-2.46h5.28v9.51a5.064,5.064,0,0,0,.45,2.4,1.939,1.939,0,0,0,1.86.81,3.033,3.033,0,0,0,2.265-.87,2.887,2.887,0,0,0,.855-2.1v-6.33a1.058,1.058,0,0,0-.165-.675.816.816,0,0,0-.585-.225l-.96-.06v-2.46h5.28V-3.33a1,1,0,0,0,.15.645,1,1,0,0,0,.6.225Zm5.46-5.34a6.982,6.982,0,0,0,.96,3.96,3.151,3.151,0,0,0,2.775,1.41A6.044,6.044,0,0,0,57.54-3.63l1.29,2.31A8.164,8.164,0,0,1,53.49.42a6.5,6.5,0,0,1-5.055-2.025Q46.59-3.63,46.59-7.59T48.7-13.545a6.776,6.776,0,0,1,4.77-1.995,10.232,10.232,0,0,1,4.935,1.23v3.9l-2.76.21v-1.44q0-.81-.585-1a3.817,3.817,0,0,0-1.215-.2Q50.22-12.84,50.22-7.71Zm17.1,5.52q3.27,0,3.27-5.28a8.838,8.838,0,0,0-.735-4.05A2.566,2.566,0,0,0,67.4-12.9a2.76,2.76,0,0,0-2.535,1.32,6.857,6.857,0,0,0-.81,3.6q0,4.23,1.56,5.31A2.922,2.922,0,0,0,67.32-2.19Zm-6.9-5.37a10.266,10.266,0,0,1,.66-3.855,5.9,5.9,0,0,1,1.77-2.505,7.6,7.6,0,0,1,4.71-1.62,7.129,7.129,0,0,1,3.045.585,6.2,6.2,0,0,1,1.95,1.35,6.211,6.211,0,0,1,1.2,2.22,10.689,10.689,0,0,1,.5,3.435q0,4.14-2.01,6.27A6.762,6.762,0,0,1,67.1.45,6.172,6.172,0,0,1,62.19-1.575Q60.42-3.6,60.42-7.56Zm23.7-5.25a4.969,4.969,0,0,0-1.74-.27,2.644,2.644,0,0,0-1.635.465,1.387,1.387,0,0,0-.615,1.14,2.048,2.048,0,0,0,.225,1.05,1.854,1.854,0,0,0,.705.645,9.062,9.062,0,0,0,1.8.675q1.05.285,1.56.45a9.138,9.138,0,0,1,1.275.555,3.791,3.791,0,0,1,1.155.84A3.979,3.979,0,0,1,87.9-4.41,4.222,4.222,0,0,1,86.265-.885,6.555,6.555,0,0,1,82.11.39a12.772,12.772,0,0,1-5.52-.93V-4.71l2.7-.21v1.44q0,1.32,2.52,1.32t2.52-1.83a1.435,1.435,0,0,0-.435-1.08,2.453,2.453,0,0,0-.855-.57q-.42-.15-1-.3t-1.14-.3a11.326,11.326,0,0,1-1.2-.4A9.281,9.281,0,0,1,78.27-7.38a3.646,3.646,0,0,1-1.53-3.315,4.244,4.244,0,0,1,1.65-3.585,6.648,6.648,0,0,1,4.155-1.26,11.225,11.225,0,0,1,4.965,1.2v3.6l-2.7.21v-1.26A1.007,1.007,0,0,0,84.12-12.81Zm19.14-1.68V-3.33a.991.991,0,0,0,.165.66.86.86,0,0,0,.585.21l.96.06V0H100.2V-1.74l-.09-.03A4.742,4.742,0,0,1,96,.39a5.307,5.307,0,0,1-4.53-1.95A8.683,8.683,0,0,1,90-6.9a9.388,9.388,0,0,1,1.98-6.36q1.98-2.28,5.94-2.28A15.149,15.149,0,0,1,103.26-14.49ZM99.78-4.77v-7.77a5.59,5.59,0,0,0-2.31-.39,3.079,3.079,0,0,0-2.91,1.62,8.821,8.821,0,0,0-.9,4.29q0,4.86,3.12,4.86a3.015,3.015,0,0,0,2.16-.8A2.438,2.438,0,0,0,99.78-4.77Z" transform="translate(547 4466)" fill="#fff"/>
    <path id="Trazado_40496" data-name="Trazado 40496" d="M12.675,0H.8V-2.025L1.625-2.1q.725-.075.725-.7V-14.425L.925-14.5v-2.125H6.95V-14.6l-.825.075a.72.72,0,0,0-.725.8v11.15H9.55a.5.5,0,0,0,.462-.187,1.246,1.246,0,0,0,.113-.613v-1.75l2.55.175Zm12.8-12.075v9.3a.826.826,0,0,0,.137.55.716.716,0,0,0,.488.175l.8.05V0H22.925V-1.45l-.075-.025a3.952,3.952,0,0,1-3.425,1.8A4.422,4.422,0,0,1,15.65-1.3a7.236,7.236,0,0,1-1.225-4.45,7.823,7.823,0,0,1,1.65-5.3,6.2,6.2,0,0,1,4.95-1.9A12.624,12.624,0,0,1,25.475-12.075Zm-2.9,8.1V-10.45a4.659,4.659,0,0,0-1.925-.325,2.566,2.566,0,0,0-2.425,1.35,7.351,7.351,0,0,0-.75,3.575q0,4.05,2.6,4.05a2.512,2.512,0,0,0,1.8-.662A2.032,2.032,0,0,0,22.575-3.975Zm8.875-2.45a5.818,5.818,0,0,0,.8,3.3A2.626,2.626,0,0,0,34.563-1.95,5.037,5.037,0,0,0,37.55-3.025L38.625-1.1A6.8,6.8,0,0,1,34.175.35a5.414,5.414,0,0,1-4.212-1.687,7.177,7.177,0,0,1-1.537-4.987,6.507,6.507,0,0,1,1.762-4.963,5.646,5.646,0,0,1,3.975-1.662,8.526,8.526,0,0,1,4.113,1.025v3.25l-2.3.175V-9.7q0-.675-.487-.837a3.181,3.181,0,0,0-1.013-.162Q31.45-10.7,31.45-6.425Zm11.525-8.8H44.6v2.65h3.325l-.25,2.1H44.6V-3.9A2.286,2.286,0,0,0,45-2.362a1.6,1.6,0,0,0,1.237.438,3.194,3.194,0,0,0,1.688-.525l.75,1.925A5.409,5.409,0,0,1,45.5.35,5.493,5.493,0,0,1,43.6.063a3.458,3.458,0,0,1-1.15-.637A2.24,2.24,0,0,1,41.875-1.6a5.184,5.184,0,0,1-.225-1.062q-.025-.388-.025-1.138v-6.675H39.85L40.1-12.3a2.438,2.438,0,0,0,1.775-.837A7.409,7.409,0,0,0,42.975-15.225Zm17.875,3.15v9.3a.826.826,0,0,0,.138.55.716.716,0,0,0,.487.175l.8.05V0H58.3V-1.45l-.075-.025A3.952,3.952,0,0,1,54.8.325,4.422,4.422,0,0,1,51.025-1.3,7.236,7.236,0,0,1,49.8-5.75a7.823,7.823,0,0,1,1.65-5.3,6.2,6.2,0,0,1,4.95-1.9A12.624,12.624,0,0,1,60.85-12.075Zm-2.9,8.1V-10.45a4.659,4.659,0,0,0-1.925-.325A2.566,2.566,0,0,0,53.6-9.425a7.351,7.351,0,0,0-.75,3.575q0,4.05,2.6,4.05a2.512,2.512,0,0,0,1.8-.662A2.032,2.032,0,0,0,57.95-3.975Zm5.7-6.6v-2h4.225v1.625A4.553,4.553,0,0,1,69.6-12.412a5.126,5.126,0,0,1,2.325-.538,3.867,3.867,0,0,1,2.938,1.087A4.564,4.564,0,0,1,75.9-8.6v6.525L77.325-2V0h-5.95V-1.9l.825-.075a.99.99,0,0,0,.55-.212.827.827,0,0,0,.175-.613V-7.95A3.848,3.848,0,0,0,72.5-9.988a1.772,1.772,0,0,0-1.613-.662A2.457,2.457,0,0,0,69-9.9a2.514,2.514,0,0,0-.7,1.775v6.05L69.725-2V0h-5.95V-1.9l.825-.075a.99.99,0,0,0,.55-.212.827.827,0,0,0,.175-.613V-9.725q0-.75-.625-.775Zm16.925-4.65H82.2v2.65h3.325l-.25,2.1H82.2V-3.9a2.286,2.286,0,0,0,.4,1.538,1.6,1.6,0,0,0,1.238.438,3.194,3.194,0,0,0,1.688-.525l.75,1.925A5.409,5.409,0,0,1,83.1.35,5.493,5.493,0,0,1,81.2.063a3.458,3.458,0,0,1-1.15-.637A2.24,2.24,0,0,1,79.475-1.6a5.185,5.185,0,0,1-.225-1.062q-.025-.388-.025-1.138v-6.675H77.45L77.7-12.3a2.438,2.438,0,0,0,1.775-.837A7.409,7.409,0,0,0,80.575-15.225ZM93.5-12.95a4.516,4.516,0,0,1,2.975.912,3.145,3.145,0,0,1,1.1,2.563A3.859,3.859,0,0,1,97.1-7.537a3.837,3.837,0,0,1-1.175,1.313,6.171,6.171,0,0,1-1.7.775,13.188,13.188,0,0,1-3.775.5,3.317,3.317,0,0,0,.825,2.137,2.984,2.984,0,0,0,2.3.813,5.333,5.333,0,0,0,3.1-1.1l.95,2.025a5.889,5.889,0,0,1-1.687.925,7.258,7.258,0,0,1-2.713.475A5.538,5.538,0,0,1,88.75-1.362,6.966,6.966,0,0,1,87.325-6a7.6,7.6,0,0,1,1.625-4.95A5.534,5.534,0,0,1,93.5-12.95ZM92.35-7.225a4.187,4.187,0,0,0,1.7-.738A1.629,1.629,0,0,0,94.825-9.3a1.337,1.337,0,0,0-1.5-1.525,2.438,2.438,0,0,0-2.15,1.112A5.107,5.107,0,0,0,90.35-7.05,14.183,14.183,0,0,0,92.35-7.225Z" transform="translate(550 4051)" fill="#fff"/>
    <path id="Trazado_40497" data-name="Trazado 40497" d="M.96,0V-2.43l.99-.09q.87-.09.87-.84V-17.31L1.11-17.4v-2.55H9.69a7.9,7.9,0,0,1,5.235,1.575A5.822,5.822,0,0,1,16.8-13.65a6,6,0,0,1-2.13,4.905A8.589,8.589,0,0,1,9.03-6.99H6.48v4.35l2.88.09V0ZM6.48-9.9H8.64q4.38,0,4.38-3.57,0-2.16-1.125-2.865A6.974,6.974,0,0,0,8.31-17.04H6.48Zm17.64-5.19v12.6l1.71.09V0H18.69V-2.28l.99-.09a.864.864,0,0,0,.87-.96v-8.34a1.051,1.051,0,0,0-.165-.69.772.772,0,0,0-.585-.18l-1.05-.06v-2.49Zm-3.78-2.58a2.155,2.155,0,0,1-.63-1.59,2.206,2.206,0,0,1,.63-1.6,2.2,2.2,0,0,1,1.65-.645,2.253,2.253,0,0,1,1.665.645,2.179,2.179,0,0,1,.645,1.6,2.081,2.081,0,0,1-.645,1.575,2.314,2.314,0,0,1-1.665.615A2.294,2.294,0,0,1,20.34-17.67ZM29.43-3.36v-8.31a1.058,1.058,0,0,0-.165-.675.816.816,0,0,0-.585-.225l-1.26-.09v-2.43h5.07v2.25a4.658,4.658,0,0,1,1.68-1.935,4.6,4.6,0,0,1,2.625-.765,6.375,6.375,0,0,1,2.835.66v4.47l-2.79.21v-1.38q0-.6-.3-.75a1.953,1.953,0,0,0-.81-.15,2.517,2.517,0,0,0-1.965.855A3.139,3.139,0,0,0,33-9.45v6.96l2.61.12V0H27.57V-2.28l.99-.09a1.188,1.188,0,0,0,.66-.255A.993.993,0,0,0,29.43-3.36Zm27.6.99V0H52.17V-1.95A5.566,5.566,0,0,1,47.31.39q-4.65,0-4.65-5.19v-6.93q0-.81-.75-.84l-.96-.06v-2.46h5.28v9.51a5.064,5.064,0,0,0,.45,2.4,1.939,1.939,0,0,0,1.86.81,3.033,3.033,0,0,0,2.265-.87,2.887,2.887,0,0,0,.855-2.1v-6.33a1.058,1.058,0,0,0-.165-.675.816.816,0,0,0-.585-.225l-.96-.06v-2.46h5.28V-3.33a1,1,0,0,0,.15.645,1,1,0,0,0,.6.225Zm9.93-12.72h6.33v2.34l-.93.06a.917.917,0,0,0-.81.72L67.68,0H63.09l-4.2-11.94a1.449,1.449,0,0,0-.315-.57.93.93,0,0,0-.555-.18l-.87-.06v-2.34H64.2v2.4l-1.83.09,3.09,9.87h.06l3-9.87-1.56-.09Zm21.09.6V-3.33a.991.991,0,0,0,.165.66.86.86,0,0,0,.585.21l.96.06V0H84.99V-1.74l-.09-.03A4.742,4.742,0,0,1,80.79.39a5.307,5.307,0,0,1-4.53-1.95A8.683,8.683,0,0,1,74.79-6.9a9.388,9.388,0,0,1,1.98-6.36q1.98-2.28,5.94-2.28A15.149,15.149,0,0,1,88.05-14.49ZM84.57-4.77v-7.77a5.59,5.59,0,0,0-2.31-.39,3.079,3.079,0,0,0-2.91,1.62,8.821,8.821,0,0,0-.9,4.29q0,4.86,3.12,4.86a3.015,3.015,0,0,0,2.16-.8A2.438,2.438,0,0,0,84.57-4.77Zm9.75-13.5h1.95v3.18h3.99l-.3,2.52H96.27v7.89a2.743,2.743,0,0,0,.48,1.845,1.918,1.918,0,0,0,1.485.525,3.833,3.833,0,0,0,2.025-.63l.9,2.31A6.491,6.491,0,0,1,97.35.42,6.592,6.592,0,0,1,95.07.075,4.149,4.149,0,0,1,93.69-.69,2.688,2.688,0,0,1,93-1.92a6.221,6.221,0,0,1-.27-1.275Q92.7-3.66,92.7-4.56v-8.01H90.57l.3-2.19A2.925,2.925,0,0,0,93-15.765,8.891,8.891,0,0,0,94.32-18.27ZM108.6-2.19q3.27,0,3.27-5.28a8.838,8.838,0,0,0-.735-4.05,2.566,2.566,0,0,0-2.46-1.38,2.76,2.76,0,0,0-2.535,1.32,6.857,6.857,0,0,0-.81,3.6q0,4.23,1.56,5.31A2.922,2.922,0,0,0,108.6-2.19Zm-6.9-5.37a10.266,10.266,0,0,1,.66-3.855,5.9,5.9,0,0,1,1.77-2.505,7.6,7.6,0,0,1,4.71-1.62,7.129,7.129,0,0,1,3.045.585,6.2,6.2,0,0,1,1.95,1.35,6.211,6.211,0,0,1,1.2,2.22,10.689,10.689,0,0,1,.5,3.435q0,4.14-2.01,6.27A6.762,6.762,0,0,1,108.375.45a6.172,6.172,0,0,1-4.9-2.025Q101.7-3.6,101.7-7.56Z" transform="translate(1218 4466)" fill="#fff"/>
  </g>
</svg>
