<svg xmlns="http://www.w3.org/2000/svg" width="119" height="119" viewBox="0 0 119 119">
  <g id="Grupo_10526" data-name="Grupo 10526" transform="translate(-423 -840)">
    <circle id="Elipse_968" data-name="Elipse 968" cx="59.5" cy="59.5" r="59.5" transform="translate(423 840)" fill="#ededed"/>
    <g id="Grupo_10510" data-name="Grupo 10510" transform="translate(331 722.038)">
      <path id="Trazado_27671" data-name="Trazado 27671" d="M171.436,171.235a27.17,27.17,0,1,1-27.17,27.17,27.154,27.154,0,0,1,27.17-27.17Z" transform="translate(-20.997 -21)" fill="#ffda00" fill-rule="evenodd"/>
      <path id="Trazado_27672" data-name="Trazado 27672" d="M193.452,180.831a27.131,27.131,0,1,1-35.883,40.239,26.383,26.383,0,0,0,15.591,5.044,27.252,27.252,0,0,0,27.284-27.17,26.819,26.819,0,0,0-6.993-18.113Z" transform="translate(-27.307 -25.552)" fill="#ffc735" fill-rule="evenodd"/>
      <path id="Trazado_27673" data-name="Trazado 27673" d="M169.473,225.787a29.349,29.349,0,1,1,29.345-29.348A29.38,29.38,0,0,1,169.473,225.787Zm0-54.8a25.45,25.45,0,1,0,25.451,25.451A25.479,25.479,0,0,0,169.473,170.988Z" transform="translate(-19.034 -19.034)" fill="#2f2f2f"/>
      <path id="Trazado_27674" data-name="Trazado 27674" d="M194.2,142.554a1.946,1.946,0,0,1-1.947-1.949V128.911a1.947,1.947,0,1,1,3.894,0v11.695A1.946,1.946,0,0,1,194.2,142.554Z" transform="translate(-43.756 0)" fill="#2f2f2f"/>
      <path id="Trazado_27675" data-name="Trazado 27675" d="M194.2,305.029a1.946,1.946,0,0,1-1.947-1.949V291.386a1.947,1.947,0,1,1,3.894,0V303.08A1.946,1.946,0,0,1,194.2,305.029Z" transform="translate(-43.756 -77.067)" fill="#2f2f2f"/>
      <path id="Trazado_27676" data-name="Trazado 27676" d="M113.637,223.112h-11.69a1.949,1.949,0,0,1,0-3.9h11.69a1.949,1.949,0,0,1,0,3.9Z" transform="translate(0 -43.758)" fill="#2f2f2f"/>
      <path id="Trazado_27677" data-name="Trazado 27677" d="M276.112,223.112h-11.69a1.949,1.949,0,0,1,0-3.9h11.69a1.949,1.949,0,0,1,0,3.9Z" transform="translate(-77.067 -43.758)" fill="#2f2f2f"/>
      <path id="Trazado_27678" data-name="Trazado 27678" d="M137.239,166.158a1.94,1.94,0,0,1-1.378-.57l-8.255-8.255a1.949,1.949,0,1,1,2.757-2.757l8.255,8.254a1.949,1.949,0,0,1-1.378,3.327Z" transform="translate(-12.823 -12.827)" fill="#2f2f2f"/>
      <path id="Trazado_27679" data-name="Trazado 27679" d="M252.17,281.088a1.94,1.94,0,0,1-1.378-.571l-8.255-8.254a1.949,1.949,0,1,1,2.757-2.757l8.255,8.255a1.949,1.949,0,0,1-1.378,3.327Z" transform="translate(-67.339 -67.342)" fill="#2f2f2f"/>
      <path id="Trazado_27680" data-name="Trazado 27680" d="M128.984,281.088a1.949,1.949,0,0,1-1.378-3.327l8.255-8.255a1.949,1.949,0,1,1,2.757,2.757l-8.255,8.254A1.94,1.94,0,0,1,128.984,281.088Z" transform="translate(-12.823 -67.342)" fill="#2f2f2f"/>
      <path id="Trazado_27681" data-name="Trazado 27681" d="M243.915,166.158a1.949,1.949,0,0,1-1.378-3.327l8.255-8.254a1.949,1.949,0,0,1,2.757,2.757l-8.255,8.255A1.939,1.939,0,0,1,243.915,166.158Z" transform="translate(-67.339 -12.827)" fill="#2f2f2f"/>
      <path id="Trazado_27682" data-name="Trazado 27682" d="M165.012,151.615a1.953,1.953,0,0,1-1.8-1.2l-3.1-7.45a1.95,1.95,0,0,1,3.6-1.5l3.1,7.451a1.95,1.95,0,0,1-1.054,2.547A1.924,1.924,0,0,1,165.012,151.615Z" transform="translate(-28.444 -6.31)" fill="#2f2f2f"/>
      <path id="Trazado_27683" data-name="Trazado 27683" d="M223.894,295.551a1.953,1.953,0,0,1-1.8-1.2L219,286.9a1.95,1.95,0,0,1,3.6-1.5l3.1,7.451a1.95,1.95,0,0,1-1.054,2.547A1.918,1.918,0,0,1,223.894,295.551Z" transform="translate(-56.373 -74.583)" fill="#2f2f2f"/>
      <path id="Trazado_27684" data-name="Trazado 27684" d="M115.243,252.813a1.948,1.948,0,0,1-.746-3.748l7.453-3.094a1.948,1.948,0,1,1,1.493,3.6l-7.452,3.095A1.928,1.928,0,0,1,115.243,252.813Z" transform="translate(-6.306 -56.378)" fill="#2f2f2f"/>
      <path id="Trazado_27685" data-name="Trazado 27685" d="M259.183,193.929a1.948,1.948,0,0,1-.746-3.748l7.452-3.1a1.948,1.948,0,1,1,1.493,3.6l-7.452,3.1A1.918,1.918,0,0,1,259.183,193.929Z" transform="translate(-74.581 -28.446)" fill="#2f2f2f"/>
      <path id="Trazado_27686" data-name="Trazado 27686" d="M122.914,193.276a1.927,1.927,0,0,1-.746-.15l-7.453-3.095a1.948,1.948,0,1,1,1.493-3.6l7.453,3.094a1.948,1.948,0,0,1-.746,3.748Z" transform="translate(-6.409 -28.138)" fill="#2f2f2f"/>
      <path id="Trazado_27687" data-name="Trazado 27687" d="M266.418,253.468a1.915,1.915,0,0,1-.746-.15l-7.453-3.094a1.948,1.948,0,1,1,1.493-3.6l7.453,3.095a1.948,1.948,0,0,1-.746,3.748Z" transform="translate(-74.478 -56.689)" fill="#2f2f2f"/>
      <path id="Trazado_27688" data-name="Trazado 27688" d="M161.262,295.333a1.928,1.928,0,0,1-.746-.15,1.951,1.951,0,0,1-1.054-2.547l3.1-7.451a1.95,1.95,0,0,1,3.6,1.5l-3.1,7.451A1.953,1.953,0,0,1,161.262,295.333Z" transform="translate(-28.134 -74.481)" fill="#2f2f2f"/>
      <path id="Trazado_27689" data-name="Trazado 27689" d="M221.451,151.832a1.927,1.927,0,0,1-.746-.15,1.951,1.951,0,0,1-1.054-2.547l3.1-7.451a1.95,1.95,0,0,1,3.6,1.5l-3.1,7.451A1.953,1.953,0,0,1,221.451,151.832Z" transform="translate(-56.684 -6.412)" fill="#2f2f2f"/>
    </g>
  </g>
</svg>
