<svg xmlns="http://www.w3.org/2000/svg" width="119" height="119" viewBox="0 0 119 119">
  <g id="Grupo_10529" data-name="Grupo 10529" transform="translate(-454 -1718)">
    <circle id="Elipse_969" data-name="Elipse 969" cx="59.5" cy="59.5" r="59.5" transform="translate(454 1718)" fill="#ededed"/>
    <g id="Grupo_10524" data-name="Grupo 10524" transform="translate(31 214)">
      <g id="Grupo_10523" data-name="Grupo 10523" transform="translate(-1528.803 384.574)">
        <path id="Trazado_27770" data-name="Trazado 27770" d="M2066.32,1273.957a38.487,38.487,0,1,1,38.544-38.544A38.53,38.53,0,0,1,2066.32,1273.957Zm0-73.124a34.637,34.637,0,1,0,34.693,34.58A34.616,34.616,0,0,0,2066.32,1200.833Z" transform="translate(-54.635 -54.617)" fill="#2f2f2f"/>
        <path id="Trazado_27771" data-name="Trazado 27771" d="M2122.026,1266.944a36.344,36.344,0,0,1-13.045-2.394,1.927,1.927,0,0,1,1.375-3.6,32.518,32.518,0,0,0,11.67,2.144,34.6,34.6,0,0,0,23.629-9.346,1.926,1.926,0,1,1,2.625,2.82A38.435,38.435,0,0,1,2122.026,1266.944Zm-17.344-4.417a1.944,1.944,0,0,1-.918-.234,37.293,37.293,0,0,1-7.893-5.737,1.928,1.928,0,0,1,2.656-2.8,33.266,33.266,0,0,0,7.073,5.144,1.929,1.929,0,0,1-.918,3.624Z" transform="translate(-110.341 -101.114)" fill="#2f2f2f"/>
        <path id="Trazado_27772" data-name="Trazado 27772" d="M2146.97,1519.654a1.923,1.923,0,0,1-1.285-.488,40.13,40.13,0,0,0-6.921-4.972,1.929,1.929,0,0,1,1.9-3.359,44.551,44.551,0,0,1,7.592,5.456,1.925,1.925,0,0,1-1.285,3.363Zm-49.769,0a1.925,1.925,0,0,1-1.3-3.347,38.983,38.983,0,0,1,39.5-7.862,1.923,1.923,0,0,1,1.132,2.476,1.9,1.9,0,0,1-2.476,1.133,35.1,35.1,0,0,0-35.552,7.1A1.914,1.914,0,0,1,2097.2,1519.654Z" transform="translate(-110.344 -310.179)" fill="#434a53"/>
        <path id="Trazado_27773" data-name="Trazado 27773" d="M2138.807,1273.957c-11.8,0-21.524-14-23.121-33.283a1.932,1.932,0,0,1,1.761-2.082,1.955,1.955,0,0,1,2.082,1.761c1.4,16.962,9.69,29.753,19.278,29.753,10.752,0,19.5-15.564,19.5-34.693a1.925,1.925,0,1,1,3.851,0C2162.158,1257.026,2151.9,1273.957,2138.807,1273.957Zm-21.313-36.619a1.922,1.922,0,0,1-1.925-1.925c0-21.551,10.205-38.431,23.238-38.431,11.74,0,21.68,14.314,23.121,33.3a1.927,1.927,0,0,1-1.777,2.066,1.977,1.977,0,0,1-2.066-1.777c-1.285-16.95-9.573-29.737-19.278-29.737-10.69,0-19.387,15.513-19.387,34.58A1.922,1.922,0,0,1,2117.494,1237.338Z" transform="translate(-127.122 -54.617)" fill="#2f2f2f"/>
        <path id="Trazado_27774" data-name="Trazado 27774" d="M2240.492,1273.957a1.922,1.922,0,0,1-1.926-1.925v-73.124a1.925,1.925,0,1,1,3.851,0v73.124A1.922,1.922,0,0,1,2240.492,1273.957Z" transform="translate(-228.807 -54.617)" fill="#434a53"/>
        <path id="Trazado_27775" data-name="Trazado 27775" d="M2102.938,1411.511h-73.122a1.925,1.925,0,1,1,0-3.851h73.122a1.925,1.925,0,1,1,0,3.851Z" transform="translate(-54.635 -228.79)" fill="#434a53"/>
        <path id="Trazado_27776" data-name="Trazado 27776" d="M2235.794,1134.769H2233.3a1.925,1.925,0,1,1,0-3.851h2.492a1.925,1.925,0,0,1,0,3.851Z" transform="translate(-222.863)" fill="#434a53"/>
        <path id="Trazado_27777" data-name="Trazado 27777" d="M2235.794,1688.906H2233.3a1.925,1.925,0,1,1,0-3.851h2.492a1.925,1.925,0,0,1,0,3.851Z" transform="translate(-222.863 -458.119)" fill="#434a53"/>
        <path id="Trazado_27778" data-name="Trazado 27778" d="M1963.73,1406.813a1.925,1.925,0,0,1-1.927-1.925V1402.4a1.927,1.927,0,0,1,3.855,0v2.492A1.925,1.925,0,0,1,1963.73,1406.813Z" transform="translate(0 -222.845)" fill="#434a53"/>
        <path id="Trazado_27779" data-name="Trazado 27779" d="M2517.888,1406.813a1.922,1.922,0,0,1-1.925-1.925V1402.4a1.925,1.925,0,1,1,3.851,0v2.492A1.922,1.922,0,0,1,2517.888,1406.813Z" transform="translate(-458.138 -222.845)" fill="#434a53"/>
        <path id="Trazado_27780" data-name="Trazado 27780" d="M2039.635,1212.472a1.925,1.925,0,0,1-1.363-3.288l1.812-1.812a1.928,1.928,0,0,1,2.726,2.726L2041,1211.91A1.926,1.926,0,0,1,2039.635,1212.472Z" transform="translate(-62.752 -62.741)" fill="#434a53"/>
        <path id="Trazado_27781" data-name="Trazado 27781" d="M2431.525,1604.256a1.925,1.925,0,0,1-1.363-3.289l1.7-1.7a1.928,1.928,0,0,1,2.726,2.726l-1.7,1.7A1.926,1.926,0,0,1,2431.525,1604.256Z" transform="translate(-386.736 -386.732)" fill="#434a53"/>
        <path id="Trazado_27782" data-name="Trazado 27782" d="M2041.444,1604.253a1.922,1.922,0,0,1-1.318-.52l-1.812-1.7a1.927,1.927,0,0,1,2.636-2.812l1.81,1.7a1.926,1.926,0,0,1-1.316,3.332Z" transform="translate(-62.749 -386.729)" fill="#434a53"/>
        <path id="Trazado_27783" data-name="Trazado 27783" d="M2433.235,1212.462a1.912,1.912,0,0,1-1.406-.609l-1.7-1.812a1.926,1.926,0,0,1,2.812-2.632l1.7,1.812a1.925,1.925,0,0,1-1.406,3.242Z" transform="translate(-386.748 -62.731)" fill="#434a53"/>
        <path id="Trazado_27784" data-name="Trazado 27784" d="M1998.351,1546.47a1.928,1.928,0,0,1-1.67-.965l-1.248-2.156a1.927,1.927,0,1,1,3.335-1.929l1.248,2.156a1.931,1.931,0,0,1-1.666,2.894Z" transform="translate(-27.589 -338.577)" fill="#434a53"/>
        <path id="Trazado_27785" data-name="Trazado 27785" d="M2478.457,1269.084a1.923,1.923,0,0,1-1.707-1.035l-1.133-2.152a1.928,1.928,0,1,1,3.414-1.793l1.133,2.152a1.933,1.933,0,0,1-1.707,2.828Z" transform="translate(-424.599 -109.257)" fill="#434a53"/>
        <path id="Trazado_27786" data-name="Trazado 27786" d="M2373.281,1649.5a1.929,1.929,0,0,1-.895-3.636l2.152-1.133a1.928,1.928,0,1,1,1.792,3.414l-2.152,1.133A1.96,1.96,0,0,1,2373.281,1649.5Z" transform="translate(-338.585 -424.598)" fill="#434a53"/>
        <path id="Trazado_27787" data-name="Trazado 27787" d="M2095.888,1169.377a1.929,1.929,0,0,1-.965-3.6l2.156-1.246a1.927,1.927,0,1,1,1.929,3.335l-2.156,1.246A1.928,1.928,0,0,1,2095.888,1169.377Z" transform="translate(-109.258 -27.578)" fill="#434a53"/>
        <path id="Trazado_27788" data-name="Trazado 27788" d="M2164.361,1677.828a1.942,1.942,0,0,1-.531-.078l-2.379-.68a1.926,1.926,0,1,1,1.063-3.7l2.378.68a1.928,1.928,0,0,1-.531,3.781Z" transform="translate(-163.901 -448.396)" fill="#434a53"/>
        <path id="Trazado_27789" data-name="Trazado 27789" d="M2307.753,1143.155a1.768,1.768,0,0,1-.426-.051l-2.492-.567a1.926,1.926,0,1,1,.851-3.757l2.492.566a1.928,1.928,0,0,1-.426,3.808Z" transform="translate(-282.352 -6.457)" fill="#434a53"/>
        <path id="Trazado_27790" data-name="Trazado 27790" d="M2506.111,1478.775a1.934,1.934,0,0,1-1.859-2.437l.679-2.492a1.927,1.927,0,0,1,3.718,1.016l-.68,2.492A1.932,1.932,0,0,1,2506.111,1478.775Z" transform="translate(-448.398 -282.333)" fill="#434a53"/>
        <path id="Trazado_27791" data-name="Trazado 27791" d="M1971.587,1335.407a1.972,1.972,0,0,1-.449-.055,1.926,1.926,0,0,1-1.428-2.32l.566-2.378a1.927,1.927,0,1,1,3.749.89l-.566,2.378A1.929,1.929,0,0,1,1971.587,1335.407Z" transform="translate(-6.494 -163.906)" fill="#434a53"/>
        <path id="Trazado_27792" data-name="Trazado 27792" d="M2477.323,1546.352a1.93,1.93,0,0,1-1.687-2.863l1.133-2.043a1.928,1.928,0,0,1,3.375,1.867l-1.133,2.043A1.932,1.932,0,0,1,2477.323,1546.352Z" transform="translate(-424.598 -338.572)" fill="#434a53"/>
        <path id="Trazado_27793" data-name="Trazado 27793" d="M1997.1,1269.074a1.931,1.931,0,0,1-1.666-2.894l1.248-2.156a1.927,1.927,0,1,1,3.335,1.929l-1.248,2.156A1.929,1.929,0,0,1,1997.1,1269.074Z" transform="translate(-27.589 -109.247)" fill="#434a53"/>
        <path id="Trazado_27794" data-name="Trazado 27794" d="M2375.44,1169.377a1.928,1.928,0,0,1-.965-.262l-2.156-1.246a1.927,1.927,0,1,1,1.929-3.335l2.156,1.246a1.929,1.929,0,0,1-.965,3.6Z" transform="translate(-338.587 -27.578)" fill="#434a53"/>
        <path id="Trazado_27795" data-name="Trazado 27795" d="M2098.041,1649.5a1.959,1.959,0,0,1-.9-.223l-2.152-1.133a1.928,1.928,0,1,1,1.792-3.414l2.152,1.133a1.929,1.929,0,0,1-.894,3.636Z" transform="translate(-109.255 -424.598)" fill="#434a53"/>
        <path id="Trazado_27796" data-name="Trazado 27796" d="M2506.8,1335.391a1.926,1.926,0,0,1-1.851-1.4l-.679-2.378a1.926,1.926,0,1,1,3.7-1.062l.68,2.378a1.937,1.937,0,0,1-1.851,2.461Z" transform="translate(-448.406 -163.89)" fill="#434a53"/>
        <path id="Trazado_27797" data-name="Trazado 27797" d="M1972.15,1478.68a1.93,1.93,0,0,1-1.873-1.484l-.566-2.379a1.927,1.927,0,1,1,3.749-.89l.566,2.379a1.926,1.926,0,0,1-1.428,2.32A1.966,1.966,0,0,1,1972.15,1478.68Z" transform="translate(-6.494 -282.351)" fill="#434a53"/>
        <path id="Trazado_27798" data-name="Trazado 27798" d="M2161.979,1143.174a1.928,1.928,0,0,1-.445-3.8l2.379-.566a1.927,1.927,0,0,1,.89,3.749l-2.378.566A1.956,1.956,0,0,1,2161.979,1143.174Z" transform="translate(-163.897 -6.476)" fill="#434a53"/>
        <path id="Trazado_27799" data-name="Trazado 27799" d="M2305.26,1677.8a1.928,1.928,0,0,1-.508-3.788l2.492-.68a1.927,1.927,0,1,1,1.016,3.718l-2.492.68A1.917,1.917,0,0,1,2305.26,1677.8Z" transform="translate(-282.35 -448.367)" fill="#434a53"/>
      </g>
      <rect id="Rectángulo_2606" data-name="Rectángulo 2606" width="86" height="5" transform="translate(440 1563)" fill="#009dff"/>
    </g>
  </g>
</svg>
