<svg xmlns="http://www.w3.org/2000/svg" width="119" height="119" viewBox="0 0 119 119">
  <g id="Grupo_10530" data-name="Grupo 10530" transform="translate(-454 -2014)">
    <circle id="Elipse_966" data-name="Elipse 966" cx="59.5" cy="59.5" r="59.5" transform="translate(454 2014)" fill="#ededed"/>
    <g id="Grupo_10521" data-name="Grupo 10521" transform="translate(-194.939 1606.412)">
      <path id="Trazado_27743" data-name="Trazado 27743" d="M727.664,458.673a29.441,29.441,0,0,1,29.458,29.458,28.4,28.4,0,0,1-2.983,13.051H701.312a28.469,28.469,0,0,1-3.107-13.051,29.441,29.441,0,0,1,29.458-29.458Z" transform="translate(-19.037 -18.852)" fill="#ffda00" fill-rule="evenodd"/>
      <path id="Trazado_27744" data-name="Trazado 27744" d="M779.769,468.051A29.381,29.381,0,0,1,792.2,492.164a28.4,28.4,0,0,1-2.983,13.051h-7.706a29.218,29.218,0,0,0-1.74-37.165Z" transform="translate(-54.113 -22.885)" fill="#ffc735" fill-rule="evenodd"/>
      <path id="Trazado_27745" data-name="Trazado 27745" d="M755.59,488.9a2.11,2.11,0,0,1-2.111-2.113,27.595,27.595,0,1,0-55.189,0,2.111,2.111,0,1,1-4.222,0,31.817,31.817,0,1,1,63.634,0A2.11,2.11,0,0,1,755.59,488.9Z" transform="translate(-17.257 -17.257)" fill="#2f2f2f"/>
      <path id="Trazado_27746" data-name="Trazado 27746" d="M748.3,431.743a2.11,2.11,0,0,1-2.111-2.113V416.95a2.111,2.111,0,1,1,4.222,0v12.68A2.11,2.11,0,0,1,748.3,431.743Z" transform="translate(-39.671)" fill="#2f2f2f"/>
      <path id="Trazado_27747" data-name="Trazado 27747" d="M668.725,511.315H656.05a2.113,2.113,0,0,1,0-4.226h12.675a2.113,2.113,0,0,1,0,4.226Z" transform="translate(0 -39.673)" fill="#2f2f2f"/>
      <path id="Trazado_27748" data-name="Trazado 27748" d="M831.2,511.315H818.525a2.113,2.113,0,0,1,0-4.226H831.2a2.113,2.113,0,0,1,0,4.226Z" transform="translate(-69.872 -39.673)" fill="#2f2f2f"/>
      <path id="Trazado_27749" data-name="Trazado 27749" d="M692.038,455.055a2.1,2.1,0,0,1-1.494-.619l-8.95-8.948a2.113,2.113,0,1,1,2.989-2.989l8.95,8.948a2.113,2.113,0,0,1-1.494,3.608Z" transform="translate(-11.626 -11.63)" fill="#2f2f2f"/>
      <path id="Trazado_27750" data-name="Trazado 27750" d="M798.019,455.055a2.113,2.113,0,0,1-1.494-3.608l8.95-8.948a2.113,2.113,0,1,1,2.989,2.989l-8.95,8.948A2.1,2.1,0,0,1,798.019,455.055Z" transform="translate(-61.052 -11.63)" fill="#2f2f2f"/>
      <path id="Trazado_27751" data-name="Trazado 27751" d="M719.376,440.352a2.115,2.115,0,0,1-1.957-1.312l-3.357-8.2a2.115,2.115,0,0,1,3.914-1.6l3.357,8.2a2.116,2.116,0,0,1-1.957,2.914Z" transform="translate(-25.788 -5.627)" fill="#2f2f2f"/>
      <path id="Trazado_27752" data-name="Trazado 27752" d="M813.287,482.271a2.113,2.113,0,0,1-.784-4.075l8.08-3.231a2.112,2.112,0,1,1,1.567,3.923l-8.08,3.23A2.1,2.1,0,0,1,813.287,482.271Z" transform="translate(-67.619 -25.794)" fill="#2f2f2f"/>
      <path id="Trazado_27753" data-name="Trazado 27753" d="M677.646,481.647a2.089,2.089,0,0,1-.835-.173l-8.081-3.48a2.112,2.112,0,0,1,1.67-3.88l8.081,3.48a2.113,2.113,0,0,1-.835,4.053Z" transform="translate(-5.811 -25.418)" fill="#2f2f2f"/>
      <path id="Trazado_27754" data-name="Trazado 27754" d="M775.554,440.57a2.116,2.116,0,0,1-1.957-2.914l3.357-8.2a2.114,2.114,0,0,1,3.914,1.6l-3.357,8.205A2.115,2.115,0,0,1,775.554,440.57Z" transform="translate(-51.391 -5.72)" fill="#2f2f2f"/>
      <path id="Trazado_27755" data-name="Trazado 27755" d="M756.111,557.984H693.338a2.113,2.113,0,0,1,0-4.227h62.773a2.113,2.113,0,0,1,0,4.227Z" transform="translate(-16.036 -59.743)" fill="#2f2f2f"/>
      <path id="Trazado_27756" data-name="Trazado 27756" d="M759.04,533.776H672.406a2.113,2.113,0,0,1,0-4.226H759.04a2.113,2.113,0,0,1,0,4.226Z" transform="translate(-7.034 -49.332)" fill="#2f2f2f"/>
      <path id="Trazado_27757" data-name="Trazado 27757" d="M752.539,581.974H717.982a2.113,2.113,0,0,1,0-4.227h34.557a2.113,2.113,0,0,1,0,4.227Z" transform="translate(-26.634 -70.059)" fill="#2f2f2f"/>
    </g>
  </g>
</svg>
