<svg xmlns="http://www.w3.org/2000/svg" width="119" height="119.474" viewBox="0 0 119 119.474">
  <g id="Grupo_10534" data-name="Grupo 10534" transform="translate(-454 -3235)">
    <circle id="Elipse_965" data-name="Elipse 965" cx="59.5" cy="59.5" r="59.5" transform="translate(454 3235)" fill="#ededed"/>
    <g id="Grupo_10520" data-name="Grupo 10520" transform="translate(75.07 2561.782)">
      <path id="Trazado_27735" data-name="Trazado 27735" d="M421.715,684.61a26.129,26.129,0,0,1,17.13,6.344,20.631,20.631,0,0,1,9.263-2.03,22.057,22.057,0,0,1,22.078,20.429,19.324,19.324,0,0,1-1.649,38.574H401.921a19.3,19.3,0,0,1-6.6-37.432,26.351,26.351,0,0,1,26.393-25.885Z" transform="translate(-1.549 -1.551)" fill="#aee2ff" fill-rule="evenodd"/>
      <path id="Trazado_27736" data-name="Trazado 27736" d="M481.143,733.461a19.33,19.33,0,0,1-11.42,34.894H403.106a19.238,19.238,0,0,1-17.637-11.293,19.472,19.472,0,0,0,11.42,3.68h66.616a19.213,19.213,0,0,0,17.638-27.281Z" transform="translate(-2.734 -21.979)" fill="#95daff" fill-rule="evenodd"/>
      <path id="Trazado_27737" data-name="Trazado 27737" d="M466.988,748.534H400.372a21.464,21.464,0,0,1-8.69-41.08A28.532,28.532,0,0,1,437.66,686.91a24.64,24.64,0,0,1,8.9-1.694A24.261,24.261,0,0,1,470.6,705.89a21.692,21.692,0,0,1,17.827,21.2A21.466,21.466,0,0,1,466.988,748.534Zm-46.822-63.318a24.333,24.333,0,0,0-24.235,23.765,2.151,2.151,0,0,1-1.434,1.995,17.142,17.142,0,0,0,5.875,33.243h66.616a17.15,17.15,0,0,0,17.131-17.13,17.333,17.333,0,0,0-15.675-17.138,2.155,2.155,0,0,1-1.958-2A19.913,19.913,0,0,0,446.56,689.53a20.358,20.358,0,0,0-8.371,1.836,2.144,2.144,0,0,1-2.3-.328A24.093,24.093,0,0,0,420.166,685.216Z" fill="#2f2f2f"/>
      <path id="Trazado_27738" data-name="Trazado 27738" d="M515.833,843.356a14.354,14.354,0,0,1-14.338-14.339,2.155,2.155,0,1,1,4.31,0,10.027,10.027,0,1,0,10.028-9.9,2.157,2.157,0,0,1,0-4.315,14.275,14.275,0,1,1,0,28.55Z" transform="translate(-51.253 -55.996)" fill="#2f2f2f"/>
      <path id="Trazado_27739" data-name="Trazado 27739" d="M508.811,819.121H486.857a2.157,2.157,0,0,1,0-4.315h21.953a2.157,2.157,0,0,1,0,4.315Z" transform="translate(-44.231 -55.996)" fill="#2f2f2f"/>
      <path id="Trazado_27740" data-name="Trazado 27740" d="M461.082,857.99a10.479,10.479,0,0,1-10.4-10.533,2.155,2.155,0,1,1,4.31,0,6.162,6.162,0,0,0,6.089,6.218,6.3,6.3,0,0,0,6.221-6.218,6.165,6.165,0,0,0-6.221-6.089,2.157,2.157,0,0,1,0-4.315,10.469,10.469,0,1,1,0,20.937Z" transform="translate(-30.005 -65.299)" fill="#2f2f2f"/>
      <path id="Trazado_27741" data-name="Trazado 27741" d="M440.471,841.368H403.55a2.157,2.157,0,0,1,0-4.315h36.921a2.157,2.157,0,0,1,0,4.315Z" transform="translate(-9.394 -65.299)" fill="#2f2f2f"/>
      <path id="Trazado_27742" data-name="Trazado 27742" d="M436.4,819.121H397.442a2.157,2.157,0,0,1,0-4.315H436.4a2.157,2.157,0,0,1,0,4.315Z" transform="translate(-6.84 -55.996)" fill="#2f2f2f"/>
    </g>
  </g>
</svg>
