<svg xmlns="http://www.w3.org/2000/svg" width="119" height="119" viewBox="0 0 119 119">
  <g id="Grupo_10532" data-name="Grupo 10532" transform="translate(-472 -2666)">
    <circle id="Elipse_963" data-name="Elipse 963" cx="59.5" cy="59.5" r="59.5" transform="translate(472 2666)" fill="#ededed"/>
    <g id="Grupo_10518" data-name="Grupo 10518" transform="translate(-458.908 2536.03)">
      <path id="Trazado_27715" data-name="Trazado 27715" d="M974.857,154.661a25.592,25.592,0,0,1,16.78,6.215,20.211,20.211,0,0,1,9.074-1.989,21.607,21.607,0,0,1,21.628,20.012,18.93,18.93,0,0,1-1.616,37.787H955.466A18.906,18.906,0,0,1,949,180.017a25.9,25.9,0,0,1,25.855-25.356Z" transform="translate(-2.436 -2.064)" fill="#aee2ff" fill-rule="evenodd"/>
      <path id="Trazado_27716" data-name="Trazado 27716" d="M1033.129,203.512a18.936,18.936,0,0,1-11.187,34.182H956.685a18.845,18.845,0,0,1-17.277-11.063,19.363,19.363,0,0,0,11.187,3.6h65.256a18.991,18.991,0,0,0,19.017-18.893,18.5,18.5,0,0,0-1.74-7.831Z" transform="translate(-3.655 -23.072)" fill="#95daff" fill-rule="evenodd"/>
      <path id="Trazado_27717" data-name="Trazado 27717" d="M1021.267,217.356a2.114,2.114,0,0,1-.266-4.21,17.193,17.193,0,0,0-.539-34.206,2.112,2.112,0,0,1-1.918-1.946,19.92,19.92,0,0,0-20.019-18.555,20.866,20.866,0,0,0-8.354,1.813,2.11,2.11,0,0,1-2.227-.34,23.774,23.774,0,0,0-15.772-5.824,24.565,24.565,0,0,0-24.365,23.8,2.113,2.113,0,0,1-1.375,1.925,17.37,17.37,0,0,0-11.3,16.167,17,17,0,0,0,13.039,16.711,2.114,2.114,0,0,1-.968,4.116,21.215,21.215,0,0,1-16.294-20.826,21.612,21.612,0,0,1,12.744-19.593,28.829,28.829,0,0,1,28.519-26.522,28.332,28.332,0,0,1,17.523,6.021,24.721,24.721,0,0,1,8.83-1.67,24.093,24.093,0,0,1,24.044,20.743,21.418,21.418,0,0,1-1.028,42.383A2.276,2.276,0,0,1,1021.267,217.356Z" fill="#2f2f2f"/>
      <g id="Grupo_10513" data-name="Grupo 10513" transform="translate(978.588 193.613)">
        <path id="Trazado_27718" data-name="Trazado 27718" d="M1027.633,230.337c4.6,24.859-23.244,9.819,0,0Z" transform="translate(-1016.15 -228.221)" fill="#0092e6" fill-rule="evenodd"/>
        <path id="Trazado_27719" data-name="Trazado 27719" d="M1021.269,244.42a6.789,6.789,0,0,1-6.372-4.511c-.612-1.794-1.67-8.047,10.329-13.115a2.112,2.112,0,0,1,2.9,1.561c2.372,12.825-3.417,15.382-5.25,15.859A6.313,6.313,0,0,1,1021.269,244.42Zm3.087-12.545c-4.779,2.541-5.991,5.107-5.46,6.674a2.51,2.51,0,0,0,2.912,1.576C1023.517,239.68,1024.819,236.971,1024.356,231.875Z" transform="translate(-1014.565 -226.625)" fill="#2f2f2f"/>
      </g>
      <g id="Grupo_10514" data-name="Grupo 10514" transform="translate(953.676 193.616)">
        <path id="Trazado_27720" data-name="Trazado 27720" d="M983.974,230.337c4.6,24.859-23.368,9.819,0,0Z" transform="translate(-972.439 -228.224)" fill="#0092e6" fill-rule="evenodd"/>
        <path id="Trazado_27721" data-name="Trazado 27721" d="M977.575,244.422a6.8,6.8,0,0,1-6.393-4.522c-.608-1.794-1.653-8.044,10.392-13.105a2.114,2.114,0,0,1,2.895,1.563c2.373,12.823-3.438,15.382-5.28,15.859A6.345,6.345,0,0,1,977.575,244.422Zm3.13-12.549c-4.531,2.415-6.089,5-5.52,6.674a2.524,2.524,0,0,0,2.942,1.58C979.733,239.707,981.214,237.279,980.7,231.873Z" transform="translate(-970.855 -226.63)" fill="#2f2f2f"/>
      </g>
      <g id="Grupo_10515" data-name="Grupo 10515" transform="translate(1003.446 193.613)">
        <path id="Trazado_27722" data-name="Trazado 27722" d="M1071.25,230.337c4.6,24.859-23.244,9.819,0,0Z" transform="translate(-1059.766 -228.221)" fill="#0092e6" fill-rule="evenodd"/>
        <path id="Trazado_27723" data-name="Trazado 27723" d="M1064.884,244.42a6.789,6.789,0,0,1-6.372-4.511c-.612-1.794-1.67-8.047,10.329-13.115a2.111,2.111,0,0,1,2.9,1.561c2.373,12.825-3.417,15.382-5.25,15.859A6.308,6.308,0,0,1,1064.884,244.42Zm3.087-12.545c-4.779,2.541-5.991,5.107-5.46,6.674a2.515,2.515,0,0,0,2.912,1.576C1067.132,239.68,1068.433,236.971,1067.971,231.875Z" transform="translate(-1058.18 -226.625)" fill="#2f2f2f"/>
      </g>
      <g id="Grupo_10516" data-name="Grupo 10516" transform="translate(962.849 215.367)">
        <path id="Trazado_27724" data-name="Trazado 27724" d="M1000.095,268.5c4.475,24.984-23.368,9.819,0,0Z" transform="translate(-988.534 -266.388)" fill="#0092e6" fill-rule="evenodd"/>
        <path id="Trazado_27725" data-name="Trazado 27725" d="M993.656,282.64a6.789,6.789,0,0,1-6.38-4.531c-.608-1.8-1.649-8.081,10.419-13.151a2.114,2.114,0,0,1,2.9,1.576c2.308,12.9-3.52,15.435-5.357,15.906A6.305,6.305,0,0,1,993.656,282.64Zm3.147-12.6c-4.826,2.552-6.055,5.136-5.524,6.719a2.5,2.5,0,0,0,2.907,1.584C995.912,277.906,997.24,275.179,996.8,270.043Z" transform="translate(-986.95 -264.794)" fill="#2f2f2f"/>
      </g>
      <g id="Grupo_10517" data-name="Grupo 10517" transform="translate(987.707 215.367)">
        <path id="Trazado_27726" data-name="Trazado 27726" d="M1043.712,268.5c4.475,24.984-23.368,9.819,0,0Z" transform="translate(-1032.15 -266.388)" fill="#0092e6" fill-rule="evenodd"/>
        <path id="Trazado_27727" data-name="Trazado 27727" d="M1037.27,282.64a6.789,6.789,0,0,1-6.38-4.531c-.608-1.8-1.649-8.081,10.418-13.151a2.114,2.114,0,0,1,2.9,1.576c2.308,12.9-3.52,15.435-5.357,15.906A6.312,6.312,0,0,1,1037.27,282.64Zm3.148-12.6c-4.826,2.552-6.055,5.136-5.524,6.719a2.5,2.5,0,0,0,2.907,1.584C1039.527,277.906,1040.855,275.179,1040.418,270.043Z" transform="translate(-1030.564 -264.794)" fill="#2f2f2f"/>
      </g>
    </g>
  </g>
</svg>
