<svg xmlns="http://www.w3.org/2000/svg" width="572.209" height="420.13" viewBox="0 0 572.209 420.13">
  <g id="MF1-AUD-IMA07" transform="translate(24.541)">
    <rect id="Rectángulo_763" data-name="Rectángulo 763" width="547.668" height="0.267" transform="translate(0 358.662)" fill="#ececec"/>
    <rect id="Rectángulo_764" data-name="Rectángulo 764" width="17.592" height="0.267" transform="translate(57.462 369.09)" fill="#ececec"/>
    <rect id="Rectángulo_765" data-name="Rectángulo 765" width="58.63" height="0.267" transform="translate(187.458 366.121)" fill="#ececec"/>
    <rect id="Rectángulo_766" data-name="Rectángulo 766" width="39.715" height="0.267" transform="translate(76.151 379.265)" fill="#ececec"/>
    <rect id="Rectángulo_767" data-name="Rectángulo 767" width="47.315" height="0.267" transform="translate(415.279 365.98)" fill="#ececec"/>
    <rect id="Rectángulo_768" data-name="Rectángulo 768" width="6.938" height="0.267" transform="translate(472.347 365.98)" fill="#ececec"/>
    <rect id="Rectángulo_769" data-name="Rectángulo 769" width="59.024" height="0.267" transform="translate(347.22 372.806)" fill="#ececec"/>
    <path id="Trazado_2273" data-name="Trazado 2273" d="M279.5,314.813H67.989a6.249,6.249,0,0,1-6.249-6.249V11.249A6.249,6.249,0,0,1,67.989,5H279.5a6.249,6.249,0,0,1,6.249,6.249V308.564A6.249,6.249,0,0,1,279.5,314.813ZM67.989,5.267a6,6,0,0,0-5.981,5.981V308.564a5.981,5.981,0,0,0,5.981,5.967H279.5a5.967,5.967,0,0,0,5.967-5.967V11.249A5.981,5.981,0,0,0,279.5,5.267Z" transform="translate(-19.886 -5)" fill="#ececec"/>
    <path id="Trazado_2274" data-name="Trazado 2274" d="M447.838,314.813H236.329a6.249,6.249,0,0,1-6.249-6.249V11.249A6.249,6.249,0,0,1,236.329,5h211.51a6.249,6.249,0,0,1,6.249,6.249V308.564A6.249,6.249,0,0,1,447.838,314.813ZM236.329,5.267a6,6,0,0,0-5.981,5.981V308.564a5.981,5.981,0,0,0,5.981,5.967h211.51a5.981,5.981,0,0,0,5.981-5.967V11.249a6,6,0,0,0-5.981-5.981Z" transform="translate(48.687 -5)" fill="#ececec"/>
    <rect id="Rectángulo_770" data-name="Rectángulo 770" width="7.276" height="91.562" transform="translate(426.862 267.1)" fill="#f5f5f5"/>
    <rect id="Rectángulo_771" data-name="Rectángulo 771" width="6.333" height="91.562" transform="translate(430.971 267.1)" fill="#f0f0f0"/>
    <rect id="Rectángulo_772" data-name="Rectángulo 772" width="7.276" height="91.562" transform="translate(257.22 267.1)" fill="#f5f5f5"/>
    <rect id="Rectángulo_773" data-name="Rectángulo 773" width="6.333" height="91.562" transform="translate(261.33 267.1)" fill="#f0f0f0"/>
    <rect id="Rectángulo_774" data-name="Rectángulo 774" width="7.276" height="91.562" transform="translate(454.431 267.1)" fill="#f5f5f5"/>
    <rect id="Rectángulo_775" data-name="Rectángulo 775" width="6.333" height="91.562" transform="translate(458.541 267.1)" fill="#f0f0f0"/>
    <rect id="Rectángulo_776" data-name="Rectángulo 776" width="7.276" height="91.562" transform="translate(284.79 267.1)" fill="#f5f5f5"/>
    <rect id="Rectángulo_777" data-name="Rectángulo 777" width="207.64" height="3.462" transform="translate(464.86 268.831) rotate(180)" fill="#f0f0f0"/>
    <rect id="Rectángulo_778" data-name="Rectángulo 778" width="31.679" height="3.462" transform="translate(288.9 268.831) rotate(180)" fill="#e7e7e7"/>
    <rect id="Rectángulo_779" data-name="Rectángulo 779" width="6.333" height="91.562" transform="translate(288.9 267.1)" fill="#f0f0f0"/>
    <rect id="Rectángulo_780" data-name="Rectángulo 780" width="19.647" height="66.68" transform="translate(341.422 198.689)" fill="#ececec"/>
    <path id="Trazado_2275" data-name="Trazado 2275" d="M316.12,211.151h-65.2L241.08,133.1h65.188Z" transform="translate(98.203 54.218)" fill="#e1e1e1"/>
    <path id="Trazado_2276" data-name="Trazado 2276" d="M319.459,211.151H252.117L242.28,133.1h67.341Z" transform="translate(98.691 54.218)" fill="#f0f0f0"/>
    <path id="Trazado_2277" data-name="Trazado 2277" d="M274.064,211.151H260.99l3.687-78.051h13.06Z" transform="translate(106.313 54.218)" fill="#fafafa"/>
    <path id="Trazado_2278" data-name="Trazado 2278" d="M284.643,211.151H271.78l3.673-78.051h12.863Z" transform="translate(110.708 54.218)" fill="#fafafa"/>
    <rect id="Rectángulo_781" data-name="Rectángulo 781" width="169.374" height="132.516" transform="translate(302.663 19.238)" fill="#e7e7e7"/>
    <rect id="Rectángulo_782" data-name="Rectángulo 782" width="172.076" height="132.516" transform="translate(305.042 19.238)" fill="#f0f0f0" opacity="0.72"/>
    <rect id="Rectángulo_783" data-name="Rectángulo 783" width="169.374" height="4.433" transform="translate(302.663 151.754)" fill="#e7e7e7"/>
    <rect id="Rectángulo_784" data-name="Rectángulo 784" width="172.076" height="4.433" transform="translate(307.744 151.754)" fill="#f0f0f0"/>
    <rect id="Rectángulo_785" data-name="Rectángulo 785" width="118.287" height="157.848" transform="translate(469.997 26.345) rotate(90)" fill="#fafafa"/>
    <path id="Trazado_2279" data-name="Trazado 2279" d="M283.19,137.021l11.385-118.3h19.717l-11.4,118.3Z" transform="translate(115.356 7.625)" fill="#fff"/>
    <path id="Trazado_2280" data-name="Trazado 2280" d="M247.84,137.021l11.385-118.3h19.717l-11.4,118.3Z" transform="translate(100.956 7.625)" fill="#fff"/>
    <path id="Trazado_2281" data-name="Trazado 2281" d="M256.3,100.76a.535.535,0,0,1-.535-.535V27.184a.549.549,0,1,1,1.084,0v73.041a.535.535,0,0,1-.549.535Z" transform="translate(59.145 3.777)" fill="#f0f0f0"/>
    <path id="Trazado_2282" data-name="Trazado 2282" d="M300.2,137.021l11.385-118.3h7.684l-11.385,118.3Z" transform="translate(122.285 7.625)" fill="#fff"/>
    <rect id="Rectángulo_786" data-name="Rectángulo 786" width="118.287" height="0.901" transform="translate(469.997 26.345) rotate(90)" fill="#e7e7e7"/>
    <path id="Trazado_2283" data-name="Trazado 2283" d="M389.435,30.823H220.061L219.4,20.69H388.774Z" transform="translate(89.371 8.428)" fill="#e1e1e1" opacity="0.5"/>
    <path id="Trazado_2284" data-name="Trazado 2284" d="M389.435,42.653H220.061L219.4,32.52H388.774Z" transform="translate(89.371 13.247)" fill="#e1e1e1" opacity="0.5"/>
    <path id="Trazado_2285" data-name="Trazado 2285" d="M389.435,54.493H220.061L219.4,44.36H388.774Z" transform="translate(89.371 18.07)" fill="#e1e1e1" opacity="0.5"/>
    <path id="Trazado_2286" data-name="Trazado 2286" d="M389.435,66.333H220.061L219.4,56.2H388.774Z" transform="translate(89.371 22.893)" fill="#e1e1e1" opacity="0.5"/>
    <path id="Trazado_2287" data-name="Trazado 2287" d="M389.435,78.163H220.061L219.4,68.03H388.774Z" transform="translate(89.371 27.712)" fill="#e1e1e1" opacity="0.5"/>
    <path id="Trazado_2288" data-name="Trazado 2288" d="M389.435,90H220.061L219.4,79.87H388.774Z" transform="translate(89.371 32.535)" fill="#e1e1e1" opacity="0.5"/>
    <path id="Trazado_2289" data-name="Trazado 2289" d="M389.435,36.729H220.061L219.4,26.61H388.774Z" transform="translate(89.371 10.839)" fill="#e1e1e1" opacity="0.5"/>
    <path id="Trazado_2290" data-name="Trazado 2290" d="M389.435,48.573H220.061L219.4,38.44H388.774Z" transform="translate(89.371 15.658)" fill="#e1e1e1" opacity="0.5"/>
    <path id="Trazado_2291" data-name="Trazado 2291" d="M389.435,60.413H220.061L219.4,50.28H388.774Z" transform="translate(89.371 20.481)" fill="#e1e1e1" opacity="0.5"/>
    <path id="Trazado_2292" data-name="Trazado 2292" d="M389.435,72.243H220.061L219.4,62.11H388.774Z" transform="translate(89.371 25.3)" fill="#e1e1e1" opacity="0.5"/>
    <path id="Trazado_2293" data-name="Trazado 2293" d="M389.435,84.083H220.061L219.4,73.95H388.774Z" transform="translate(89.371 30.123)" fill="#e1e1e1" opacity="0.5"/>
    <path id="Trazado_2294" data-name="Trazado 2294" d="M389.435,95.913H220.061L219.4,85.78H388.774Z" transform="translate(89.371 34.942)" fill="#e1e1e1" opacity="0.5"/>
    <rect id="Rectángulo_787" data-name="Rectángulo 787" width="33.551" height="19.393" rx="4.82" transform="translate(136.935 85.004) rotate(180)" fill="#f5f5f5"/>
    <rect id="Rectángulo_788" data-name="Rectángulo 788" width="33.551" height="19.393" rx="4.82" transform="translate(136.935 65.61) rotate(180)" fill="#f5f5f5"/>
    <rect id="Rectángulo_789" data-name="Rectángulo 789" width="11.625" height="6.713" rx="1.67" transform="translate(125.971 46.217) rotate(180)" fill="#e1e1e1"/>
    <rect id="Rectángulo_790" data-name="Rectángulo 790" width="33.551" height="19.393" rx="4.82" transform="translate(136.935 104.383) rotate(180)" fill="#f5f5f5"/>
    <path id="Trazado_2295" data-name="Trazado 2295" d="M221.126,69.61S220.014,83.078,177.5,83.078,133.8,69.61,133.8,69.61Z" transform="translate(9.468 21.319)" fill="#f0f0f0"/>
    <rect id="Rectángulo_791" data-name="Rectángulo 791" width="33.748" height="239.037" transform="translate(66.173 107.113)" fill="#f0f0f0" opacity="0.72"/>
    <rect id="Rectángulo_792" data-name="Rectángulo 792" width="166.461" height="12.511" transform="translate(72.661 346.15)" fill="#f0f0f0"/>
    <rect id="Rectángulo_793" data-name="Rectángulo 793" width="145.674" height="239.037" transform="translate(245.596 346.15) rotate(180)" fill="#f5f5f5" opacity="0.72"/>
    <rect id="Rectángulo_794" data-name="Rectángulo 794" width="119.132" height="56.406" transform="translate(232.324 248.467) rotate(180)" fill="#f0f0f0"/>
    <rect id="Rectángulo_795" data-name="Rectángulo 795" width="119.132" height="56.406" transform="translate(232.324 317.455) rotate(180)" fill="#f0f0f0"/>
    <rect id="Rectángulo_796" data-name="Rectángulo 796" width="119.132" height="8.599" transform="translate(232.324 337.805) rotate(180)" fill="#f0f0f0"/>
    <path id="Trazado_2296" data-name="Trazado 2296" d="M195.169,147.377H134.653a4.757,4.757,0,0,1-4.743-4.729h0a4.757,4.757,0,0,1,4.743-4.729h60.516a4.743,4.743,0,0,1,4.729,4.729h0A4.743,4.743,0,0,1,195.169,147.377Z" transform="translate(7.883 49.144)" fill="#f5f5f5"/>
    <rect id="Rectángulo_797" data-name="Rectángulo 797" width="119.132" height="56.406" transform="translate(232.324 179.465) rotate(180)" fill="#f0f0f0"/>
    <path id="Trazado_2297" data-name="Trazado 2297" d="M195.169,98.357H134.653a4.757,4.757,0,0,1-4.743-4.729h0a4.757,4.757,0,0,1,4.743-4.729h60.516a4.743,4.743,0,0,1,4.729,4.729h0A4.743,4.743,0,0,1,195.169,98.357Z" transform="translate(7.883 29.176)" fill="#f5f5f5"/>
    <path id="Trazado_2298" data-name="Trazado 2298" d="M195.169,196.411H134.653a4.757,4.757,0,0,1-4.743-4.743h0a4.757,4.757,0,0,1,4.743-4.729h60.516a4.743,4.743,0,0,1,4.729,4.729h0A4.757,4.757,0,0,1,195.169,196.411Z" transform="translate(7.883 69.112)" fill="#f5f5f5"/>
    <rect id="Rectángulo_798" data-name="Rectángulo 798" width="150.164" height="2.73" transform="translate(99.936 104.397)" fill="#f0f0f0"/>
    <rect id="Rectángulo_799" data-name="Rectángulo 799" width="38.477" height="2.73" transform="translate(99.936 107.113) rotate(180)" fill="#e7e7e7"/>
    <ellipse id="_Path_" data-name="&lt;Path&gt;" cx="284.368" cy="19.899" rx="284.368" ry="19.899" transform="translate(-24.541 380.332)" fill="#f5f5f5" opacity="0.732"/>
    <path id="Trazado_2299" data-name="Trazado 2299" d="M468.074,206.166H47.349L39.58,198.82H475.843Z" transform="translate(16.123 80.988)" fill="#007cff"/>
    <path id="Trazado_2300" data-name="Trazado 2300" d="M468.074,206.166H47.349L39.58,198.82H475.843Z" transform="translate(16.123 80.988)" fill="#fff" opacity="0.5"/>
    <path id="Trazado_2301" data-name="Trazado 2301" d="M421.177,207.995H72.592L66.16,204.04H427.608Z" transform="translate(26.95 83.115)" fill="#007cff"/>
    <path id="Trazado_2302" data-name="Trazado 2302" d="M421.177,207.995H72.592L66.16,204.04H427.608Z" transform="translate(26.95 83.115)" opacity="0.5"/>
    <path id="Trazado_2303" data-name="Trazado 2303" d="M70.22,311.472H65.21L80.747,206.85H91.893Z" transform="translate(26.563 84.259)" fill="#007cff"/>
    <path id="Trazado_2304" data-name="Trazado 2304" d="M70.22,311.472H65.21L80.747,206.85H91.893Z" transform="translate(26.563 84.259)" opacity="0.5"/>
    <path id="Trazado_2305" data-name="Trazado 2305" d="M89.48,311.472H84.47L99.993,206.85h11.16Z" transform="translate(34.408 84.259)" fill="#007cff"/>
    <path id="Trazado_2306" data-name="Trazado 2306" d="M89.48,311.472H84.47L99.993,206.85h11.16Z" transform="translate(34.408 84.259)" opacity="0.5"/>
    <path id="Trazado_2307" data-name="Trazado 2307" d="M326.653,311.472h5L316.126,206.85H304.98Z" transform="translate(124.232 84.259)" fill="#007cff"/>
    <path id="Trazado_2308" data-name="Trazado 2308" d="M326.653,311.472h5L316.126,206.85H304.98Z" transform="translate(124.232 84.259)" opacity="0.5"/>
    <path id="Trazado_2309" data-name="Trazado 2309" d="M307.4,311.472h5L296.87,206.85H285.71Z" transform="translate(116.382 84.259)" fill="#007cff"/>
    <path id="Trazado_2310" data-name="Trazado 2310" d="M307.4,311.472h5L296.87,206.85H285.71Z" transform="translate(116.382 84.259)" opacity="0.5"/>
    <path id="Trazado_2311" data-name="Trazado 2311" d="M218.673,36.281l14.144.943a3.054,3.054,0,0,1,2.561,1.787l1.407,3.321a3.082,3.082,0,0,0,1.633,1.548,41.7,41.7,0,0,1,5.151,2.547,3.012,3.012,0,0,0,2.224.352l3.547-.83a3.026,3.026,0,0,1,2.969.957l9.331,10.668a2.984,2.984,0,0,1,.549,3.068l-1.224,3.392a3.11,3.11,0,0,0,0,2.252,39.956,39.956,0,0,1,1.956,5.461,3.04,3.04,0,0,0,1.323,1.815l3.1,1.914a3.054,3.054,0,0,1,1.407,2.815L267.8,92.434A3,3,0,0,1,265.974,95L262.667,96.4a3.054,3.054,0,0,0-1.562,1.633,41.7,41.7,0,0,1-2.547,5.151,3.012,3.012,0,0,0-.352,2.224l.83,3.547a3.04,3.04,0,0,1-.957,2.97l-10.64,9.373a3.054,3.054,0,0,1-3.068.549l-3.406-1.295a3.04,3.04,0,0,0-2.252,0,42.534,42.534,0,0,1-5.432,1.844,3.026,3.026,0,0,0-1.83,1.323l-1.914,3.1a3.054,3.054,0,0,1-2.815,1.407l-14.073-.943a3.026,3.026,0,0,1-2.561-1.787l-1.492-3.321a3.082,3.082,0,0,0-1.633-1.548,41.7,41.7,0,0,1-5.151-2.547,3.012,3.012,0,0,0-2.224-.281l-3.547.83a3.04,3.04,0,0,1-2.969-.957L183.743,107a3.054,3.054,0,0,1-.549-3.068l1.295-3.406a3.11,3.11,0,0,0,0-2.252,41.994,41.994,0,0,1-1.844-5.446,3,3,0,0,0-1.323-1.815L178.24,89.1a3.04,3.04,0,0,1-1.407-2.815l.943-14.073a3.054,3.054,0,0,1,1.647-2.547l3.279-1.534a3.054,3.054,0,0,0,1.562-1.633,41.707,41.707,0,0,1,2.547-5.151,3.04,3.04,0,0,0,.352-2.238l-.8-3.518a3.026,3.026,0,0,1,.957-2.97l10.668-9.331a3.012,3.012,0,0,1,3.068-.549l3.406,1.295a3.11,3.11,0,0,0,2.252,0,41.992,41.992,0,0,1,5.446-1.844,3.04,3.04,0,0,0,1.815-1.323l1.928-3.1a3.026,3.026,0,0,1,2.773-1.492ZM195.945,80.5a26.739,26.739,0,1,0,9.1-18.381,26.824,26.824,0,0,0-9.1,18.381Z" transform="translate(26.993 7.74)" fill="#007cff"/>
    <path id="Trazado_2312" data-name="Trazado 2312" d="M249.152,79.258l4.855-1.647a1.52,1.52,0,0,1,1.492.324l.816.76a1.492,1.492,0,0,0,1.013.408,15.705,15.705,0,0,1,2,.127,1.492,1.492,0,0,0,1.056-.253l.9-.647a1.478,1.478,0,0,1,1.52-.127l4.6,2.28a1.407,1.407,0,0,1,.83,1.281v1.112a1.478,1.478,0,0,0,.436,1,13.5,13.5,0,0,1,1.323,1.506,1.407,1.407,0,0,0,.929.563l1.1.183a1.492,1.492,0,0,1,1.168.985l1.633,4.855a1.492,1.492,0,0,1-.324,1.506l-.76.8a1.506,1.506,0,0,0-.394,1.013,15.7,15.7,0,0,1-.127,2,1.407,1.407,0,0,0,.253,1.056l.647.9a1.506,1.506,0,0,1,.127,1.534l-2.28,4.588a1.407,1.407,0,0,1-1.281.83h-1.112a1.492,1.492,0,0,0-1,.45,16.719,16.719,0,0,1-1.506,1.309,1.408,1.408,0,0,0-.563.929l-.183,1.1a1.492,1.492,0,0,1-1,1.168l-4.855,1.647a1.492,1.492,0,0,1-1.492-.338l-.8-.76a1.534,1.534,0,0,0-1.027-.394,15.48,15.48,0,0,1-1.984-.127,1.407,1.407,0,0,0-1.07.253l-.9.647a1.407,1.407,0,0,1-1.52.127l-4.6-2.28a1.407,1.407,0,0,1-.816-1.281v-1.112a1.407,1.407,0,0,0-.436-1,17.144,17.144,0,0,1-1.323-1.506,1.407,1.407,0,0,0-.929-.563l-1.084-.183a1.407,1.407,0,0,1-1.168-.985l-1.647-4.869a1.407,1.407,0,0,1,.324-1.492l.76-.8a1.407,1.407,0,0,0,.394-1.013,15.729,15.729,0,0,1,.141-2,1.519,1.519,0,0,0-.267-1.07l-.633-.887a1.407,1.407,0,0,1-.127-1.534l2.266-4.588a1.506,1.506,0,0,1,1.295-.83h1.112a1.562,1.562,0,0,0,1-.45,16.531,16.531,0,0,1,1.492-1.309,1.52,1.52,0,0,0,.577-.929l.183-1.1A1.407,1.407,0,0,1,249.152,79.258Zm2.9,17.718a5.489,5.489,0,1,0,.278-4.2,5.489,5.489,0,0,0-.278,4.2Z" transform="translate(52.555 24.548)" fill="#007cff"/>
    <path id="Trazado_2313" data-name="Trazado 2313" d="M249.152,79.258l4.855-1.647a1.52,1.52,0,0,1,1.492.324l.816.76a1.492,1.492,0,0,0,1.013.408,15.705,15.705,0,0,1,2,.127,1.492,1.492,0,0,0,1.056-.253l.9-.647a1.478,1.478,0,0,1,1.52-.127l4.6,2.28a1.407,1.407,0,0,1,.83,1.281v1.112a1.478,1.478,0,0,0,.436,1,13.5,13.5,0,0,1,1.323,1.506,1.407,1.407,0,0,0,.929.563l1.1.183a1.492,1.492,0,0,1,1.168.985l1.633,4.855a1.492,1.492,0,0,1-.324,1.506l-.76.8a1.506,1.506,0,0,0-.394,1.013,15.7,15.7,0,0,1-.127,2,1.407,1.407,0,0,0,.253,1.056l.647.9a1.506,1.506,0,0,1,.127,1.534l-2.28,4.588a1.407,1.407,0,0,1-1.281.83h-1.112a1.492,1.492,0,0,0-1,.45,16.719,16.719,0,0,1-1.506,1.309,1.408,1.408,0,0,0-.563.929l-.183,1.1a1.492,1.492,0,0,1-1,1.168l-4.855,1.647a1.492,1.492,0,0,1-1.492-.338l-.8-.76a1.534,1.534,0,0,0-1.027-.394,15.48,15.48,0,0,1-1.984-.127,1.407,1.407,0,0,0-1.07.253l-.9.647a1.407,1.407,0,0,1-1.52.127l-4.6-2.28a1.407,1.407,0,0,1-.816-1.281v-1.112a1.407,1.407,0,0,0-.436-1,17.144,17.144,0,0,1-1.323-1.506,1.407,1.407,0,0,0-.929-.563l-1.084-.183a1.407,1.407,0,0,1-1.168-.985l-1.647-4.869a1.407,1.407,0,0,1,.324-1.492l.76-.8a1.407,1.407,0,0,0,.394-1.013,15.729,15.729,0,0,1,.141-2,1.519,1.519,0,0,0-.267-1.07l-.633-.887a1.407,1.407,0,0,1-.127-1.534l2.266-4.588a1.506,1.506,0,0,1,1.295-.83h1.112a1.562,1.562,0,0,0,1-.45,16.531,16.531,0,0,1,1.492-1.309,1.52,1.52,0,0,0,.577-.929l.183-1.1A1.407,1.407,0,0,1,249.152,79.258Zm2.9,17.718a5.489,5.489,0,1,0,.278-4.2,5.489,5.489,0,0,0-.278,4.2Z" transform="translate(52.555 24.548)" fill="#fff" opacity="0.5"/>
    <path id="Trazado_2314" data-name="Trazado 2314" d="M230.137,119.171l4.757-8.247a3.307,3.307,0,0,0-2.815-4.954h-9.528a3.307,3.307,0,0,0-2.815,4.954l4.757,8.247a3.307,3.307,0,0,0,5.643,0Z" transform="translate(44.295 36.13)" fill="#007cff"/>
    <path id="Trazado_2315" data-name="Trazado 2315" d="M88.42,233.532H236.079a3.758,3.758,0,0,0,3.772-3.912l-3.49-105.551a4.081,4.081,0,0,0-4.039-3.9H84.676a3.772,3.772,0,0,0-3.786,3.9l3.49,105.551A4.081,4.081,0,0,0,88.42,233.532Z" transform="translate(-12.086 41.914)" fill="#007cff"/>
    <path id="Trazado_2316" data-name="Trazado 2316" d="M89.28,233.532H236.91a3.772,3.772,0,0,0,3.786-3.912l-3.49-105.551a4.081,4.081,0,0,0-4.039-3.9H85.522a3.758,3.758,0,0,0-3.772,3.9l3.49,105.551A4.081,4.081,0,0,0,89.28,233.532Z" transform="translate(-11.735 41.914)" fill="#007cff"/>
    <g id="Grupo_1042" data-name="Grupo 1042" transform="translate(70.013 162.084)" opacity="0.6">
      <path id="Trazado_2317" data-name="Trazado 2317" d="M89.28,233.532H236.91a3.772,3.772,0,0,0,3.786-3.912l-3.49-105.551a4.081,4.081,0,0,0-4.039-3.9H85.522a3.758,3.758,0,0,0-3.772,3.9l3.49,105.551A4.081,4.081,0,0,0,89.28,233.532Z" transform="translate(-81.748 -120.17)" fill="#1a2e35"/>
    </g>
    <path id="Trazado_2318" data-name="Trazado 2318" d="M89.7,200.58H268.022a4.658,4.658,0,0,1,4.222,2.632,1.407,1.407,0,0,1-1.224,1.928H86.714a1.407,1.407,0,0,1-1.224-1.928A4.658,4.658,0,0,1,89.7,200.58Z" transform="translate(-10.253 74.668)" fill="#007cff"/>
    <path id="Trazado_2319" data-name="Trazado 2319" d="M257.6,200.58H115.3a4.686,4.686,0,0,0-4.222,2.632,1.407,1.407,0,0,0,1.238,1.928H260.581a1.407,1.407,0,0,0,1.224-1.928,4.658,4.658,0,0,0-4.208-2.632Z" transform="translate(0.171 74.668)" fill="#1a2e35" opacity="0.6"/>
    <path id="Trazado_2320" data-name="Trazado 2320" d="M155.2,202.64h36.985a1.661,1.661,0,0,1,1.647,1.661H153.54A1.661,1.661,0,0,1,155.2,202.64Z" transform="translate(17.509 75.508)" fill="#fff" opacity="0.3"/>
    <path id="Trazado_2321" data-name="Trazado 2321" d="M236.14,224.013,232.9,126.09a1.576,1.576,0,0,0-1.576-1.52H85.709a1.407,1.407,0,0,0-1.407,1.52l3.251,97.923a1.59,1.59,0,0,0,1.562,1.52H234.676a1.407,1.407,0,0,0,1.464-1.52Z" transform="translate(-10.697 43.706)" fill="#fff" opacity="0.9"/>
    <path id="Trazado_2322" data-name="Trazado 2322" d="M80.733,220.533H60.65L83.787,119.57H103.87Z" transform="translate(24.705 48.706)" fill="#fff"/>
    <path id="Trazado_2323" data-name="Trazado 2323" d="M86.1,220.533H78.87L102.021,119.57h7.22Z" transform="translate(32.127 48.706)" fill="#fff"/>
    <path id="Trazado_2324" data-name="Trazado 2324" d="M138.584,220.533H131.35L154.5,119.57h7.22Z" transform="translate(53.505 48.706)" fill="#fff"/>
    <path id="Trazado_2325" data-name="Trazado 2325" d="M136.15,122.81a1.2,1.2,0,0,0,1.182,1.154,1.112,1.112,0,0,0,1.112-1.154,1.182,1.182,0,0,0-1.182-1.14,1.1,1.1,0,0,0-1.112,1.14Z" transform="translate(10.425 42.525)" fill="#fff" opacity="0.4"/>
    <path id="Trazado_2326" data-name="Trazado 2326" d="M173.408,114.82c1.956,3.11,4.039,6.417,6.122,9.584s4.222,6.347,6.432,9.471a206.76,206.76,0,0,0,13.764,17.789,70.83,70.83,0,0,0,7.515,7.36l.943.76a5.164,5.164,0,0,0,.647.478,16.209,16.209,0,0,0,1.759,1.027,33.661,33.661,0,0,0,4.574,1.815c1.661.563,3.406,1.056,5.179,1.506s3.6.873,5.446,1.253c3.659.788,7.5,1.492,11.188,2.139v7.684c-2.111.31-4.081.45-6.136.605s-4.067.183-6.122.2a77.022,77.022,0,0,1-12.553-.985,46.7,46.7,0,0,1-6.629-1.675A24.178,24.178,0,0,1,202,172.324a17.769,17.769,0,0,1-1.844-1.07l-1.407-.985a75.167,75.167,0,0,1-9.739-8.529,173.1,173.1,0,0,1-15.664-18.816c-2.378-3.251-4.658-6.544-6.854-9.851s-4.335-6.671-6.418-10.274Z" transform="translate(20.173 39.735)" fill="#ffc3bd"/>
    <path id="Trazado_2327" data-name="Trazado 2327" d="M156.471,119.072c-1.07,9.612,21.828,32.594,21.828,32.594l15.481-12.919A208.376,208.376,0,0,0,178.721,116.6C169.9,105.689,157.681,108.208,156.471,119.072Z" transform="translate(18.688 37.593)" fill="#007cff"/>
    <path id="Trazado_2328" data-name="Trazado 2328" d="M169,123.15c-6.122-6.516-9.049-8.261-12.568-5.629.464,10.161,21.87,31.412,21.87,31.412C179.75,138,174.12,130.989,169,123.15Z" transform="translate(18.686 40.355)" opacity="0.3"/>
    <path id="Trazado_2329" data-name="Trazado 2329" d="M155.63,122.14l1.633,4.743-17.339,14.242-3.434-3.575Z" transform="translate(55.598 49.753)" fill="#007cff"/>
    <path id="Trazado_2330" data-name="Trazado 2330" d="M155.63,122.14l1.633,4.743-17.339,14.242-3.434-3.575Z" transform="translate(55.598 49.753)" fill="#1a2e35" opacity="0.3"/>
    <path id="Trazado_2331" data-name="Trazado 2331" d="M215.675,152.48l12.033,2.069-6.629,10.527c-1.562.267-7.867-3.152-10.64-7.374Z" transform="translate(40.687 55.075)" fill="#ffc3bd"/>
    <path id="Trazado_2332" data-name="Trazado 2332" d="M200.045,156.1l-4.813,5.461L186,159.477l6.629-10.527Z" transform="translate(75.766 60.674)" fill="#ffc3bd"/>
    <path id="Trazado_2333" data-name="Trazado 2333" d="M181.936,110.711s13.159,30.962,3.673,88.48H130.821c-.676-8.444,3.195-49.412-6.291-89.015a142.442,142.442,0,0,1,18.3-2.308,200.311,200.311,0,0,1,23.263,0,105.558,105.558,0,0,1,15.847,2.843Z" transform="translate(5.692 36.765)" fill="#007cff"/>
    <path id="Trazado_2334" data-name="Trazado 2334" d="M136.529,118.094c1.14,6.516-.38,22.109-5.953,40.137a264.694,264.694,0,0,0-5.376-45.978h0C128.789,111.817,135.445,111.958,136.529,118.094Z" transform="translate(5.964 38.628)" opacity="0.3"/>
    <path id="Trazado_2335" data-name="Trazado 2335" d="M138.927,89.15c1.731,7.487,3.673,21.209-1.407,26.2,0,0,2.181,6.206,16.1,6.206,15.3,0,7.163-6.206,7.163-6.206-8.444-2-8.444-8.191-7.163-14.073Z" transform="translate(10.983 29.278)" fill="#ffc3bd"/>
    <path id="Trazado_2336" data-name="Trazado 2336" d="M150.908,112.662l3.265,3.476a.7.7,0,0,1,.127.788l-1.633,3.434a.732.732,0,0,1-.605.394l-2.491.113a.69.69,0,0,1-.605-.3l-2.294-3.293a.7.7,0,0,1,0-.858l3.152-3.729a.69.69,0,0,1,1.084-.028Z" transform="translate(14.652 38.754)" fill="#fff"/>
    <path id="Trazado_2337" data-name="Trazado 2337" d="M154.95,114.832a17.817,17.817,0,0,0-2.66,8.444s-17.775-6.08-16.973-14.974a34.394,34.394,0,0,0,4.546-2.632S140.511,111.257,154.95,114.832Z" transform="translate(10.075 36.007)" fill="#1a2e35"/>
    <path id="Trazado_2338" data-name="Trazado 2338" d="M149.26,114.376a24.234,24.234,0,0,1,3.364,7.9s8.233-5.629,5.9-14.439l-4.855-1.041S154.692,112.476,149.26,114.376Z" transform="translate(15.765 36.464)" fill="#1a2e35"/>
    <path id="Trazado_2339" data-name="Trazado 2339" d="M151.619,118.194c1.112,3.631,9.359,30.6,9.556,37.055a.3.3,0,0,1,0,.155c-.76,3.476-4.222,9.57-5.629,11.962a.591.591,0,0,1-1.041-.084c-.957-2.336-3.293-7.98-4.813-11.259a.59.59,0,0,1,0-.211c-.732-11.779-.915-30.075-1.281-37.407a.563.563,0,0,1,.577-.605H151.1a.563.563,0,0,1,.521.394Z" transform="translate(15.418 40.948)" fill="#fff"/>
    <path id="Trazado_2340" data-name="Trazado 2340" d="M142.83,92.68l8.754,7.22a22.18,22.18,0,0,0-.577,4.138c-3.209-.464-7.712-3.969-8.163-7.3A11.413,11.413,0,0,1,142.83,92.68Z" transform="translate(13.075 30.716)" opacity="0.2"/>
    <path id="Trazado_2341" data-name="Trazado 2341" d="M154.657,73.494c2.083,1.548,5.629,8.078,1.084,9.851S149.59,69.708,154.657,73.494Z" transform="translate(16.688 22.656)" fill="#1a2e35"/>
    <path id="Trazado_2342" data-name="Trazado 2342" d="M136.7,87.506c2.083,9.964,2.815,15.889,8.627,20.491a13.243,13.243,0,0,0,21.49-9.345c.858-9.26-2.688-24.009-13.131-26.922A13.4,13.4,0,0,0,136.7,87.506Z" transform="translate(10.512 21.943)" fill="#ffc3bd"/>
    <path id="Trazado_2343" data-name="Trazado 2343" d="M141.852,97.446l4.222-2.815.253-2.421a18.042,18.042,0,0,0-1.886-10.245h0s20.336.76,22.869-5.629-4.658-11.146-4.658-11.146-7.192,4.124-12.061,4.461-19.7-5.742-19.7,6.826c-6.544,2.027-6.347,12.835,11.02,20.941" transform="translate(6.665 19.518)" fill="#1a2e35"/>
    <path id="Trazado_2344" data-name="Trazado 2344" d="M131.078,76.089s-2.688-2.153-.676-8.669C127.926,68.644,126.743,75.273,131.078,76.089Z" transform="translate(7.179 20.426)" fill="#1a2e35"/>
    <path id="Trazado_2345" data-name="Trazado 2345" d="M134.859,93.075a10.077,10.077,0,0,0,6.586,3.561c3.392.366,4.419-2.815,2.913-5.629-1.407-2.59-4.757-5.9-7.881-4.926S132.832,90.6,134.859,93.075Z" transform="translate(9.408 27.957)" fill="#ffc3bd"/>
    <path id="Trazado_2346" data-name="Trazado 2346" d="M182.976,205.944H147.989c-3.152-19-5.629-33.284-5.629-33.284h36.028S180.386,186.719,182.976,205.944Z" transform="translate(12.955 63.295)" fill="#1a2e35"/>
    <path id="Trazado_2347" data-name="Trazado 2347" d="M130.407,205.944c-.788-19-1.407-33.284-1.407-33.284h35.324s.183,14.467.253,33.284Z" transform="translate(7.512 63.295)" fill="#1a2e35"/>
    <path id="Trazado_2348" data-name="Trazado 2348" d="M147.756,84.026c.127.816.661,1.407,1.2,1.407s.873-.76.746-1.576-.647-1.407-1.182-1.407S147.644,83.224,147.756,84.026Z" transform="translate(15.144 26.549)" fill="#1a2e35"/>
    <path id="Trazado_2349" data-name="Trazado 2349" d="M154.358,83.3c.113.816.647,1.407,1.182,1.407s.873-.774.76-1.59-.661-1.407-1.2-1.407S154.231,82.484,154.358,83.3Z" transform="translate(17.831 26.247)" fill="#1a2e35"/>
    <path id="Trazado_2350" data-name="Trazado 2350" d="M152.29,83.36a30.765,30.765,0,0,0,4.94,6.53,4.686,4.686,0,0,1-3.814,1.154Z" transform="translate(16.999 26.92)" fill="#ff847f"/>
    <path id="Trazado_2351" data-name="Trazado 2351" d="M151.669,91.375a7.685,7.685,0,0,0,1.7,0,.239.239,0,0,0,0-.479,6.783,6.783,0,0,1-5.629-1.956.253.253,0,0,0-.352,0,.239.239,0,0,0,0,.338,7.135,7.135,0,0,0,4.278,2.1Z" transform="translate(14.975 29.164)" fill="#1a2e35"/>
    <path id="Trazado_2352" data-name="Trazado 2352" d="M145.5,82.579a.493.493,0,0,0,.478-.239,3.715,3.715,0,0,1,2.815-1.942.493.493,0,0,0,.464-.507.464.464,0,0,0-.507-.45,4.644,4.644,0,0,0-3.645,2.421.493.493,0,0,0,.183.661A.464.464,0,0,0,145.5,82.579Z" transform="translate(14.049 25.322)" fill="#1a2e35"/>
    <path id="Trazado_2353" data-name="Trazado 2353" d="M157.944,81.138a.521.521,0,0,0,.324,0,.493.493,0,0,0,.127-.676,5.024,5.024,0,0,0-3.842-2.322.486.486,0,1,0-.014.971A4.081,4.081,0,0,1,157.592,81a.465.465,0,0,0,.352.141Z" transform="translate(17.72 24.793)" fill="#1a2e35"/>
    <path id="Trazado_2354" data-name="Trazado 2354" d="M140.876,122.77l-2.421,4.222q-1.224,2.153-2.407,4.349c-1.562,2.927-3.082,5.869-4.532,8.824s-2.815,5.953-3.983,8.951c-.591,1.492-1.182,3-1.689,4.489l-.774,2.252-.647,2.238-.169.563-.084.281h0a.619.619,0,0,0-.084.253,6.344,6.344,0,0,0,0,1.281,20.333,20.333,0,0,0,.816,3.842,66.353,66.353,0,0,0,3.5,8.754c2.815,5.939,6.136,11.948,9.457,17.8l-6.052,4.729a106.945,106.945,0,0,1-7.192-8.022c-2.266-2.815-4.419-5.629-6.46-8.726a64.655,64.655,0,0,1-5.5-9.964,32.158,32.158,0,0,1-2.027-6.15,20.013,20.013,0,0,1-.422-3.884,15.3,15.3,0,0,1,.183-2.336l.1-.577.07-.352.141-.7a81.738,81.738,0,0,1,2.815-10.921c1.154-3.532,2.519-6.924,3.955-10.274s3.04-6.586,4.729-9.781c.858-1.6,1.731-3.181,2.632-4.743s1.815-3.082,2.9-4.757Z" transform="translate(-0.142 39.568)" fill="#ffc3bd"/>
    <path id="Trazado_2355" data-name="Trazado 2355" d="M130.222,109.464c-9.64,1.407-19.562,34.973-19.562,34.973l20.73,11.5s8.444-15.973,12.413-27.823C148.011,115.7,140.552,107.958,130.222,109.464Z" transform="translate(0.042 37.477)" fill="#007cff"/>
    <path id="Trazado_2356" data-name="Trazado 2356" d="M79.217,125.9l-.887,4.94,21.321,11.723,2.843-4.053Z" transform="translate(31.907 51.285)" fill="#007cff"/>
    <path id="Trazado_2357" data-name="Trazado 2357" d="M79.217,125.9l-.887,4.94,21.321,11.723,2.843-4.053Z" transform="translate(31.907 51.285)" fill="#1a2e35" opacity="0.3"/>
    <path id="Trazado_2358" data-name="Trazado 2358" d="M129.016,167.663l10.2-1.773-5.235,11.794s-9.3,0-8.88-4.855Z" transform="translate(5.92 60.538)" fill="#ffc3bd"/>
    <path id="Trazado_2359" data-name="Trazado 2359" d="M112.245,166.815l-4.785,9.528-8.05-3.659,5.235-11.794Z" transform="translate(40.494 65.538)" fill="#ffc3bd"/>
    <path id="Trazado_2360" data-name="Trazado 2360" d="M410.737,233.532H263.093a3.757,3.757,0,0,1-3.772-3.912l3.49-105.551a4.081,4.081,0,0,1,4.039-3.9h147.63a3.772,3.772,0,0,1,3.786,3.9l-3.5,105.551A4.081,4.081,0,0,1,410.737,233.532Z" transform="translate(60.597 41.914)" fill="#007cff"/>
    <path id="Trazado_2361" data-name="Trazado 2361" d="M410.737,233.532H263.093a3.757,3.757,0,0,1-3.772-3.912l3.49-105.551a4.081,4.081,0,0,1,4.039-3.9h147.63a3.772,3.772,0,0,1,3.786,3.9l-3.5,105.551A4.081,4.081,0,0,1,410.737,233.532Z" transform="translate(60.597 41.914)" fill="#1a2e35" opacity="0.6"/>
    <path id="Trazado_2362" data-name="Trazado 2362" d="M409.881,233.532H262.222a3.772,3.772,0,0,1-3.772-3.912l3.49-105.551a4.081,4.081,0,0,1,4.039-3.9H413.639a3.772,3.772,0,0,1,3.772,3.9l-3.49,105.551A4.081,4.081,0,0,1,409.881,233.532Z" transform="translate(60.242 41.914)" fill="#007cff"/>
    <path id="Trazado_2363" data-name="Trazado 2363" d="M417.562,200.58H239.251a4.686,4.686,0,0,0-4.222,2.632,1.407,1.407,0,0,0,1.238,1.928H420.63a1.407,1.407,0,0,0,1.224-1.928A4.672,4.672,0,0,0,417.562,200.58Z" transform="translate(50.662 74.668)" fill="#007cff"/>
    <path id="Trazado_2364" data-name="Trazado 2364" d="M373.862,200.58H346.531a4.686,4.686,0,0,0-4.222,2.632,1.407,1.407,0,0,0,1.239,1.928h33.3a1.407,1.407,0,0,0,1.224-1.928A4.672,4.672,0,0,0,373.862,200.58Z" transform="translate(94.362 74.668)" fill="#1a2e35" opacity="0.6"/>
    <path id="Trazado_2365" data-name="Trazado 2365" d="M309.628,202.64H272.6a1.661,1.661,0,0,0-1.661,1.661h40.349a1.661,1.661,0,0,0-1.661-1.661Z" transform="translate(65.331 75.508)" opacity="0.2"/>
    <path id="Trazado_2366" data-name="Trazado 2366" d="M261,224.013l3.237-97.923a1.576,1.576,0,0,1,1.576-1.52H411.376a1.407,1.407,0,0,1,1.407,1.52l-3.237,97.923a1.59,1.59,0,0,1-1.576,1.52H262.409a1.407,1.407,0,0,1-1.407-1.52Z" transform="translate(61.281 43.706)" fill="#fff" opacity="0.9"/>
    <path id="Trazado_2367" data-name="Trazado 2367" d="M308.353,220.533H288.27L311.421,119.57H331.5Z" transform="translate(117.425 48.706)" fill="#fff"/>
    <path id="Trazado_2368" data-name="Trazado 2368" d="M242.68,220.533h-7.22L258.6,119.57h7.234Z" transform="translate(95.913 48.706)" fill="#fff"/>
    <path id="Trazado_2369" data-name="Trazado 2369" d="M316.334,220.533H309.1L332.251,119.57h7.22Z" transform="translate(125.91 48.706)" fill="#fff"/>
    <path id="Trazado_2370" data-name="Trazado 2370" d="M317.66,122.81a1.2,1.2,0,0,1-1.182,1.154,1.1,1.1,0,0,1-1.1-1.154,1.182,1.182,0,0,1,1.182-1.14,1.084,1.084,0,0,1,1.1,1.14Z" transform="translate(83.433 42.525)" opacity="0.4"/>
    <path id="Trazado_2371" data-name="Trazado 2371" d="M316.385,89.15c-1.717,7.487-3.659,21.209,1.407,26.2,0,0-2.2,6.206-16.1,6.206-15.312,0-7.177-6.206-7.177-6.206,8.444-2,8.444-8.191,7.163-14.073Z" transform="translate(74.055 29.278)" fill="#cd5b51"/>
    <path id="Trazado_2372" data-name="Trazado 2372" d="M329.05,114.43c1.084,1.675,2,3.152,2.9,4.757s1.773,3.138,2.632,4.743c1.689,3.195,3.279,6.446,4.729,9.781s2.815,6.741,3.955,10.274a79.659,79.659,0,0,1,2.885,10.921l.155.7.07.352.084.577a15.292,15.292,0,0,1,.183,2.336,20.01,20.01,0,0,1-.422,3.884,32.172,32.172,0,0,1-2.012,6.15,65.909,65.909,0,0,1-5.517,9.964c-2.041,3.054-4.222,5.953-6.46,8.726a103.4,103.4,0,0,1-7.177,8.022l-6.066-4.729c3.321-5.855,6.7-11.864,9.471-17.8a66.147,66.147,0,0,0,3.49-8.754,18.3,18.3,0,0,0,.816-3.842,6.351,6.351,0,0,0,0-1.281c0-.127,0-.239-.07-.253h0l-.084-.281-.169-.563-.647-2.238-.774-2.252c-.507-1.492-1.084-3-1.675-4.489-1.224-3-2.575-5.981-4-8.951s-2.955-5.9-4.532-8.824q-1.154-2.2-2.407-4.349l-2.421-4.222Z" transform="translate(83.682 39.576)" fill="#ce5b51"/>
    <path id="Trazado_2373" data-name="Trazado 2373" d="M327.665,109.464c9.64,1.407,19.562,34.973,19.562,34.973l-20.73,11.5s-8.444-15.973-12.413-27.823C309.891,115.7,317.336,107.958,327.665,109.464Z" transform="translate(82.421 37.477)" fill="#1a2e35"/>
    <path id="Trazado_2374" data-name="Trazado 2374" d="M319.382,122.48l-1.562,14.383c1.562,3.448,3.1,6.615,4.292,9.035C322.563,140.1,322.549,130.769,319.382,122.48Z" transform="translate(84.427 42.855)" opacity="0.3"/>
    <path id="Trazado_2375" data-name="Trazado 2375" d="M311.723,125.9l.887,4.94-21.321,11.723-2.829-4.053Z" transform="translate(117.503 51.285)" fill="#007cff"/>
    <path id="Trazado_2376" data-name="Trazado 2376" d="M311.723,125.9l.887,4.94-21.321,11.723-2.829-4.053Z" transform="translate(117.503 51.285)" fill="#1a2e35" opacity="0.3"/>
    <path id="Trazado_2377" data-name="Trazado 2377" d="M323.019,167.663,312.83,165.89l5.221,11.794s9.3,0,8.88-4.855Z" transform="translate(82.395 60.538)" fill="#cd5b51"/>
    <path id="Trazado_2378" data-name="Trazado 2378" d="M275.42,166.815l4.785,9.528,8.05-3.659L283.02,160.89Z" transform="translate(112.191 65.538)" fill="#cd5b51"/>
    <path id="Trazado_2379" data-name="Trazado 2379" d="M284.688,110.711s-13.159,30.962-3.673,88.48H335.76c.676-8.444-3.181-49.412,6.291-89.015a142.44,142.44,0,0,0-18.3-2.308,200.549,200.549,0,0,0-23.277,0A105.554,105.554,0,0,0,284.688,110.711Z" transform="translate(68.035 36.765)" fill="#1a2e35"/>
    <path id="Trazado_2380" data-name="Trazado 2380" d="M278.8,129.5a187.445,187.445,0,0,0-1.224,20.857c7.459-4.855,10.1-15.973,11.16-24.037Z" transform="translate(68.036 44.419)" opacity="0.3"/>
    <path id="Trazado_2381" data-name="Trazado 2381" d="M310.151,122.725c-2.083,3.6-4.222,6.9-6.417,10.274s-4.489,6.657-6.868,9.851a173.019,173.019,0,0,1-15.65,18.816,76.265,76.265,0,0,1-9.753,8.529l-1.407.985a21.3,21.3,0,0,1-1.844,1.07,25.539,25.539,0,0,1-3.532,1.506,47.179,47.179,0,0,1-6.629,1.675,77.151,77.151,0,0,1-12.553.985c-2.055,0-4.1,0-6.136-.2s-4.025-.3-6.122-.605v-7.628c3.7-.647,7.529-1.407,11.259-2.139,1.844-.38,3.673-.788,5.446-1.253s3.518-.943,5.179-1.506a32.944,32.944,0,0,0,4.574-1.815,14.956,14.956,0,0,0,1.759-1.027,5.159,5.159,0,0,0,.647-.478l.957-.76a72.1,72.1,0,0,0,7.417-7.346,201.254,201.254,0,0,0,13.764-17.775c2.181-3.124,4.306-6.291,6.432-9.471s4.222-6.474,6.122-9.584Z" transform="translate(49.974 39.739)" fill="#ce5b51"/>
    <path id="Trazado_2382" data-name="Trazado 2382" d="M302.281,119.072c1.084,9.612-20.35,32.946-20.35,32.946L265,138.747A208.372,208.372,0,0,1,280.059,116.6C288.826,105.689,301.07,108.208,302.281,119.072Z" transform="translate(62.911 37.593)" fill="#1a2e35"/>
    <path id="Trazado_2383" data-name="Trazado 2383" d="M234.333,122.14l-1.633,4.743,17.353,14.242,3.434-3.575Z" transform="translate(94.789 49.753)" fill="#007cff"/>
    <path id="Trazado_2384" data-name="Trazado 2384" d="M234.333,122.14l-1.633,4.743,17.353,14.242,3.434-3.575Z" transform="translate(94.789 49.753)" fill="#1a2e35" opacity="0.3"/>
    <path id="Trazado_2385" data-name="Trazado 2385" d="M236.776,152.62l-12.216.183,4.926,11.428c1.506.493,8.247-1.9,11.653-5.629Z" transform="translate(46.438 55.132)" fill="#cd5b51"/>
    <path id="Trazado_2386" data-name="Trazado 2386" d="M186.57,153.675l6.671,8.374,6.685-2.871L195,147.75Z" transform="translate(75.998 60.185)" fill="#cd5b51"/>
    <path id="Trazado_2387" data-name="Trazado 2387" d="M292.008,83.3c-.113.816-.647,1.407-1.182,1.407s-.873-.774-.76-1.59.661-1.407,1.2-1.407S292.135,82.484,292.008,83.3Z" transform="translate(73.113 26.247)" fill="#1a2e35"/>
    <path id="Trazado_2388" data-name="Trazado 2388" d="M293.04,83.36a30.767,30.767,0,0,1-4.94,6.53,4.686,4.686,0,0,0,3.814,1.154Z" transform="translate(72.321 26.92)" fill="#ba221f"/>
    <path id="Trazado_2389" data-name="Trazado 2389" d="M291.737,91.159c-1.83,0-3.49-2.632-3.772-6.009a7.332,7.332,0,0,1,1.253-5.348,2.069,2.069,0,0,1,1.52-.732h0c1.83,0,3.49,2.632,3.772,6.009h0a7.276,7.276,0,0,1-1.253,5.334,2.012,2.012,0,0,1-1.52.746Zm-.985-11.54h0a1.52,1.52,0,0,0-1.14.563,6.882,6.882,0,0,0-1.112,4.926c.267,2.984,1.745,5.5,3.237,5.5h0a1.534,1.534,0,0,0,1.126-.563,6.91,6.91,0,0,0,1.112-4.926c-.3-2.984-1.7-5.5-3.223-5.5Z" transform="translate(72.231 25.172)" fill="#1a2e35"/>
    <path id="Trazado_2390" data-name="Trazado 2390" d="M294.658,81.14a.521.521,0,0,0,.324,0,.493.493,0,0,0,.127-.676,5.024,5.024,0,0,0-3.842-2.322.493.493,0,1,0,0,.971A4.081,4.081,0,0,1,294.32,81a.464.464,0,0,0,.338.141Z" transform="translate(73.376 24.791)" fill="#1a2e35"/>
    <path id="Trazado_2391" data-name="Trazado 2391" d="M320.107,87.508c-2.069,9.964-2.815,15.889-8.627,20.491a13.243,13.243,0,0,1-21.5-9.345c-.858-9.26,2.688-24.009,13.131-26.923a13.4,13.4,0,0,1,17,15.776Z" transform="translate(73.035 21.942)" fill="#cd5b51"/>
    <path id="Trazado_2392" data-name="Trazado 2392" d="M332.059,205.944a126.128,126.128,0,0,0-2.815-33.284H293.85a133.009,133.009,0,0,1,4.039,33.284Z" transform="translate(74.663 63.295)" fill="#007cff"/>
    <path id="Trazado_2393" data-name="Trazado 2393" d="M332.059,205.944a126.128,126.128,0,0,0-2.815-33.284H293.85a133.009,133.009,0,0,1,4.039,33.284Z" transform="translate(74.663 63.295)" fill="#fff" opacity="0.3"/>
    <path id="Trazado_2394" data-name="Trazado 2394" d="M297.108,90.765c-1.942-.971-4.377-10.71-3.715-14.186s8.529-7.177,16.255-5.77,11.048,4.109,12.539,11.132c1.548,7.3-4.081,19.45-6.868,20.378a12.3,12.3,0,0,1-10.119-.844C302.737,99.913,301.33,88.752,297.108,90.765Z" transform="translate(74.431 21.682)" fill="#1a2e35"/>
    <path id="Trazado_2395" data-name="Trazado 2395" d="M296.054,81.786c-3.772.211-7.36-5.784-3.9-11.132a9.457,9.457,0,0,1,9.373-4.222s-1.576,3.082,3.687,2.435,15.045.83,18.464,4.5c4.222,4.532,1.675,13.454-4.686,11.259S296.054,81.786,296.054,81.786Z" transform="translate(73.402 19.98)" fill="#1a2e35"/>
    <path id="Trazado_2396" data-name="Trazado 2396" d="M295.538,80.549a5.531,5.531,0,0,1-4.067-2.083,8.247,8.247,0,0,1-1.253-8.6.282.282,0,0,1,.366-.141.267.267,0,0,1,.141.352,7.74,7.74,0,0,0,1.154,8.036,4.6,4.6,0,0,0,4.461,1.858.267.267,0,0,1,.324.211.253.253,0,0,1-.2.324A3.434,3.434,0,0,1,295.538,80.549Z" transform="translate(72.905 21.357)" fill="#1a2e35"/>
    <path id="Trazado_2397" data-name="Trazado 2397" d="M302.9,85.279a10.105,10.105,0,0,1-2.336,7.121c-2.21,2.59-5.109,1.027-6-2.1-.8-2.815-.605-7.543,2.336-8.993S302.674,82.112,302.9,85.279Z" transform="translate(74.79 25.901)" fill="#cd5b51"/>
    <path id="Trazado_2398" data-name="Trazado 2398" d="M276.73,205.944h39.279a129.392,129.392,0,0,0,1.407-33.284H281.332S279.334,186.719,276.73,205.944Z" transform="translate(67.689 63.295)" fill="#007cff"/>
    <path id="Trazado_2399" data-name="Trazado 2399" d="M276.73,205.944h39.279a129.392,129.392,0,0,0,1.407-33.284H281.332S279.334,186.719,276.73,205.944Z" transform="translate(67.689 63.295)" fill="#fff" opacity="0.3"/>
  </g>
</svg>
